<?xml version="1.0" standalone="no"?>
<!DOCTYPE svg PUBLIC "-//W3C//DTD SVG 1.1//EN" "http://www.w3.org/Graphics/SVG/1.1/DTD/svg11.dtd" >
<svg xmlns="http://www.w3.org/2000/svg">
<metadata></metadata>
<defs>
<font id="cicleshadow" horiz-adv-x="1003" >
<font-face units-per-em="2048" ascent="1638" descent="-410" />
<missing-glyph horiz-adv-x="526" />
<glyph horiz-adv-x="0" />
<glyph horiz-adv-x="682" />
<glyph unicode=" "  horiz-adv-x="526" />
<glyph unicode="&#x09;" horiz-adv-x="526" />
<glyph unicode="&#xa0;" horiz-adv-x="526" />
<glyph unicode="!" horiz-adv-x="397" d="M66 43q0 35 23 58.5t58 23.5q18 0 33 -6v57h-102v1249h139v-102h102v-1249h-98q6 -15 6 -29v-2q0 -9 -4 -25q20 5 27 5q37 0 57.5 -22.5t22.5 -57.5v-2q0 -33 -23.5 -57.5t-56.5 -24.5q-35 0 -58.5 24.5t-23.5 57.5q0 16 2 24q-12 -4 -23 -4q-34 0 -57.5 24.5t-23.5 57.5 zM86 43q0 -25 17.5 -43t43.5 -18q25 0 42.5 18t17.5 43v2q-2 26 -17.5 42.5t-42.5 16.5q-26 0 -43.5 -17.5t-17.5 -43.5zM98 197h99v1208h-99v-1208z" />
<glyph unicode="&#x22;" horiz-adv-x="540" d="M53 1425h312l10 -102h92l18 -164l-100 -215l-57 57l-9 123l-36 -77l-47 -103l-58 57l-8 123l-37 -77l-57 57zM76 1405l20 -293l31 -31l86 183l-16 141h-121zM225 1405l21 -293l30 -31l86 183l-16 141h-121z" />
<glyph unicode="#" horiz-adv-x="1642" d="M39 793l125 155h340q13 36 40.5 107.5t41.5 107.5q7 19 31 79t34 89h160l-39 -102h141l-104 -281h266q17 46 101 266q20 50 43 117h161l-39 -102h142l-105 -281h119l-82 -102h184l-124 -156h-185q-4 -13 -14 -37.5t-14 -36.5q-3 -8 -9 -21.5t-8 -19.5h254l-86 -102h189 l-129 -156h-324q-5 -14 -33 -89.5t-43 -116.5q-13 -37 -41 -118.5t-41 -115.5h-166l37 103h-139l123 337h-268q-65 -188 -99 -280v2q-8 -22 -29 -79t-30 -83h-164l37 103h-139l122 337h-133l84 103h-186l127 155h201q6 19 21.5 58.5t21.5 56.5h-271l82 103h-184zM82 813h397 q-11 -30 -44 -119.5t-52 -138.5h-205l-94 -115h260l-162 -440h121q11 30 71 193.5t89 246.5h450l-161 -440h122q25 70 79.5 219.5t78.5 220.5h328l96 115h-381q14 39 30.5 82t37 95t31.5 81h188l92 115h-242l140 383h-119q-127 -336 -143 -383h-447l139 383h-118 q-20 -52 -70 -182.5t-76 -200.5h-344zM506 555l96 258h447q-17 -48 -49.5 -135t-45.5 -123h-448zM674 575h268q6 17 17.5 50.5t17.5 50.5q4 8 6 14h-264z" />
<glyph unicode="$" horiz-adv-x="1058" d="M41 188l123 97q45 -65 98 -107l4 4q4 -8 8 -12q59 -44 129 -53v442q-117 52 -184 148q-80 57 -124 140.5t-44 180.5q0 144 99 251.5t253 141.5v97h152v-86q39 -2 96 -17h6v-2q140 -41 258 -172l-6 -4q64 -48 109 -98l-121 -99q-104 125 -240 140v-459q117 -51 189 -152 q80 -58 125 -139t45 -174q0 -139 -104 -248.5t-255 -140.5v-121h-151v102h-103v37q-147 53 -245 181q-75 58 -117 122zM70 184q57 -81 148 -135.5t196 -64.5h10v-115h111v119q153 22 255.5 125.5t102.5 244.5q0 136 -101 241.5t-257 139.5v566q75 -4 145 -40.5t117 -93.5 l90 72q-146 162 -352 168v86h-111v-92q-155 -28 -253.5 -131t-98.5 -246q0 -139 97.5 -245t254.5 -138v-551q-78 4 -149.5 51t-114.5 111zM188 1036q0 89 67.5 161t168.5 97v-532q-104 28 -170 105t-66 169zM311 934q0 -63 31 -117q25 -17 61 -26v319q-92 -73 -92 -176z M535 100v531q106 -23 173.5 -102t67.5 -177q0 -97 -69 -167t-172 -85zM657 168q99 69 99 184q0 65 -35 121q-21 14 -64 29v-334z" />
<glyph unicode="&#x26;" horiz-adv-x="1280" d="M45 389q0 118 88.5 227.5t245.5 186.5q2 0 10 4q-2 2 -2 4l2 -2q-1 1 -2 3t-2 3q-100 106 -131 172.5t-31 134.5q0 124 96.5 218t247.5 94q94 0 169 -41.5t116 -110.5q67 -41 105 -107t38 -143q0 -98 -65 -181t-203 -159l-6 -4q27 -34 78 -98t78 -98q15 -20 20 -25 q34 73 64 188l169 -34q-12 -33 -26 -76l129 -27q-75 -218 -131 -305q0 -8 -2 -12q0 -1 -1 -5.5t-1 -5.5q4 -7 13 -21.5t13 -21.5q2 -2 4 -2v-2q30 -40 103 -100v-178q-78 49 -120 86.5t-83 85.5q-30 25 -35 29q-176 -192 -401 -189q-118 0 -216 50t-157 134 q-82 57 -128 143.5t-46 184.5zM66 389q0 -160 121 -274.5t302 -114.5q224 -3 388 182q13 13 22 25l25 -31q2 -2 14 -18q31 -37 49 -57t50 -47.5t71 -51.5v133q-52 41 -72.5 66.5t-60.5 87.5q0 5 2 16t2 17q62 94 125 282l-127 27q-18 -84 -66 -178q-3 -6 -9 -19.5t-9 -19.5 q-42 52 -145 181.5t-162 201.5l30 16q132 73 194 151.5t62 170.5q0 116 -86 197t-219 81q-142 0 -232.5 -87.5t-90.5 -203.5q0 -65 30 -128.5t125 -164.5q15 -20 23 -28q-6 -3 -16.5 -7.5t-18.5 -9.5q-160 -72 -240.5 -174t-80.5 -221zM199 399q0 87 60.5 164.5t195.5 155.5 l20 14q49 -61 164.5 -206.5t181.5 -225.5q-6 -6 -12 -18v2q-55 -81 -144.5 -133.5t-175.5 -51.5q-82 0 -150 45t-104 113.5t-36 140.5zM322 297q0 -76 40 -143q61 -33 127 -33q79 -1 163.5 48.5t138.5 123.5q0 2 4 6q-35 42 -98 123.5t-95 120.5q-6 8 -20.5 25t-20.5 26 q-126 -73 -182.5 -145.5t-56.5 -151.5zM324 602q71 55 151 96q-1 1 -2 3.5t-2 3.5l-6 -5q-100 -61 -141 -98zM367 1139q0 77 56.5 131.5t133.5 54.5q85 0 138 -55.5t53 -136.5q0 -77 -42 -133.5t-155 -122.5h2l-18 -11l-95 109q-70 79 -73 164zM416 1231q44 44 100 67 q-64 -16 -100 -67zM489 1036q3 -70 58 -137q102 60 141 112t39 122q0 29 -10 59q-30 10 -58 10q-69 0 -119.5 -48.5t-50.5 -117.5zM631 799l8 -8q1 0 3 1t3 1h-2q117 67 158 129q-61 -64 -170 -123zM975 287v2l2 -8z" />
<glyph unicode="'" horiz-adv-x="409" d="M35 1114l71 148l-18 151l164 12l12 -110l90 8l19 -170l-183 -195l-53 54l72 147l-4 27l-117 -125zM59 1118l29 -28l162 172l-17 143l-122 -10l16 -138z" />
<glyph unicode="(" horiz-adv-x="548" d="M41 590q0 273 74 509.5t194 362.5l60 -153q13 17 43 51l65 -166q-78 -95 -124 -286t-46 -421q0 -251 55.5 -452t145.5 -287l-88 -143q-43 43 -92 119l-11 -17q-124 122 -200 360.5t-76 522.5zM61 590q0 -279 70 -509t182 -341l66 108q-87 84 -141 286t-54 456 q0 232 45.5 424t122.5 286l-49 125q-108 -115 -175 -341.5t-67 -493.5z" />
<glyph unicode=")" horiz-adv-x="548" d="M41 -147q90 86 145.5 286t55.5 451q0 230 -46 420.5t-124 285.5l61 166q47 -52 92 -129l11 27q121 -130 196.5 -367t75.5 -506q0 -282 -76.5 -520t-198.5 -360l-79 127q-17 -17 -23 -25zM66 -152l67 -108q111 111 181.5 341.5t70.5 508.5q0 265 -68 492t-176 343 l-47 -125q77 -94 122.5 -286t45.5 -424q0 -255 -54 -456.5t-142 -285.5z" />
<glyph unicode="*" horiz-adv-x="946" d="M45 1055v151h193l-138 137l107 109l137 -137v194h152v-102h92l45 45l108 -106l-2 -3l105 -100l-45 -45v-92h102v-154h-196l30 -32q9 -9 15 -13l94 -94l-107 -104l-139 139v-199h-152v103h-94l-43 -43l-108 104l2 2l-105 100l49 50v90h-102zM66 1075h221l-160 -160l80 -75 q25 25 158 153v-221h110v225l160 -157l78 75q-24 25 -80 80t-80 80h225v113h-223l158 158l-80 77l-158 -157v223h-110v-223l-158 157l-78 -80l158 -157h-221v-111z" />
<glyph unicode="+" horiz-adv-x="899" d="M20 524v152h302v301h151v-103h102v-198h201v-103h103v-151h-304v-303h-151v102h-102v201h-199v102h-103zM41 545h301v-303h111v303h303v110h-303v301h-111v-301h-301v-110z" />
<glyph unicode="," horiz-adv-x="421" d="M35 -111l84 136v151h164v-102h102v-178l-205 -177l-43 68l84 135v23l-143 -123zM59 -111l23 -34l180 153v148h-123v-138z" />
<glyph unicode="-" d="M72 524v152h755v-103h103v-151h-756v102h-102zM92 545h715v110h-715v-110z" />
<glyph unicode="." horiz-adv-x="415" d="M57 -20v196h197v-102h102v-197h-196v103h-103zM78 0h155v156h-155v-156z" />
<glyph unicode="/" horiz-adv-x="825" d="M16 -20l531 1445h160l-39 -102h141l-528 -1446h-162l37 103h-140zM45 0h121l512 1405h-119z" />
<glyph unicode="0" horiz-adv-x="1288" d="M53 698q0 200 73.5 370t198 268t269.5 98q104 0 198 -52t166 -145q125 -95 200 -266t75 -375q0 -199 -71.5 -368.5t-195 -269t-270.5 -99.5q-102 0 -196.5 51.5t-167.5 144.5q-127 97 -203 269t-76 374zM74 698q0 -193 70 -358t190 -261.5t260 -96.5q141 0 260 96.5 t187.5 261t68.5 358.5q0 146 -40.5 278t-109.5 228t-164.5 152.5t-201.5 56.5q-140 0 -260 -95.5t-190 -260.5t-70 -359zM186 698q0 164 55 303t149 219t204 80q112 0 205 -80.5t146.5 -218.5t53.5 -303q0 -166 -53.5 -304.5t-146.5 -219t-205 -80.5q-110 0 -204 80 t-149 219.5t-55 304.5zM309 596q0 -256 123 -428q74 -53 162 -53q106 0 194.5 77.5t139.5 211.5t51 294q0 254 -123 426q-80 54 -160 54q-105 0 -194 -77.5t-141 -212t-52 -292.5z" />
<glyph unicode="1" horiz-adv-x="614" d="M45 1186l289 239h131v-102h102v-1446h-153v103h-103v1044q-4 -4 -15 -13t-17 -14q-6 -3 -23 -20l-109 106zM76 1184l78 -76q145 119 178 147v-1255h112v1405h-102z" />
<glyph unicode="2" horiz-adv-x="1044" d="M59 1280q179 154 353 154q116 0 216.5 -52.5t164.5 -142.5q88 -64 139 -161t51 -208q0 -174 -127 -311l-377 -428h402v-102h102v-152h-819v103h-103v131l590 659q78 88 78 203q0 84 -45 157q-81 48 -170 48q-128 0 -242 -111zM82 0h778v111h-620l499 565q121 124 121 297 q0 119 -60 220.5t-163 160.5t-225 59q-166 0 -322 -135l80 -80q110 102 242 102q141 0 239.5 -94.5t98.5 -232.5q0 -123 -84 -217l-584 -654v-102z" />
<glyph unicode="3" horiz-adv-x="1048" d="M53 133l107 107q55 -59 125 -95t141 -36q125 0 213 79t88 191q0 47 -29 94q-68 47 -149 66h-213v102h-103v152h218q118 6 199 76.5t81 166.5q0 46 -24 99q-76 45 -172 45q-158 0 -273 -127l-100 106l-2 -4l-105 113q74 78 173.5 122t203.5 44q121 0 225.5 -52.5 t165.5 -140.5q79 -57 124.5 -136.5t45.5 -170.5q0 -99 -52.5 -183.5t-141.5 -138.5q8 -8 12 -14q80 -59 126 -142t46 -180q0 -116 -61 -213t-165.5 -152.5t-228.5 -55.5q-106 0 -203.5 47.5t-168.5 128.5l6 6q-64 42 -109 96zM82 133q64 -71 154 -113.5t190 -42.5 q180 0 307 117.5t127 284.5q0 105 -56.5 193.5t-152.5 142.5q98 49 158.5 134.5t60.5 186.5q0 156 -129 266.5t-309 110.5q-101 0 -193.5 -38t-156.5 -107l78 -82q50 56 121.5 86.5t150.5 30.5q132 0 226 -77.5t94 -189.5q0 -103 -86.5 -180t-212.5 -84h-199v-110h197 q118 -23 207.5 -104t89.5 -179q0 -120 -95 -205.5t-227 -85.5q-75 0 -145 33.5t-121 89.5z" />
<glyph unicode="4" d="M23 485l4 129l475 824l133 -74l-21 -35l123 -67l-184 -318h129v-102h102v-203h95v-102h102v-154h-197v-506h-153v103h-103v403h-403l2 102h-104zM43 506h506v-506h113v506h196v112h-196v306h-113v-306h-369l426 738l-96 53l-463 -801zM377 639h151v262z" />
<glyph unicode="5" horiz-adv-x="1128" d="M57 680l54 745h800v-102h103v-154h-656q-7 -56 -14 -143q0 -3 -1 -7.5t-1 -6.5q71 22 147 22q111 0 207.5 -50.5t161.5 -139.5q97 -72 154 -187t57 -249q0 -144 -63.5 -266.5t-173 -193.5t-240.5 -71q-104 0 -201.5 53t-167.5 144q-78 59 -129 139l111 111 q40 -67 92 -113l10 10q6 -10 25 -39q73 -51 157 -51q134 0 229 111t95 268q0 127 -65 227q-73 45 -156 45q-92 0 -171 -55.5t-120 -148.5h-141l6 102h-109zM80 700h106q42 93 124 149t179 56q143 0 244 -115t101 -280q0 -166 -101 -282.5t-244 -116.5q-87 0 -162 48 t-126 132l-80 -80q64 -97 161.5 -154t206.5 -57q125 0 230 68.5t166 186t61 255.5q0 209 -133.5 356.5t-323.5 147.5q-176 0 -290 -111q9 80 21.5 212.5t17.5 176.5h653v113h-762z" />
<glyph unicode="6" horiz-adv-x="1118" d="M55 676v43q0 197 27 332q31 161 155 271t289 114q113 0 216 -53t182 -154q60 -49 112 -115l-145 -86q-50 70 -119.5 111t-140.5 41q-111 0 -197.5 -77t-105.5 -194q-9 -47 -15 -96q80 41 185 47q115 0 216.5 -51t164.5 -139q84 -60 132.5 -149.5t49.5 -196.5v-19 q0 -188 -130.5 -316t-320.5 -128q-108 0 -201.5 48.5t-156.5 133.5q-84 60 -134.5 153t-54.5 203v-2q-8 88 -8 279zM76 676q0 -189 8 -277v2q5 -117 63 -213t153.5 -150t207.5 -54q181 0 305.5 122.5t124.5 301.5v18q-1 118 -62.5 213.5t-161.5 148t-216 52.5 q-98 -4 -181.5 -47t-138.5 -115v16q0 175 27 322q20 124 112 205.5t211 81.5q76 0 147.5 -39.5t119.5 -106.5l108 66q-72 93 -169 142.5t-208 49.5q-158 -4 -276 -109t-148 -259q-26 -130 -26 -328v-43zM195 401q0 133 91 230.5t222 97.5q132 0 224 -88t97 -219v-19 q0 -128 -93.5 -219.5t-223.5 -91.5q-128 0 -222.5 91t-94.5 218zM317 299q0 -79 39 -143q67 -43 156 -43q123 0 210 85t87 205v19q-3 79 -41 141q-75 43 -158 43q-123 0 -208 -91t-85 -216z" />
<glyph unicode="7" horiz-adv-x="1024" d="M35 -20l553 1189h-385v103h-103v153h785l-49 -102h151l-676 -1446h-174l47 103h-149zM68 0h129l655 1405h-731v-113h549z" />
<glyph unicode="8" horiz-adv-x="1081" d="M55 395q0 109 52.5 205t140.5 158q-148 105 -148 297q0 155 114.5 267t272.5 112q102 0 188 -46.5t140 -125.5q78 -53 123 -134.5t45 -175.5q0 -189 -143 -295q2 -4 8 -10q84 -61 131 -153t47 -201q0 -180 -126.5 -307t-309.5 -127q-105 0 -197.5 49.5t-152.5 132.5 q-85 60 -135 153.5t-50 200.5zM76 395q0 -170 121 -291.5t290 -121.5q174 0 295 121t121 292q0 116 -56.5 212t-152.5 151q80 46 123 123t43 174q0 148 -108.5 253t-264.5 105q-151 0 -258.5 -105t-107.5 -253q0 -95 44 -173t122 -124q-93 -56 -152 -153.5t-59 -209.5z M188 395q0 124 88.5 213.5t210.5 89.5q127 0 216.5 -89t89.5 -214q0 -122 -89.5 -211.5t-216.5 -89.5q-121 0 -210 89.5t-89 211.5zM231 1055q0 102 75.5 173.5t180.5 71.5q107 0 182.5 -71t75.5 -174q0 -101 -75.5 -173.5t-182.5 -72.5q-105 0 -180.5 72.5t-75.5 173.5z M311 293q0 -74 39 -141q66 -37 137 -37q118 0 201.5 82.5t83.5 197.5q0 75 -39 142q-62 38 -143 38q-114 0 -196.5 -82.5t-82.5 -199.5zM354 952q0 -48 23 -96q49 -27 110 -27q98 0 168 66t70 160q0 48 -23 96q-59 27 -112 27q-97 0 -166.5 -66.5t-69.5 -159.5z" />
<glyph unicode="9" horiz-adv-x="1122" d="M55 973v14q0 184 131.5 316.5t317.5 132.5q108 0 201.5 -51t156.5 -138q84 -60 136 -153.5t61 -200.5q6 -86 6 -283v-53q0 -178 -25 -311q-32 -169 -165 -276t-306 -107q-104 0 -206 55.5t-175 147.5q-56 44 -102 102l135 113q42 -62 101 -105l2 2q1 -1 2 -4t2 -4 q73 -49 153 -49q117 0 203 74.5t111 187.5v-2q12 104 12 106q-92 -47 -205 -47q-111 0 -207 50.5t-159 138.5q-82 60 -131 150t-50 194zM76 973q3 -170 128.5 -290t295.5 -120q98 0 187.5 42.5t150.5 111.5v-25q0 -155 -23 -313q-27 -121 -118 -200t-216 -79 q-75 0 -144.5 39.5t-119.5 110.5l-102 -84q66 -82 159.5 -131t192.5 -49q166 0 293 102t158 264q24 128 24 307v54q0 194 -6 280q-14 173 -138 297.5t-294 124.5q-117 0 -215.5 -58t-155.5 -156.5t-57 -213.5v-14zM182 977q0 131 94.5 227t229.5 96q126 0 221.5 -92 t95.5 -217q0 -133 -94 -225t-229 -92q-126 0 -218 88.5t-100 214.5zM305 877q3 -74 43 -140q72 -43 152 -43q126 0 214.5 86.5t88.5 210.5q0 77 -41 142q-70 45 -154 45q-126 0 -214.5 -89.5t-88.5 -211.5z" />
<glyph unicode=":" horiz-adv-x="432" d="M66 -20v196h196v-102h103v-197h-197v103h-102zM66 848v196h196v-102h103v-197h-197v103h-102zM86 0h156v156h-156v-156zM86 868h156v156h-156v-156z" />
<glyph unicode=";" horiz-adv-x="456" d="M43 -111l84 136v151h166v-102h102v-178l-207 -177l-43 68l84 135v23l-143 -123zM68 -111l22 -34l182 153v148h-125v-138zM117 848v196h194v-102h103v-197h-195v103h-102zM137 868h154v156h-154v-156z" />
<glyph unicode="&#x3c;" horiz-adv-x="808" d="M31 508l532 539l111 -107l-2 -2l104 -100l-428 -432q3 -3 9.5 -10.5t9.5 -10.5q36 -37 77 -74q55 -55 230 -225l-2 -2q20 -21 104 -100l-108 -111l-103 102l-432 431zM59 508l506 -504l80 82q-68 67 -213.5 210.5t-214.5 211.5l428 432l-82 78z" />
<glyph unicode="=" horiz-adv-x="983" d="M72 379v156h735v-103h102v-156h-735v103h-102zM72 764v158h735v-103h102v-157h-735v102h-102zM92 399h694v115h-694v-115zM92 784h694v117h-694v-117z" />
<glyph unicode="&#x3e;" horiz-adv-x="808" d="M31 86l426 422l-82 82q-37 35 -117 119q-109 109 -227 231l108 107l103 -103l534 -538l-534 -533l-103 104v-2zM59 86l80 -82l506 504l-506 510l-80 -78q70 -70 214.5 -216t213.5 -216z" />
<glyph unicode="?" horiz-adv-x="899" d="M29 1225q60 96 150.5 152.5t191.5 56.5q98 0 183 -46t140 -126q81 -56 128.5 -147t47.5 -195q0 -163 -114.5 -283.5t-276.5 -120.5h-61q7 -25 23 -74.5t18 -56.5q27 -94 81.5 -279.5t67.5 -228.5h-78q17 -24 17 -55q0 -11 -2 -17q6 2 18 2q40 0 63 -24t23 -64 q0 -38 -23.5 -65t-62.5 -27q-34 0 -61 28t-27 64v13q-4 -2 -14 -2q-34 0 -61 28t-27 64q0 32 17.5 55t45.5 31l-20 72h-74l-188 663v127h223q102 3 171.5 75.5t69.5 176.5q0 67 -32 129q-56 29 -113 29q-66 0 -127.5 -45t-105.5 -121zM53 1229l80 -80q41 70 104 112t134 42 q111 0 189.5 -82t78.5 -199q0 -112 -76 -190.5t-186 -81.5h-203v-101l184 -649h119q-34 118 -106 362t-82 277h88q154 0 262.5 114t108.5 269q0 162 -110.5 276.5t-266.5 114.5q-97 0 -181 -49.5t-137 -134.5zM393 -178q0 -29 20.5 -50.5t47.5 -21.5q30 0 47.5 21t17.5 51 q0 31 -17 49t-48 18q-27 0 -47.5 -18.5t-20.5 -48.5z" />
<glyph unicode="@" horiz-adv-x="1634" d="M55 664q0 217 90.5 392t258.5 276.5t384 101.5q158 0 296.5 -62.5t226.5 -177.5q102 -78 160.5 -195t58.5 -262q0 -93 -30.5 -188.5t-84.5 -175.5h62l-29 -68q-3 -5 -6.5 -11.5t-8 -13.5t-6.5 -10h152l-29 -67q-75 -137 -244.5 -230.5t-398.5 -93.5q-202 0 -361 65.5 t-257 190.5q-234 183 -234 529zM76 664q0 -212 93.5 -363t256.5 -225t379 -74q223 0 389.5 92.5t239.5 227.5l12 30h-154q-65 -97 -193 -158t-296 -61q-284 0 -442 143.5t-158 399.5q0 171 75 309.5t207.5 217.5t296.5 79q108 0 201.5 -35.5t157.5 -95.5t100.5 -140 t36.5 -169q0 -54 -15 -133t-36 -121q-38 -79 -105.5 -135t-111.5 -56q-37 0 -54.5 15t-17.5 37.5t2 48.5q2 12 2 47l4 299h-4q-8 128 -52.5 207t-133.5 82q-96 0 -166 -23l-25 -2l29 -117l27 2q57 21 133 21q24 0 40 -15.5t24 -45t11.5 -61t4.5 -73.5h-146 q-115 0 -194.5 -77.5t-79.5 -192.5q0 -114 78 -194.5t188 -80.5q91 0 166 58q37 -45 151 -51q115 15 211 102.5t147.5 209.5t51.5 247q0 132 -51 241.5t-136.5 181t-197 111t-234.5 39.5q-210 0 -373 -98.5t-251 -269t-88 -381.5zM326 573q0 -187 90 -315q133 -90 319 -102 q-130 22 -198 135q-66 39 -105 107.5t-39 150.5q0 124 85.5 207.5t209.5 83.5h125q0 21 -4 49q-39 -3 -84 -19l-45 -2l-29 115q-5 -2 -14 -5t-14 -5l-45 -2l-21 84q-108 -79 -169.5 -205t-61.5 -277zM512 549q0 70 51.5 116t124.5 46h158v-162q0 -69 -49 -117.5t-117 -48.5 q-69 0 -118.5 48.5t-49.5 117.5zM559 629q8 12 14 16q-6 -4 -14 -16zM635 446q0 -14 4 -38q30 -5 41 -5q60 0 102.5 43t42.5 103v39h-34q-65 0 -110.5 -40.5t-45.5 -101.5zM782 1149q91 -14 138 -111q124 -48 149 -295q-4 -158 -4 -301v-6q39 23 78.5 66t64.5 94 q20 41 34.5 117.5t14.5 128.5q0 124 -73 227q-128 90 -299 90q-48 0 -103 -10zM813 154q91 0 174 22q-24 10 -41 27q-58 -39 -133 -49z" />
<glyph unicode="A" horiz-adv-x="1353" d="M31 -20l536 1456h117l37 -103h65l537 -1456h-160l-39 103h-63l-176 473h-377q-22 -60 -139 -373q-29 -74 -78 -203h-158l37 103h-139zM59 0h117q167 445 215 575h469l215 -575h117l-520 1415h-92zM432 688q39 106 110 297t83 223q37 -102 101 -272t93 -248h-387zM600 709 h193q-11 30 -40.5 106.5t-41.5 108.5v-2q-14 33 -17 43q-18 -47 -30 -84v-2q-26 -66 -64 -170z" />
<glyph unicode="B" horiz-adv-x="1138" d="M63 -20v1456h478q105 -3 194.5 -52t143.5 -127q76 -53 120.5 -132t44.5 -167q0 -188 -159 -305q2 -4 6 -8q84 -59 133 -149.5t49 -190.5q0 -172 -124 -296.5t-304 -127.5h2l-39 -4h-442v103h-103zM84 0h422l37 4h-2q172 3 290.5 121.5t118.5 282.5q0 107 -57 200 t-154 144q83 51 133 132.5t50 176.5q0 142 -112 246.5t-269 107.5h-457v-1415zM197 113v583h344q124 -7 210.5 -91t86.5 -197q0 -117 -86.5 -203t-210.5 -92h-344zM197 809v498h344q113 -6 190.5 -78t77.5 -168q0 -105 -77 -177t-191 -75h-344zM319 133h222 q115 6 195.5 86.5t80.5 188.5q0 66 -35 122q-60 37 -141 43h-322v-440zM319 829h222q105 3 176 69t71 163q0 42 -22 88q-60 29 -125 35h-322v-355z" />
<glyph unicode="C" horiz-adv-x="1339" d="M45 707q0 193 88 362.5t242.5 272t335.5 102.5q130 0 255.5 -60.5t223.5 -166.5l-6 -7q47 -35 108 -96l-106 -104q-175 178 -373 178q-137 0 -254.5 -78t-186.5 -212.5t-69 -293.5q0 -225 127 -393q127 -94 281 -94q192 0 368 176l107 -105l-2 -2l104 -100 q-102 -107 -224.5 -167t-250.5 -60q-138 0 -265.5 65.5t-221.5 179.5q-129 105 -205 264t-76 339zM66 707q0 -146 53.5 -280.5t141.5 -231.5t206.5 -155t243.5 -58q123 0 238 54.5t208 151.5l-78 76q-168 -168 -368 -168q-149 0 -271.5 83.5t-191 223.5t-68.5 304 q0 124 42.5 236t114 192.5t169.5 128t205 47.5q208 0 372 -170l78 76q-89 97 -206.5 151.5t-243.5 54.5q-131 0 -251 -58.5t-206 -156t-137 -229t-51 -272.5z" />
<glyph unicode="D" horiz-adv-x="1294" d="M63 -20v1456h547q100 -1 191.5 -52t161.5 -141q122 -95 195 -264.5t73 -370.5q0 -197 -67.5 -363t-186 -264.5t-260.5 -103.5h-551v103h-103zM84 0h530q136 5 249.5 101t179 257.5t65.5 352.5q0 190 -66.5 351.5t-181 256t-250.5 96.5h-526v-1415zM197 113v1190h413 q106 -2 194.5 -81.5t139.5 -215t51 -295.5q0 -243 -111.5 -416t-269.5 -178q-68 0 -207.5 -2t-209.5 -2zM319 133q58 0 89 2q35 0 103.5 1t102.5 1q149 5 255 173t106 401q0 252 -121 422q-65 44 -141 47h-394v-1047z" />
<glyph unicode="E" horiz-adv-x="1118" d="M74 -20v1456h868v-103h102v-149h-714v-355h508v-102h102v-154h-610v-440h612v-102h102v-154h-868v103h-102zM94 0h828v113h-715v583h610v113h-610v498h715v108h-828v-1415z" />
<glyph unicode="F" horiz-adv-x="1058" d="M43 -20v1456h868v-103h103v-147h-715v-357h508v-102h102v-154h-610v-696h-154v103h-102zM63 0h113v696h610v113h-610v500h715v106h-828v-1415z" />
<glyph unicode="G" horiz-adv-x="1355" d="M51 700q0 150 53 288t142.5 237.5t213 159t259.5 59.5q130 0 254 -59.5t227 -167.5l-6 -7q60 -47 109 -96l-107 -106q-83 85 -180 131.5t-195 46.5q-140 0 -259 -78t-188 -213.5t-69 -296.5q0 -224 127 -389q132 -98 287 -98q86 0 167 32.5t146 89.5v246h-280v103h-103 v149h537v-102h102v-545l-4 -21q-95 -98 -214 -151t-249 -53q-145 0 -273 64t-220 179q-129 103 -203 260t-74 338zM72 700q0 -194 87 -359.5t236 -262t324 -96.5q126 0 239.5 50t202.5 142l4 16v521h-495v-109h383v-377q-68 -63 -154.5 -99t-179.5 -36q-145 0 -269 82 t-196 222.5t-72 305.5q0 167 72.5 307.5t196 221t268.5 80.5q103 0 200 -44.5t175 -125.5l77 78q-94 98 -210 152t-242 54q-131 0 -251 -57.5t-206.5 -154.5t-138 -231t-51.5 -280z" />
<glyph unicode="H" horiz-adv-x="1259" d="M78 -20v1456h153v-103h103v-504h594v607h151v-103h103v-1456h-152v103h-102v593h-594v-696h-154v103h-102zM98 0h113v696h737v-696h111v1415h-111v-606h-737v606h-113v-1415z" />
<glyph unicode="I" horiz-adv-x="411" d="M78 -20v1456h153v-103h103v-1456h-154v103h-102zM98 0h113v1415h-113v-1415z" />
<glyph unicode="J" horiz-adv-x="690" d="M41 80l102 106q64 -71 109 -71q58 0 97.5 66.5t39.5 166.5v1088h156v-103h102v-1083q0 -158 -87 -274.5t-206 -116.5q-108 0 -211 118l9 11q-59 30 -111 92zM70 80q88 -98 182 -98q110 0 191 109.5t81 260.5v1063h-114v-1067q0 -109 -46.5 -181.5t-111.5 -72.5 q-52 0 -109 64z" />
<glyph unicode="K" horiz-adv-x="1333" d="M59 -20v1456h154v-103h102v-471q44 52 494 574h207l-88 -103h190l-549 -639q119 -141 365.5 -426t337.5 -391h-203l-88 103h-14l-508 591q-29 -39 -62 -75q-14 -17 -40.5 -49t-41.5 -48v-522h-153v103h-103zM80 0h113v512q30 34 87.5 100.5t86.5 100.5l610 -713h145 q-418 487 -682 799l529 616h-150q-105 -122 -313 -365.5t-313 -365.5v731h-113v-1415z" />
<glyph unicode="L" horiz-adv-x="1015" d="M41 -20v1456h152v-103h102v-1200h575v-102h103v-154h-830v103h-102zM61 0h789v113h-678v1302h-111v-1415z" />
<glyph unicode="M" horiz-adv-x="1413" d="M80 -20v1456h139l62 -103h41l358 -602l410 705h141v-103h102v-1456h-155v103h-103v854q-74 -125 -268 -465h-94l-62 102h-41l-274 463v-1057h-154v103h-102zM100 0h113v1184l410 -692h69q126 221 404 692v-1184h114v1415h-108l-443 -760l-452 760h-107v-1415z" />
<glyph unicode="N" horiz-adv-x="1216" d="M80 -20v1456h137l59 -103h43l562 -950v1053h153v-103h103v-1456h-140l-61 103h-41l-561 954v-1057h-152v103h-102zM100 0h111v1186l696 -1186h107v1415h-113v-1179l-696 1179h-105v-1415z" />
<glyph unicode="O" horiz-adv-x="1538" d="M53 707q0 202 89 371.5t242 267.5t335 98q148 0 276 -63.5t219 -176.5q127 -101 199 -258t72 -342q0 -162 -52.5 -300.5t-150.5 -240.5q-188 -204 -461 -204q-143 0 -271 64.5t-222 178.5q-127 102 -201 260t-74 345zM74 707q0 -151 52.5 -286.5t140 -231t206 -151.5 t246.5 -56q264 0 446 198q95 99 146 234t51 293q0 197 -83 361t-231 259.5t-329 95.5q-175 0 -323.5 -95.5t-235 -260.5t-86.5 -360zM188 707q0 165 70.5 303.5t193 218.5t267.5 80q106 0 200.5 -41.5t163.5 -118.5q81 -83 125.5 -197.5t44.5 -244.5q0 -168 -69.5 -308 t-192 -221.5t-272.5 -81.5q-146 0 -268 81.5t-192.5 222t-70.5 307.5zM311 604q0 -228 127 -393q127 -94 281 -94q144 0 262 78.5t185 214t67 297.5q0 220 -125 380q-129 99 -287 99q-139 0 -256.5 -77.5t-185.5 -211.5t-68 -293z" />
<glyph unicode="P" horiz-adv-x="1052" d="M45 -20v1456h432q115 0 211.5 -49.5t153.5 -133.5q77 -54 120.5 -130.5t43.5 -164.5q0 -163 -123.5 -275t-302.5 -112h-281v-694h-152v103h-102zM66 0h110v694h301q169 0 287.5 107t118.5 260q0 146 -118.5 250t-287.5 104h-411v-1415zM176 807v500h297q122 0 209.5 -73 t87.5 -173q0 -108 -86 -181t-207 -73h-301zM299 827h178q113 0 193 67.5t80 166.5q0 37 -21 84q-70 39 -154 39h-276v-357z" />
<glyph unicode="Q" horiz-adv-x="1427" d="M43 754q0 144 50 273t134 220t197 144t235 53q134 0 255.5 -62.5t209.5 -171.5q119 -96 188.5 -242.5t69.5 -316.5q0 -144 -52 -273t-144 -224q-97 -108 -236 -156l45 -39l-6 -6l109 -96q-87 -115 -168 -115q-46 0 -86.5 31t-69.5 84q-67 27 -112 118q-214 48 -361 228 q-119 97 -188.5 240.5t-69.5 310.5zM63 754q0 -134 47.5 -255.5t127.5 -209t187 -142t222 -61.5q15 -93 66 -157t114 -64q68 0 140 92l-80 70q-25 -56 -60 -56q-25 0 -45.5 34.5t-29.5 88.5q189 36 317 176q88 92 139.5 218.5t51.5 265.5q0 138 -48.5 263t-130 213.5 t-192 140.5t-230.5 52q-118 0 -227.5 -51.5t-190.5 -139.5t-129.5 -213t-48.5 -265zM168 754q0 155 66.5 286t179.5 207t245 76q188 0 332 -154q76 -79 118 -186.5t42 -228.5q0 -204 -116 -361.5t-287 -197.5q-14 66 -70 108q-55 41 -128 41h-3v-100q32 1 56 -15.5t34 -42.5 q-130 7 -238 85t-169.5 206t-61.5 277zM291 651q0 -207 115 -360q62 -45 120 -64v138h4q77 0 137 -36q62 -37 89 -96q10 -3 20 -10q151 52 252.5 199.5t101.5 331.5q0 209 -118 358q-115 88 -250 88q-127 0 -235.5 -73.5t-172 -200t-63.5 -275.5zM317 1130q60 63 105 97 q-57 -39 -105 -97zM932 -111q17 3 33 33z" />
<glyph unicode="R" horiz-adv-x="1142" d="M57 -20v1456h432q116 0 213.5 -50t155.5 -135q75 -52 118.5 -129t43.5 -166q0 -160 -124.5 -271.5t-303.5 -111.5h-123q31 -36 124.5 -143t145.5 -166q49 -55 170.5 -191t173.5 -196h-200l-92 103h-11l-467 524v-627h-153v103h-103zM78 0h112v676l598 -676h146 q-98 112 -308.5 349.5t-306.5 346.5h170q169 0 288.5 106t119.5 257q0 149 -119.5 252.5t-288.5 103.5h-411v-1415zM190 809v500h295q123 0 211 -74t88 -176q0 -105 -87 -177.5t-208 -72.5h-299zM313 829h176q113 0 194 67t81 163q0 42 -23 86q-71 41 -153 41h-275v-357z " />
<glyph unicode="S" horiz-adv-x="1081" d="M49 190l121 97q39 -62 98 -105l4 2q1 -1 1.5 -3t1 -3t1.5 -2q89 -61 201 -61q117 0 203 69.5t86 169.5q0 53 -33 111q-66 43 -143 55q-112 15 -206.5 69.5t-154.5 135.5q-80 60 -126 141.5t-46 171.5q0 172 134 288t327 116q238 0 410 -191l-6 -6q50 -34 108 -96 l-125 -100q-114 143 -284 143q-120 0 -212 -73.5t-92 -174.5q0 -62 33 -123q68 -41 154 -47q109 -15 200.5 -67.5t147.5 -131.5q81 -60 127.5 -142.5t46.5 -174.5q0 -167 -131.5 -283t-319.5 -116q-121 0 -227.5 55t-179.5 149q-67 50 -119 127zM76 186q63 -93 167.5 -148.5 t229.5 -55.5q179 0 304.5 110t125.5 268q0 146 -114.5 258.5t-286.5 135.5q-131 10 -219 96t-88 197t97.5 189.5t225.5 78.5q88 0 162.5 -35.5t126.5 -99.5l92 73q-152 168 -381 168q-184 0 -312 -110t-128 -273q0 -149 118 -262t293 -133q125 -19 211 -101.5t86 -187.5 q0 -109 -92 -184.5t-217 -75.5q-99 0 -179.5 43.5t-131.5 120.5z" />
<glyph unicode="T" horiz-adv-x="1218" d="M29 1286v150h1058v-103h103v-149h-451v-1307h-153v103h-103v1204h-352v102h-102zM49 1307h455v-1307h112v1307h451v108h-1018v-108z" />
<glyph unicode="U" horiz-adv-x="1335" d="M72 358v1078h159v-103h103v-1073q7 -38 24 -67q113 -76 267 -76q143 0 255.5 74t127.5 171v1074h153v-103h103v-1075q-4 -107 -78 -199t-196.5 -146t-262.5 -54q-156 0 -286 61t-201 160q-159 117 -168 278zM92 360q11 -156 165 -267t368 -111q135 0 252.5 51t188.5 138 t75 189v1055h-113v-1055q-14 -106 -132 -185t-271 -79q-160 0 -280 79t-134 185v1055h-119v-1055z" />
<glyph unicode="V" horiz-adv-x="1376" d="M33 1436h157l37 -103h66l375 -1007q102 270 153 407q180 484 260 703h160l-39 -103h141l-538 -1456h-133l-39 103h-64zM61 1415l521 -1415h108l522 1415h-118q-83 -230 -243 -659t-214 -576l-459 1235h-117z" />
<glyph unicode="W" horiz-adv-x="1927" d="M43 1436h160l37 -103h65l375 -1009q18 53 51 139v-2q17 46 49 134t49 134q-43 116 -122 338v-2q-47 125 -136 371h158l37 -103h65l213 -575q17 -47 117 -309q23 -59 47 -127q16 43 42 116t48.5 135.5t44.5 118.5q17 46 120.5 325t154.5 419h162l-39 -103h141l-536 -1456 h-138l-39 103h-63l-127 337q-8 -24 -25.5 -72.5t-25.5 -72.5q-32 -87 -107 -295h-137l-39 103h-63zM72 1415l522 -1415h111q34 92 102 280.5t102 280.5l209 -561h113l520 1415h-121q-3 -8 -454 -1235q-47 129 -131 351.5t-121 322.5l-207 561h-117q41 -111 125 -341.5 t125 -342.5q-33 -91 -100.5 -276.5t-100.5 -276.5l-459 1237h-118z" />
<glyph unicode="X" horiz-adv-x="1282" d="M63 -20l435 743l-416 713h176l61 -103h41l258 -432q31 54 136 229q119 197 182 306h178l-59 -103h162l-424 -725q36 -62 105 -183t93 -163q75 -129 226 -385h-179l-61 103h-41l-268 452q-5 -10 -187 -319q-123 -208 -139 -236h-176l59 103h-162zM100 0h127q35 59 163 276 t196 334l362 -610h129q-66 114 -205.5 355t-205.5 356l411 704h-129q-57 -98 -174.5 -295t-175.5 -295l-352 590h-127l403 -692z" />
<glyph unicode="Y" horiz-adv-x="1515" d="M27 1436h200l74 -103h29l387 -532q19 25 56 75t56 76q93 128 359 484h198l-77 -103h180l-602 -805v-651h-156v103h-102v651q-18 24 -77.5 102.5t-90.5 120.5q-69 92 -221.5 297t-212.5 285zM68 1415q106 -144 327.5 -439.5t253.5 -338.5v-637h115v637l582 778h-148 q-97 -130 -284 -384t-209 -283l-488 667h-149z" />
<glyph unicode="Z" horiz-adv-x="1304" d="M59 -20l750 1200h-561v102h-103v154h998l-64 -103h166l-743 -1200h545v-102h102v-154h-987l63 103h-166zM94 0h932v113h-727l809 1302h-942v-112h741z" />
<glyph unicode="[" horiz-adv-x="509" d="M45 645v152h76q22 0 37.5 16t15.5 39v465q9 48 63 78t125 30v-122q48 20 103 20v-156q-7 0 -16.5 -1.5t-12.5 -2t-6 1.5v-442q-29 -84 -86 -94v-21q67 -20 86 -84v-495h35v-152q-61 0 -121.5 34t-67.5 85q-44 16 -73 46t-29 67v434h-27v94q-11 8 -26 8h-76zM66 666h55 q31 0 52.5 -22t21.5 -54v-481q0 -46 48.5 -77.5t98.5 -31.5v111q-35 0 -35 -2v512q-9 29 -32 48.5t-54 24.5v56q61 5 86 75v471q2 -6 35 -6v115q-55 0 -97.5 -25.5t-49.5 -66.5v-461q0 -31 -21.5 -53.5t-52.5 -22.5h-55v-110zM242 711q2 -1 7 -3t7 -3q17 17 20 40 q-13 -11 -34 -14v-20z" />
<glyph unicode="\" horiz-adv-x="813" d="M10 1425h160l37 -102h65l531 -1446h-162l-39 103h-63zM39 1405l512 -1405h121l-514 1405h-119z" />
<glyph unicode="]" horiz-adv-x="503" d="M43 -20v151q9 0 18.5 -0.5t13.5 -0.5t7 1v492q16 78 80 90q0 4 1 10.5t1 9.5q-31 11 -53.5 35t-28.5 53v449h-39v155q76 0 127.5 -31t60.5 -77l2 -8q41 -13 68 -38.5t33 -56.5l4 -16v-401h20v-95q12 -8 27 -8h76v-151h-76q-21 0 -34 -16t-13 -40v-481q0 -54 -62 -91.5 t-131 -37.5v125q-52 -22 -102 -22zM63 0q54 0 103 32t49 77v481q0 33 19 54.5t49 21.5h55v110h-55q-30 0 -49 22t-19 54v448l-4 13q-8 40 -48 66t-100 26v-115h39v-465q6 -26 29.5 -47.5t54.5 -27.5q-4 -40 -4 -56q-30 -1 -51 -21.5t-29 -54.5v-503q-12 -4 -39 -4v-111z M236 600q16 8 28 10q0 4 1 11t1 10q-2 1 -5 2t-5 2q-17 -14 -20 -35z" />
<glyph unicode="^" horiz-adv-x="1239" d="M33 907l538 533l103 -103l532 -534l-110 -109l-103 103l-321 325q-34 -33 -201 -200q-37 -36 -229 -228l-101 105l-2 -2zM61 907l78 -82q70 70 216 214.5t216 213.5l422 -428l82 80l-504 506z" />
<glyph unicode="_" horiz-adv-x="1155" d="M72 -20v151h907v-102h102v-152h-907v103h-102zM92 0h866v111h-866v-111z" />
<glyph unicode="`" horiz-adv-x="565" d="M16 1393h248l76 -103h27l180 -241h-123l-305 241h26zM76 1372l252 -201h75l-149 201h-178z" />
<glyph unicode="a" horiz-adv-x="976" d="M51 295q0 145 108.5 241.5t260.5 96.5h192v8q0 85 -30 150q-14 6 -45 10q-120 0 -256 -39l-31 121q-5 -1 -31 -8t-41 -11l-37 148q149 45 295 45q77 -1 144 -42t112 -110q76 -48 123 -134t53 -191v-21q-4 -172 -4 -336q0 -116 15.5 -215t44.5 -131h-209v41 q-92 -61 -207 -61q-94 0 -174.5 44t-128.5 117q-70 45 -112 118.5t-42 158.5zM72 295q0 -130 98.5 -222.5t235.5 -92.5q129 0 227 81v-61h141q-33 36 -33 326l4 336v20q-8 146 -97 248.5t-212 105.5q-139 0 -270 -39l27 -106q112 33 241 33q88 -3 143.5 -84t55.5 -199v-29 h-213q-143 0 -245.5 -90.5t-102.5 -226.5zM184 295q0 91 68.5 149t167.5 58h213v-207q0 -84 -66.5 -142.5t-160.5 -58.5q-93 0 -157.5 58.5t-64.5 142.5zM307 193q0 -32 10 -62q43 -16 89 -16q86 0 146 52.5t60 127.5v84h-90q-91 0 -153 -52t-62 -134z" />
<glyph unicode="b" horiz-adv-x="1171" d="M45 -20q19 27 32 82.5t16 97.5l3 41v1224h154v-102h102v-283q80 17 158 17q118 0 221.5 -54.5t173.5 -148.5q101 -76 160 -194.5t59 -251.5q0 -147 -68.5 -273t-187 -200.5t-258.5 -77.5q-172 9 -264 53v-33h-199q23 36 37 103h-139zM84 0h139v47q101 -58 287 -67 q134 3 247 74.5t178.5 192.5t65.5 263q0 141 -65.5 262t-179 192.5t-246.5 71.5q-170 0 -281 -63v432h-112v-1204q-8 -166 -33 -201zM223 201v626q14 39 97.5 68t189.5 29q101 0 189.5 -57t140 -152.5t51.5 -204.5q0 -170 -112.5 -292.5t-268.5 -125.5q-119 3 -203 34.5 t-84 74.5zM346 133q77 -17 164 -20q148 3 254 119t106 278q0 123 -73 233q-91 58 -185 58q-98 0 -175 -22.5t-91 -53.5v-592z" />
<glyph unicode="c" horiz-adv-x="1103" d="M49 508q0 149 69.5 275.5t187 200t253.5 73.5q107 0 209.5 -51.5t181.5 -139.5l-6 -6q62 -46 109 -96l-111 -113q-59 69 -132 109.5t-148 40.5q-148 0 -253.5 -115.5t-105.5 -279.5q0 -131 70 -234q82 -57 186 -57q73 0 144.5 37.5t130.5 105.5l112 -108l-2 -3l105 -100 q-181 -188 -387 -188q-117 0 -220.5 54t-175.5 148q-100 76 -158.5 194.5t-58.5 252.5zM70 508q0 -142 66.5 -263.5t179 -192t243.5 -70.5q198 0 359 168l-82 77q-56 -63 -128 -98t-149 -35q-157 0 -268 122t-111 292q0 173 111 294.5t268 121.5q80 0 153.5 -37.5 t129.5 -102.5l80 82q-72 78 -166.5 124t-196.5 46q-131 0 -243.5 -70.5t-179 -192.5t-66.5 -265z" />
<glyph unicode="d" horiz-adv-x="1185" d="M41 516q0 147 69 271.5t187 196.5t256 73q165 0 260 -51v419h152v-102h102v-1221q0 -18 2 -46t21.5 -87t54.5 -86h-230v33q-104 -43 -258 -53q-118 3 -222.5 58t-176.5 149q-100 77 -158.5 194t-58.5 252zM61 516q0 -143 66.5 -264t179.5 -192t246 -74q171 10 281 65v-45 h149q-17 14 -27 63.5t-11 92.5l-1 43v1200h-110v-434q-105 65 -281 65q-133 -1 -246 -70.5t-179.5 -189t-66.5 -260.5zM170 516q0 165 112 284.5t271 123.5q111 0 190.5 -28t90.5 -67v-624q0 -40 -80.5 -71.5t-196.5 -37.5q-162 6 -274.5 128.5t-112.5 291.5zM293 414 q0 -133 69 -234q89 -60 193 -63q107 6 182.5 31.5t75.5 56.5v575q-75 21 -158 21q-150 -4 -256 -117.5t-106 -269.5z" />
<glyph unicode="e" horiz-adv-x="1054" d="M47 471v39q0 149 58.5 275.5t158 200t215.5 73.5q93 0 174.5 -45.5t141.5 -126.5q98 -68 155.5 -192.5t57.5 -276.5v-82h-701q12 -105 64 -186q58 -37 131 -37q101 0 274 84l55 -125q28 10 48 22l59 -135q-135 -73 -279 -98q-16 -2 -55 -2q-98 0 -187 48.5t-153 133.5 q-93 69 -151.5 182.5t-65.5 247.5zM68 473q12 -206 138 -348.5t296 -142.5q37 0 53 2q139 25 254 88l-43 98q-156 -78 -264 -78q-127 1 -218 105.5t-102 261.5h703v61q0 144 -53.5 263t-146.5 187t-206 68q-111 0 -205.5 -70.5t-150 -192.5t-55.5 -265v-37zM184 567 q21 151 104.5 254t190.5 103q115 0 199 -101.5t98 -255.5h-592zM340 588h412q-15 107 -64 182q-51 31 -106 31q-75 0 -140.5 -59t-101.5 -154z" />
<glyph unicode="f" horiz-adv-x="768" d="M27 868v154h147l-2 14v27q8 151 103.5 261t222.5 110q51 0 141 -11l-27 -92q39 0 129 -10l-45 -154q-57 13 -96 13q-56 -3 -100.5 -46.5t-63.5 -111.5h150v-102h102v-154h-262v-889h-147v103h-103v786h-47v102h-102zM47 889h150v-889h106v889h262v112h-262v39 q0 107 56.5 183.5t138.5 79.5q43 0 82 -9l32 113q-49 6 -114 6q-119 0 -208 -103.5t-97 -246.5v-25q2 -25 2 -37h-148v-112z" />
<glyph unicode="g" horiz-adv-x="1271" d="M43 -66q0 88 53.5 166t141.5 125q-9 28 -9 78q0 44 25 100q-131 109 -131 275q0 156 125.5 267.5t304.5 111.5q74 0 160 -23h413l-98 -102h201l-146 -152h-61q65 -95 65 -205q0 -137 -96.5 -238t-245.5 -128q68 -43 115 -113q72 -49 113 -116.5t41 -147.5 q0 -146 -127 -250t-309 -104q-120 0 -221.5 50.5t-157.5 135.5q-72 51 -114 121.5t-42 148.5zM63 -66q0 -136 122 -234.5t290 -98.5q173 0 294.5 98t121.5 235t-121.5 232.5t-294.5 95.5q-35 0 -49 -4h-10q-3 0 -10.5 -1t-10.5 -1q-57 0 -57 51q0 39 53 39q22 0 64 -10 q54 -12 98 -12q171 0 291.5 102.5t120.5 251.5q0 123 -88 225h96l106 111h-372q-83 22 -154 22q-170 0 -290 -105t-120 -253q0 -167 140 -270q-33 -41 -33 -105q0 -53 14 -88q-89 -42 -145 -118.5t-56 -162.5zM172 -66q0 90 91 158t212 68q129 0 219 -67.5t90 -158.5 q0 -92 -90 -158.5t-219 -66.5q-122 0 -212.5 67t-90.5 158zM254 678q0 105 87.5 177.5t211.5 72.5q129 0 217 -72t88 -178q0 -102 -88.5 -175t-216.5 -73q-123 0 -211 73.5t-88 174.5zM295 -168q0 -31 12 -61q77 -41 168 -41q121 0 205 60t84 144q0 27 -14 62 q-77 41 -172 41q-114 0 -198.5 -61.5t-84.5 -143.5zM377 575q0 -47 20 -86q65 -38 156 -38q119 0 202 66.5t83 160.5q0 39 -21 86q-77 41 -162 41q-116 0 -197 -67t-81 -163z" />
<glyph unicode="h" horiz-adv-x="976" d="M51 -20v1450h152v-103h102v-295q69 27 141 27q90 0 167.5 -43.5t129.5 -118.5q78 -53 125 -142.5t50 -195.5l6 -676h-152v103h-102v676q-3 59 -33 118q-55 25 -100 25q-76 0 -142.5 -66.5t-89.5 -154.5v-707h-151v103h-103zM72 0h110v690q22 97 94.5 167.5t157.5 70.5 q103 0 177.5 -77t78.5 -189v-656h111l-6 656q-3 158 -103.5 267t-245.5 109q-158 0 -264 -125v496h-110v-1409z" />
<glyph unicode="i" horiz-adv-x="397" d="M55 1309q0 36 26.5 62t65.5 26q36 0 64.5 -26.5t28.5 -61.5q0 -11 -2 -15h12q36 0 64 -26.5t28 -61.5q0 -34 -28.5 -61t-63.5 -27q-39 0 -65.5 26.5t-26.5 61.5v15h-11q-39 0 -65.5 26.5t-26.5 61.5zM72 -20v1064h149v-102h103v-1065h-150v103h-102zM76 1309 q0 -27 20.5 -47.5t50.5 -20.5q28 0 50 21t22 47q0 27 -22 47t-50 20q-30 0 -50.5 -19.5t-20.5 -47.5zM92 0h109v1024h-109v-1024z" />
<glyph unicode="j" horiz-adv-x="638" d="M35 -408l14 148q58 0 86 -4q6 -2 8 -2l7 6q81 0 136.5 67.5t55.5 163.5v1076h152v-103h102v-1096q-9 -151 -101.5 -256.5t-224.5 -109.5q-21 0 -75 4q-16 4 -58 4l8 94q-32 4 -53 4q-16 4 -57 4zM57 -387q21 0 45 -4q40 -4 66 -4q123 4 209.5 104.5t95.5 243.5v1073h-111 v-1055q0 -104 -59 -178t-145 -74q-2 -2 -2 -6q-17 0 -27 2q-28 4 -61 4zM326 1298q0 40 24.5 64t65.5 24q33 0 59.5 -25t26.5 -63q0 -10 -2 -16q6 2 18 2q33 0 59.5 -25t26.5 -63q0 -34 -27 -61t-59 -27q-40 0 -65 26t-25 62v14h-12q-40 0 -65 26t-25 62zM346 1298 q0 -28 19 -47.5t51 -19.5q24 0 44.5 20t20.5 47q0 29 -20 48.5t-45 19.5q-32 0 -51 -18.5t-19 -49.5z" />
<glyph unicode="k" horiz-adv-x="1036" d="M35 -20q21 21 40 57.5t19 66.5v1321h152v-102h102v-485l123 104q28 23 104 90h240l-123 -102h226l-355 -295q18 -32 38.5 -67.5t46 -78.5t40.5 -69q250 -439 311 -543h-180l-59 103h-43l-301 528q-54 -47 -68 -57v-574h-211q17 17 33.5 46.5t22.5 56.5h-158zM84 0h141 v563q41 33 123 107l381 -670h131q-130 225 -426 743l324 269h-172q-27 -22 -158.5 -133t-202.5 -170v696h-110v-1301q0 -34 -10 -63.5t-21 -40.5z" />
<glyph unicode="l" horiz-adv-x="405" d="M76 -20v1445h151v-102h103v-1446h-152v103h-102zM96 0h111v1405h-111v-1405z" />
<glyph unicode="m" horiz-adv-x="1675" d="M66 1044h210v-83q101 94 240 94q91 0 168.5 -44t130.5 -120q8 -4 12 -8q51 88 134 132t172 44t165.5 -43.5t128.5 -118.5q78 -54 126 -143t51 -195l4 -678h-154v103h-102v678q-3 59 -33 118q-48 23 -92 23q-80 0 -146.5 -66t-87.5 -153v-703h-151v103h-103v673 q-3 65 -30 117q-55 25 -101 25q-75 0 -140.5 -66t-88.5 -153v-703h-152v103h-102v933q0 27 -19.5 69t-39.5 62zM115 1024q10 -10 20 -46t10 -65v-913h111v686q21 97 92 166.5t158 69.5q104 0 177.5 -76.5t76.5 -188.5v-653h110v686q19 97 91 166.5t163 69.5q101 0 173 -77.5 t75 -186.5v-658h113l-4 658q-5 159 -104.5 267.5t-243.5 108.5q-92 0 -178 -51t-130 -151q-47 88 -129.5 143t-179.5 55q-154 0 -260 -125v115h-141z" />
<glyph unicode="n" horiz-adv-x="1054" d="M61 1036h211v-69q91 94 244 94q89 0 166 -43.5t129 -118.5q79 -53 127 -143t51 -197l4 -682h-153v103h-103v682q-3 66 -30 118q-48 25 -99 25q-79 0 -144.5 -65.5t-88.5 -155.5v-707h-152v103h-102v938q0 26 -19.5 61.5t-40.5 56.5zM111 1016q10 -10 20 -39.5t10 -58.5 v-918h111v690q22 98 94 168t160 70q103 0 177 -77t75 -189v-662h112l-4 662q-5 159 -105.5 268.5t-244.5 109.5q-159 0 -264 -127v103h-141z" />
<glyph unicode="o" horiz-adv-x="1200" d="M49 506q0 150 68 277t183.5 200.5t250.5 73.5q113 0 212.5 -53t170.5 -146q100 -75 158.5 -195t58.5 -260q0 -147 -66.5 -273t-181 -199.5t-250.5 -73.5q-114 0 -214.5 53t-170.5 145q-101 75 -160 194t-59 257zM70 506q0 -106 38.5 -203.5t103 -168t153.5 -112.5 t186 -42t185.5 42t152.5 112.5t101.5 167.5t37.5 204q0 144 -63.5 266t-173.5 193t-240 71t-241 -71t-175.5 -193t-64.5 -266zM182 506q0 173 107.5 295.5t261.5 122.5q151 0 257.5 -122.5t106.5 -295.5q0 -112 -48.5 -207t-132.5 -151t-183 -56q-153 0 -261 121.5 t-108 292.5zM305 403q0 -130 70 -237q77 -53 176 -53q141 0 242.5 115.5t101.5 277.5q0 133 -72 242q-77 53 -170 53q-144 0 -246 -116.5t-102 -281.5z" />
<glyph unicode="p" horiz-adv-x="1177" d="M41 1042h213v-34q133 55 264 55q119 -3 223.5 -58t176.5 -149q101 -74 159 -191t58 -251q0 -113 -40.5 -215.5t-109 -176.5t-163.5 -117.5t-201 -43.5q-155 0 -263 51v-424h-151v102h-103v1237q0 17 -2.5 44t-18.5 85t-42 86zM88 1022q15 -16 24 -64.5t11 -89.5l2 -41 v-1216h111v438q111 -65 282 -65q205 0 349.5 155.5t144.5 376.5q0 141 -66 261t-179.5 191t-248.5 74q-151 0 -285 -67v47h-145zM233 190v637q0 41 83.5 71t201.5 30q158 0 270.5 -121t112.5 -291q0 -172 -112 -294.5t-271 -127.5q-111 5 -193 31.5t-92 64.5zM356 137 q71 -19 162 -22q150 5 256.5 121.5t106.5 279.5q0 126 -72 232q-85 57 -188 57q-108 0 -186.5 -24t-78.5 -56v-588z" />
<glyph unicode="q" horiz-adv-x="1097" d="M47 528q0 142 67.5 264t182 193.5t246.5 71.5q157 0 256 -45v20h149v-102h103v-1442h-150v102h-102v324q-75 -16 -154 -16q-114 3 -215.5 56.5t-171.5 145.5q-97 74 -154 186.5t-57 241.5zM68 528q0 -135 64.5 -251.5t174 -185t236.5 -71.5q170 0 276 66v-475h109v1401 h-109v-35q-103 59 -276 59q-95 0 -183 -40.5t-152 -108.5t-102 -162t-38 -197zM176 528q0 165 108 282.5t259 117.5q115 0 195.5 -30t80.5 -71v-604q-14 -38 -93 -67t-183 -29q-152 5 -259.5 121t-107.5 280zM299 426q0 -123 66 -221q83 -55 178 -58q97 0 169.5 23.5 t86.5 56.5v561q-73 17 -154 17q-143 0 -244.5 -111t-101.5 -268z" />
<glyph unicode="r" horiz-adv-x="739" d="M31 1047h243v-84q102 94 242 94q40 0 90 -19l-20 -86q10 2 32 2q44 0 91 -18l-37 -150q-50 15 -64 15q-79 0 -144.5 -65.5t-86.5 -155.5v-703h-152v103h-102v933q0 30 -25 68t-67 66zM98 1026q21 -13 33 -46.5t12 -66.5v-913h111v686q21 98 92.5 168t159.5 70q17 0 47 -9 l29 111q-27 10 -66 10q-160 0 -262 -127v117h-156z" />
<glyph unicode="s" horiz-adv-x="935" d="M47 133l115 88q47 -47 113.5 -76.5t130.5 -29.5q89 0 150.5 41t61.5 104q0 13 -8 37q-59 32 -106 45q-93 15 -172.5 64.5t-124.5 117.5q-69 48 -109.5 113t-40.5 131q0 126 107.5 206.5t259.5 80.5q97 0 195 -45t167 -117l-16 -12q65 -36 119 -90l-123 -91 q-49 47 -114.5 73t-133.5 26q-87 0 -146 -38t-59 -97q0 -21 6 -39q52 -27 109 -35q93 -15 170.5 -62.5t122.5 -115.5q70 -48 110.5 -115.5t40.5 -138.5q0 -130 -104.5 -213.5t-253.5 -83.5q-100 0 -200 45t-164 125l8 6q-64 37 -111 96zM76 129q56 -68 148 -106.5t188 -38.5 q141 0 239.5 77.5t98.5 198.5q0 111 -92.5 200t-231.5 109q-102 15 -169 72t-67 125t65 112t161 44q71 0 138 -24.5t112 -68.5l90 66q-60 63 -149 101t-183 38q-143 0 -244.5 -74.5t-101.5 -191.5q0 -103 96 -192t232 -111q94 -21 163.5 -80.5t69.5 -124.5q0 -72 -67.5 -119 t-165.5 -47q-68 0 -135 28.5t-111 72.5z" />
<glyph unicode="t" horiz-adv-x="712" d="M20 877v153h148v395h154v-102h102v-293h166v-102h102v-154h-268v-897h-150v103h-102v794h-49v103h-103zM41 897h152v-897h108v897h268v113h-268v395h-113v-395h-147v-113z" />
<glyph unicode="u" horiz-adv-x="1046" d="M59 358v682h152v-102h102v-668l2 -10q3 -60 33 -119q47 -24 98 -24q78 0 143 66.5t85 154.5v706h151v-102h103v-934q0 -29 19.5 -70t39.5 -61h-211v76q-105 -94 -241 -94q-89 0 -165 42.5t-128 116.5q-78 54 -125.5 141.5t-50.5 192.5zM80 367q3 -3 6 -9 q5 -157 104.5 -266.5t241.5 -109.5q152 0 262 127v-109h142q-10 10 -20.5 44.5t-10.5 66.5v913h-111v-690q-18 -97 -88 -167.5t-160 -70.5q-100 0 -174 79t-79 187l-3 11v647h-110v-653z" />
<glyph unicode="v" horiz-adv-x="1161" d="M31 1044h162l40 -102h62l262 -645q87 215 209 512q59 150 94 235h168l-43 -102h145l-434 -1065h-135l-41 103h-61zM61 1024l412 -1024h107l417 1024h-123q-272 -669 -346 -856l-350 856h-117z" />
<glyph unicode="w" horiz-adv-x="1593" d="M41 1044h164l41 -102h61l260 -641q3 6 8.5 17.5t8.5 17.5q13 33 37 94t38 94q-16 39 -53 134t-57 143q-33 76 -96 243h170l41 -102h61l256 -643q154 372 301 745h168l-43 -102h145l-436 -1065l-135 6l-41 101l-61 2l-64 155q-10 -24 -29.5 -72t-29.5 -71 q-35 -80 -51 -121l-132 6l-41 101l-61 2zM72 1024l413 -1018l105 -6q16 38 72.5 170t85.5 203l145 -367l108 -6l418 1024h-123q-198 -492 -346 -854l-342 854h-127q28 -72 97.5 -242.5t103.5 -257.5q-25 -65 -73.5 -183t-69.5 -171l-349 854h-118z" />
<glyph unicode="x" horiz-adv-x="1079" d="M57 -20l336 552l-325 512h186l63 -102h39l152 -246q22 35 69 105.5t70 105.5q16 24 46.5 72t41.5 65h183l-66 -102h168l-332 -530q187 -300 197 -316q23 -36 73 -118t62 -101h-180l-66 103h-37l-170 266q-6 -11 -19.5 -32.5t-15.5 -25.5h3q-31 -50 -96 -155.5t-95 -155.5 h-184l61 103h-164zM94 0h135q58 96 256 416l263 -416h135q-40 64 -152 243.5t-168 270.5l320 510h-138q-219 -343 -253 -397l-248 397h-140l314 -494z" />
<glyph unicode="y" horiz-adv-x="1132" d="M41 1057h164l41 -103h61l240 -604q138 354 168 428q76 196 110 279h164l-43 -103h146l-400 -985q-6 -16 -17.5 -47t-17.5 -47q-4 -12 -24.5 -61.5t-28.5 -75.5q-44 -119 -143 -189.5t-205 -70.5q-49 0 -111 16l11 86h-2q-45 0 -111 17l23 176q41 -41 92 -41 q62 0 119.5 43.5t87.5 120.5q6 16 19 47.5t19 48.5q24 63 35 88q-9 23 -28.5 72t-28.5 73q-255 628 -340 832zM66 -387q44 -12 88 -12q101 0 194.5 66t134.5 179q16 45 48.5 129.5t39.5 104.5l-2 -2l389 958h-118q-103 -260 -324 -815l-326 815h-118q71 -172 389 -956 q-14 -33 -39 -96.5t-39 -96.5q-31 -83 -93.5 -129.5t-131.5 -46.5q-59 0 -76 17z" />
<glyph unicode="z" horiz-adv-x="1040" d="M68 -20v133l507 675h-399v103h-102v153h794v-102h103v-133l-510 -676h407v-102h103v-154h-801v103h-102zM88 0h760v113h-606l606 805v106h-754v-113h600l-606 -805v-106z" />
<glyph unicode="{" horiz-adv-x="509" d="M45 645v152h76q22 0 37.5 16t15.5 39v465q9 48 63 78t125 30v-122q48 20 103 20v-156q-7 0 -16.5 -1.5t-12.5 -2t-6 1.5v-442q-29 -84 -86 -94v-21q67 -20 86 -84v-495h35v-152q-61 0 -121.5 34t-67.5 85q-44 16 -73 46t-29 67v434h-27v94q-11 8 -26 8h-76zM66 666h55 q31 0 52.5 -22t21.5 -54v-481q0 -46 48.5 -77.5t98.5 -31.5v111q-35 0 -35 -2v512q-9 29 -32 48.5t-54 24.5v56q61 5 86 75v471q2 -6 35 -6v115q-55 0 -97.5 -25.5t-49.5 -66.5v-461q0 -31 -21.5 -53.5t-52.5 -22.5h-55v-110zM242 711q2 -1 7 -3t7 -3q17 17 20 40 q-13 -11 -34 -14v-20z" />
<glyph unicode="|" horiz-adv-x="385" d="M80 -18v1495h121v-103h102v-1495h-121v103h-102zM100 2h80v1454h-80v-1454z" />
<glyph unicode="}" horiz-adv-x="503" d="M43 -20v151q9 0 18.5 -0.5t13.5 -0.5t7 1v492q16 78 80 90q0 4 1 10.5t1 9.5q-31 11 -53.5 35t-28.5 53v449h-39v155q76 0 127.5 -31t60.5 -77l2 -8q41 -13 68 -38.5t33 -56.5l4 -16v-401h20v-95q12 -8 27 -8h76v-151h-76q-21 0 -34 -16t-13 -40v-481q0 -54 -62 -91.5 t-131 -37.5v125q-52 -22 -102 -22zM63 0q54 0 103 32t49 77v481q0 33 19 54.5t49 21.5h55v110h-55q-30 0 -49 22t-19 54v448l-4 13q-8 40 -48 66t-100 26v-115h39v-465q6 -26 29.5 -47.5t54.5 -27.5q-4 -40 -4 -56q-30 -1 -51 -21.5t-29 -54.5v-503q-12 -4 -39 -4v-111z M236 600q16 8 28 10q0 4 1 11t1 10q-2 1 -5 2t-5 2q-17 -14 -20 -35z" />
<glyph unicode="~" horiz-adv-x="854" d="M49 664q103 71 227 71q36 0 109 -22l-2 2q2 0 8 -1t8 -1q57 -17 76 -17q41 0 87.5 17t82.5 47l55 -129q-5 -3 -14 -9.5t-14 -9.5q35 13 76 45l55 -129q-106 -71 -219 -71q-89 0 -140 32q-40 9 -63 9q-86 0 -162 -64l-67 127q1 1 3 2t3 2q-24 -13 -41 -28zM76 657l47 -88 q61 52 156 52q34 0 75 -13l-2 2q53 -30 129 -30q109 0 195 59l-39 88q-28 -24 -73 -37.5t-89 -13.5q-27 0 -92 18q-65 21 -107 21q-117 0 -200 -58z" />
<glyph unicode="&#xa1;" horiz-adv-x="395" d="M66 1348v4q0 33 22.5 57.5t56.5 24.5q32 0 57 -25t25 -57q0 -9 -4 -25q16 4 25 4q32 0 57 -25t25 -57q0 -35 -24.5 -58.5t-57.5 -23.5q-17 0 -33 4v-53h102v-1241h-139v103h-102v1241h96q-4 16 -4 24v4q0 9 4 25q-8 -4 -27 -4q-38 0 -57.5 21.5t-21.5 56.5zM86 1350 q2 -27 16.5 -43.5t42.5 -16.5q25 0 43.5 18t18.5 44q0 25 -18.5 43t-43.5 18q-26 0 -42.5 -18t-16.5 -43v-2zM96 0h99v1200h-99v-1200z" />
<glyph unicode="&#xa2;" horiz-adv-x="1073" d="M35 508q0 205 123.5 359t308.5 182v139h162v-103h102v-69q103 -45 205 -150l-8 -8q56 -37 110 -94l-110 -113q-92 117 -197 140v-617q44 31 92 82l109 -106l-2 -3l104 -100q-151 -161 -303 -182v-137h-162v102h-102v72q-126 57 -211 168q-101 77 -161 193t-60 245z M55 508q0 -198 125.5 -347.5t306.5 -172.5v-138h121v136q153 19 295 164l-80 77q-105 -113 -215 -129v820q62 -9 119 -45t100 -89l80 82q-134 144 -299 164v137h-121v-137q-181 -23 -306.5 -173t-125.5 -349zM166 508q0 154 92 270.5t229 139.5v-820q-137 23 -229 140 t-92 270zM289 406q0 -129 69 -238q56 -34 109 -45v625q-82 -51 -130 -142.5t-48 -199.5z" />
<glyph unicode="&#xa3;" horiz-adv-x="1218" d="M27 580v151h239v694h152v-102h102v-592h262v-102h103v-152h-365v-346h570v-102h102v-152h-823v103h-103v497h-137v103h-102zM47 600h240v-600h782v111h-672v489h365v111h-365v694h-110v-694h-240v-111z" />
<glyph unicode="&#xa5;" horiz-adv-x="1513" d="M29 1425h200l74 -102h29l383 -528q342 464 467 630h198l-77 -102h180l-545 -729h135v-102h103v-156h-103v-8h103v-156h-291v-295h-156v103h-102v192h-189v102h-102v156h102v8h-102v156h291v31q-95 130 -379 508q-80 104 -219 292zM70 1405q54 -72 263.5 -352.5 t313.5 -421.5v-58h-291v-114h291v-49h-291v-115h291v-295h115v295h291v115h-291v49h291v114h-291v58l577 774h-147q-90 -121 -492 -664l-481 664h-149z" />
<glyph unicode="&#xa6;" horiz-adv-x="385" d="M80 -18v751h102v64h-102v680h121v-103h102v-680h-102v-63h102v-752h-121v103h-102zM100 2h80v711h-80v-711zM100 817h80v639h-80v-639z" />
<glyph unicode="&#xa7;" horiz-adv-x="845" d="M53 782q0 119 78 183v36q0 121 89 193t218 72q99 0 238 -62l-27 -57q59 -15 129 -45l-67 -144q-99 54 -174 54h-13q14 -5 41 -15.5t35 -13.5l-27 -57q35 -9 129 -45l-65 -142q-104 52 -178 52h-4q106 -55 172 -146q77 -58 121.5 -134t44.5 -155q0 -105 -78 -186v-33 q0 -125 -93 -201.5t-219 -76.5q-103 0 -237 67l27 51q-66 19 -130 52l68 129q102 -45 168 -45h12q-29 10 -67 30l24 54q-65 16 -127 49l66 135q107 -47 172 -47q25 0 37 2q-2 1 -5 3t-5 3q-108 54 -181 150q-79 59 -125.5 137t-46.5 153zM74 782q0 -88 66.5 -177.5 t170.5 -141.5q113 -56 150 -135q-43 -15 -82 -15q-69 0 -162 41l-49 -98q103 -53 207 -53q52 0 108 16q-7 -60 -59 -93.5t-125 -33.5q-69 0 -158 39l-49 -94q110 -55 209 -55q118 0 204.5 70.5t86.5 187.5q0 25 -2 39q80 77 80 180q0 93 -63.5 179.5t-168.5 137.5 q-102 52 -147 129q24 8 65 8q79 0 168 -45l49 105q-121 51 -213 51q-52 0 -98 -12q4 57 53.5 90t118.5 33q83 0 166 -45l49 104q-114 51 -211 51q-121 0 -203.5 -66t-82.5 -178q0 -31 2 -45q-80 -63 -80 -174zM186 774q0 30 17 68q62 -105 182 -156q75 -40 124.5 -102.5 t49.5 -120.5q0 -34 -14 -62v-2q-59 101 -183 158q-81 39 -128.5 98.5t-47.5 118.5zM309 672q0 -36 21 -74q23 -15 41 -23q104 -52 166 -129q2 4 2 17q0 33 -27 82q-6 3 -17.5 10t-17.5 10h2q-108 46 -168 127q-2 -6 -2 -20z" />
<glyph unicode="&#xa8;" horiz-adv-x="665" d="M55 1309q0 35 27.5 61.5t64.5 26.5q36 0 64.5 -26.5t28.5 -61.5q0 -11 -2 -17q2 0 6 1t6 1q36 0 64 -26.5t28 -61.5q0 -34 -28.5 -61t-63.5 -27q-36 0 -64 27t-28 61v15h-11q-36 0 -64 27t-28 61zM76 1309q0 -27 21 -47.5t50 -20.5q28 0 50 21t22 47q0 27 -22 47t-50 20 q-29 0 -50 -19.5t-21 -47.5zM322 1309q0 35 27.5 61.5t64.5 26.5t64.5 -26.5t27.5 -61.5q0 -11 -2 -17q2 0 6 1t6 1q37 0 64.5 -26.5t27.5 -61.5q0 -34 -28 -61t-64 -27t-64 27t-28 61v15h-10q-36 0 -64 27t-28 61zM342 1309q0 -27 21.5 -47.5t50.5 -20.5t50 20.5t21 47.5 q0 28 -21 47.5t-50 19.5t-50.5 -19.5t-21.5 -47.5z" />
<glyph unicode="&#xaa;" horiz-adv-x="571" d="M43 762q0 56 36.5 95t96.5 48l-4 29q6 0 8 2q-30 -5 -88 -23l-22 123q86 21 141 21q43 0 79.5 -29t53.5 -78q47 -12 79.5 -58t35.5 -110q-2 -55 -2 -112q0 -32 21.5 -80t49.5 -76l-161 2q-23 -10 -64 -10q-55 0 -96 30t-55 78q-50 15 -79.5 55.5t-29.5 92.5zM63 762 q0 -56 40 -94.5t98 -38.5q37 0 59 10v-2h117q-17 17 -30 58t-13 77l2 113q-3 67 -39 109t-86 42q-55 0 -117 -16l15 -80q55 18 102 18q18 0 32.5 -22t16.5 -49h-55q-61 0 -101.5 -36t-40.5 -89zM141 762q0 18 18 33.5t42 15.5h59v-49q0 -20 -18 -36.5t-41 -16.5 q-24 0 -42 16t-18 37zM162 762q0 -13 8 -21q26 32 63 50h-32q-14 0 -26.5 -10t-12.5 -19z" />
<glyph unicode="&#xab;" horiz-adv-x="1200" d="M39 571l579 490l95 -111l8 8l47 -57l188 160l95 -111l8 8l100 -116l-469 -393q12 -15 34.5 -40.5t35.5 -39.5q288 -341 317 -377l-112 -101l-95 111l-8 -8l-436 516l-74 -61q30 -37 90 -107t90 -106q37 -43 109.5 -128t97.5 -114l-112 -103l-95 111l-8 -8zM68 569 l458 -546l82 73q-62 75 -193.5 229.5t-193.5 229.5l467 391l-74 86zM406 569l458 -546l82 73q-50 61 -387 459l467 391l-74 86z" />
<glyph unicode="&#xac;" horiz-adv-x="1415" d="M43 668v151h1225v-102h102v-514h-151v102h-103v260h-971v103h-102zM63 688h1074v-362h110v473h-1184v-111z" />
<glyph unicode="&#xad;" d="M72 524v152h755v-103h103v-151h-756v102h-102zM92 545h715v110h-715v-110z" />
<glyph unicode="&#xb0;" horiz-adv-x="661" d="M49 1202q0 100 67.5 166t168.5 66q65 0 117.5 -33.5t80.5 -91.5q58 -27 92.5 -82.5t34.5 -126.5q0 -94 -65 -160t-158 -66q-72 0 -128.5 34.5t-84.5 92.5q-57 28 -91 82t-34 119zM70 1202q0 -85 62 -145t153 -60q84 0 143 60t59 145q0 90 -58.5 150.5t-143.5 60.5 q-92 0 -153.5 -60t-61.5 -151zM154 1202q0 51 40 92t91 41q43 0 80.5 -41.5t37.5 -91.5q0 -47 -37.5 -86t-80.5 -39q-51 0 -91 38.5t-40 86.5zM174 1202q38 78 119 113h-8q-43 0 -77 -35t-34 -78zM276 1098h9q36 0 67 32.5t31 71.5v10q-41 -3 -74 -37t-33 -75v-2zM375 995 h12q36 0 67 33t31 72v2q-38 -78 -110 -107z" />
<glyph unicode="&#xb1;" horiz-adv-x="946" d="M43 287v151h756v-102h102v-152h-756v103h-102zM45 895v154h301v301h152v-103h102v-198h201v-103h102v-153h-303v-301h-151v102h-103v199h-199v102h-102zM63 307h715v111h-715v-111zM66 915h301v-301h110v301h303v113h-303v301h-110v-301h-301v-113z" />
<glyph unicode="&#xb2;" horiz-adv-x="718" d="M57 1327q126 107 232 107q77 0 140 -37.5t97 -100.5q62 -36 99 -97.5t37 -133.5q0 -47 -21.5 -98.5t-50.5 -89.5l-123 -138h92v-102h103v-129h-486v102h-102v109l319 356q37 37 37 92q0 11 -4 27q-15 6 -35 6q-54 0 -133 -76l-98 101q56 50 108 75q-49 -13 -112 -73z M88 1325l68 -70q71 68 133 68t112 -47t50 -109q0 -63 -43 -106l-314 -350v-80h445v88h-312l246 274q27 34 46.5 82t19.5 92q0 102 -72.5 174t-177.5 72q-100 0 -201 -88zM274 739h13l209 234q29 29 36 80q-15 -31 -45 -74z" />
<glyph unicode="&#xb3;" horiz-adv-x="708" d="M51 719l74 74h43q26 -28 59.5 -46t63.5 -18q48 0 88.5 34t40.5 79q0 8 -2 12q-3 1 -8.5 2t-8.5 2h-137v103h-102v129h139q43 3 79.5 33.5t39.5 68.5q-4 0 -12.5 1t-12.5 1q-67 0 -145 -84l-92 100q55 58 104 82q-57 -16 -115 -80l-92 101q103 112 238 112 q79 0 143.5 -37.5t95.5 -99.5q57 -30 91 -81t34 -113q0 -120 -82 -179q76 -83 76 -176q0 -101 -75 -170t-183 -69q-129 0 -239 116l14 15q-65 30 -117 88zM80 719q89 -96 211 -96q99 0 168 63.5t69 155.5q0 51 -25 98.5t-65 81.5q97 54 97 174q0 87 -71 148t-171 61 q-125 0 -211 -92l65 -70q68 74 146 74q57 0 102 -37.5t45 -83.5t-42 -85t-95 -42h-121v-88h119q54 -6 96.5 -46.5t42.5 -92.5q0 -54 -46 -93.5t-103 -39.5q-34 0 -69.5 18t-61.5 45h-27zM406 627q44 5 78.5 35.5t37.5 70.5q-38 -71 -116 -106zM473 1018q0 -1 1 -2t1 -2 q20 14 35 37q-14 -16 -37 -33z" />
<glyph unicode="&#xb4;" horiz-adv-x="585" d="M29 1176l182 241h244l-129 -102h231l-301 -242h-125l160 213l-137 -110h-125zM70 1196h77l250 201h-176z" />
<glyph unicode="&#xb6;" horiz-adv-x="888" d="M53 1063q0 152 105 257t256 105h190v-2h127v-102h103v-1440h-127v-4h-226v103h-102v649q-103 45 -162 135q-75 51 -119.5 130t-44.5 169zM74 1063q0 -132 96.5 -231.5t228.5 -110.5v-721h185v1405h-170q-141 0 -240.5 -100t-99.5 -242zM182 1071q0 96 55 162.5t138 69.5 v-463q-82 3 -137.5 70.5t-55.5 160.5zM223 1176q44 58 117 102q-75 -17 -117 -102zM305 969q0 -52 19 -101q3 -1 9.5 -2.5t11.5 -2.5t9 -1v256q-49 -58 -49 -149zM604 4h107v1399h-107v-1399z" />
<glyph unicode="&#xb7;" horiz-adv-x="473" d="M43 639q0 51 41 93t98 42q48 0 88.5 -32t51.5 -76q44 -12 75 -50.5t31 -78.5q0 -51 -43 -91t-100 -40q-51 0 -90 31t-48 75q-45 10 -74.5 47t-29.5 80zM63 639q0 -44 35 -77.5t84 -33.5t86 34t37 77q0 42 -37.5 78.5t-85.5 36.5t-83.5 -36t-35.5 -79z" />
<glyph unicode="&#xb9;" horiz-adv-x="608" d="M43 1186l289 239h131v-102h102v-668h-153v103h-103v266q-18 -15 -33 -27q-4 -2 -22 -20l-109 106zM74 1184l78 -76q145 119 178 147v-477h112v627h-102z" />
<glyph unicode="&#xba;" horiz-adv-x="624" d="M49 823q0 101 61.5 167.5t153.5 66.5q57 0 105.5 -32.5t74.5 -86.5q58 -27 93.5 -84.5t35.5 -132.5q0 -93 -60.5 -158t-145.5 -65q-65 0 -115.5 32.5t-77.5 87.5q-57 26 -91 81t-34 124zM70 823q0 -85 55.5 -143.5t138.5 -58.5q77 0 132 59t55 143q0 91 -54.5 152 t-132.5 61q-83 0 -138.5 -60.5t-55.5 -152.5zM147 823q0 52 36 93.5t81 41.5q40 0 73.5 -41.5t33.5 -93.5q0 -46 -33.5 -85.5t-73.5 -39.5q-44 0 -80.5 39.5t-36.5 85.5zM168 813q32 87 111 123q-2 0 -7.5 1t-7.5 1q-37 0 -66.5 -35.5t-29.5 -79.5v-10zM270 719 q31 3 55.5 35t24.5 69v11q-33 -8 -56.5 -41t-23.5 -72v-2zM346 618q6 -2 21 -2q32 0 59 33t27 72v8q-38 -82 -107 -111z" />
<glyph unicode="&#xbb;" horiz-adv-x="1200" d="M39 944l100 117l580 -490l-8 -10l84 -69l43 49q-88 76 -185 157q-85 69 -174 144l8 10q-56 44 -110 92l100 117l580 -490l-8 -10l110 -92l-485 -578l-113 101l4 6l-80 72l-149 -179l-113 101l4 6l-106 96l379 447q-88 76 -185 157q-85 69 -174 144l9 10q-66 53 -111 92z M70 946q406 -339 467 -391l-387 -459l81 -73l459 546l-547 463zM408 946q341 -285 466 -391l-387 -459l82 -73l459 546l-547 463z" />
<glyph unicode="&#xbc;" horiz-adv-x="868" d="M20 920l164 137h88v-115l15 12h88v-481l157 272l99 -49l-207 -352h37l76 129v23h12l86 147l98 -49l-86 -148v-53h103v-151h98v-111h-98v-254h-111v103h-102v151h-150v86l8 16h-110v68h-21v102h-102v375l-39 39l39 33v47l-31 -25q-20 -15 -33 -28zM51 918l47 -46 q50 37 84 66v-514h70v612h-59zM305 254h252v-254h70v254h98v70h-98v151h-70v-151h-168l213 364l-61 31l-236 -406v-59z" />
<glyph unicode="&#xbd;" horiz-adv-x="851" d="M31 922l164 137h88v-115l14 12h88v-235q40 18 82 18q73 0 132.5 -36t90.5 -97q59 -31 95 -89.5t36 -127.5q0 -88 -69 -168l-119 -133h86v-102h102v-109h-444v88l12 15h-115v88l301 335q33 37 33 89q0 10 -4 30q-20 4 -35 4q-53 0 -120 -61l-64 63v-227h-111v102h-102v377 l-39 39l39 33v47l-31 -25q-16 -12 -32 -28zM61 920l48 -46q50 37 84 66v-516h69v614h-59zM295 0h403v68h-305l242 270q63 74 63 154q0 95 -67 161t-164 66q-89 0 -170 -74l49 -49q59 53 121 53q68 0 115 -45t47 -112q0 -61 -39 -103l-295 -330v-59zM385 555q60 50 115 70 q-20 4 -33 4q-37 0 -82 -31v-43zM438 88h49l191 213q33 37 33 88q0 11 -4 31q-16 -47 -58 -96z" />
<glyph unicode="&#xbe;" horiz-adv-x="1034" d="M25 395l84 74q59 -72 127 -72q55 0 95 35t40 82q-66 19 -146 6v105q-53 6 -102 -2v116h125q53 3 89 32.5t36 70.5v2q-20 4 -31 4q-72 0 -135 -70l-78 78q67 70 143 90q-20 4 -32 4q-73 0 -136 -69l-77 77q95 101 213 101q75 0 136.5 -36.5t90.5 -96.5q55 -28 88 -78 t33 -109q0 -99 -86 -159q36 -28 53 -64l137 234l99 -50l-201 -352h28l76 127v25h13l88 147l98 -49l-86 -152v-49h102v-151h99v-113h-99v-252h-112v103h-103v149h-149v88l8 15h-59q-65 -52 -156 -52q-117 0 -211 109l14 12q-62 26 -116 90zM55 393q76 -86 181 -86 q94 0 159.5 60.5t65.5 146.5q0 53 -26.5 97t-72.5 73q47 24 75 65.5t28 92.5q0 83 -66 139.5t-159 56.5q-111 0 -185 -80l49 -49q56 62 136 62q63 0 108 -37.5t45 -91.5q0 -49 -41.5 -84.5t-101.5 -38.5h-107v-72q97 16 172.5 -22t75.5 -111q0 -57 -45.5 -97t-109.5 -40 q-79 0 -130 61zM311 297q8 -2 27 -2q55 0 95 35t40 82q0 8 -4 28q-19 -51 -60.5 -88.5t-97.5 -54.5zM399 682l25 -25q51 30 51 82q0 11 -4 27q-19 -45 -72 -84zM463 256h252v-252h71v252h99v72h-99v151h-71v-151h-162l209 364l-62 31l-237 -406v-61z" />
<glyph unicode="&#xbf;" horiz-adv-x="913" d="M31 371q0 108 53.5 203t144 151.5t193.5 56.5h63q-3 11 -23.5 81t-29.5 106q-7 25 -59.5 202.5t-75.5 253.5h68q-13 23 -13 52v12h-12q-41 0 -65.5 25.5t-24.5 64.5q0 41 24.5 66.5t65.5 25.5q35 0 60.5 -26t25.5 -66q0 -2 -1 -6t-1 -6q6 2 18 2q35 0 60.5 -26t25.5 -66 q0 -30 -17 -54t-42 -32l18 -68h74l195 -668v-131h-232q-100 -3 -170.5 -77t-70.5 -179q0 -70 30 -125q54 -28 119 -28q67 0 130 43.5t110 117.5l100 -104l2 2l109 -111q-63 -95 -154 -150.5t-194 -55.5q-98 0 -184.5 47t-143.5 127q-81 58 -128.5 148t-47.5 192zM51 371 q0 -160 112 -275.5t269 -115.5q98 0 182 49.5t140 134.5l-80 82q-44 -70 -107.5 -111t-134.5 -41q-112 0 -192 82t-80 195t77 193t185 83h211v105l-191 653h-116q32 -113 99.5 -342t88.5 -301h-92q-150 0 -260.5 -117t-110.5 -274zM270 1579q0 -30 19 -50t51 -20 q27 0 46.5 20.5t19.5 49.5q0 31 -19.5 51.5t-46.5 20.5q-32 0 -51 -20t-19 -52z" />
<glyph unicode="&#xc0;" horiz-adv-x="1220" d="M-35 -20l537 1456h116l37 -103h66l536 -1456h-159l-39 103h-64l-176 473h-377q-21 -60 -139 -373q-29 -74 -78 -203h-157l36 103h-139zM-6 0h117q167 445 215 575h469l215 -575h116l-520 1415h-92zM268 1784h248l76 -103h26l181 -241h-123l-305 241h26zM328 1763 l252 -200h75l-149 200h-178zM367 688q72 196 192 520q37 -100 101 -269t94 -251h-387zM535 709h192q-11 30 -40.5 106.5t-41.5 108.5v-2q-11 26 -16 43q-24 -61 -31 -84v-2q-14 -36 -63 -170z" />
<glyph unicode="&#xc1;" horiz-adv-x="1220" d="M-35 -20l537 1456h116l37 -103h66l536 -1456h-159l-39 103h-64l-176 473h-377q-21 -60 -139 -373q-29 -74 -78 -203h-157l36 103h-139zM-6 0h117q167 445 215 575h469l215 -575h116l-520 1415h-92zM367 688q72 196 192 520q37 -100 101 -269t94 -251h-387zM475 1567 l182 241h244l-129 -102h232l-302 -242h-124l159 213l-137 -110h-125zM516 1587h78l250 201h-176zM535 709h192q-11 30 -40.5 106.5t-41.5 108.5v-2q-11 26 -16 43q-24 -61 -31 -84v-2q-14 -36 -63 -170z" />
<glyph unicode="&#xc2;" horiz-adv-x="1220" d="M-35 -20l537 1456h116l37 -103h66l536 -1456h-159l-39 103h-64l-176 473h-377q-21 -60 -139 -373q-29 -74 -78 -203h-157l36 103h-139zM-6 0h117q167 445 215 575h469l215 -575h116l-520 1415h-92zM367 688q72 196 192 520q37 -100 101 -269t94 -251h-387zM535 709h192 q-11 30 -40.5 106.5t-41.5 108.5v-2q-11 26 -16 43q-24 -61 -31 -84v-2q-14 -36 -63 -170z" />
<glyph unicode="&#xc3;" horiz-adv-x="1374" d="M41 -6l537 1456h116l37 -102h66l536 -1457h-159l-39 103h-64l-176 473h-377q-22 -61 -139 -373q-29 -74 -78 -203h-158l37 103h-139zM70 14h116q155 411 215 576h469l215 -576h117l-520 1416h-92zM317 1632q113 70 218 70q48 0 106 -16h-6q1 0 3 -1.5t3 -1.5 q50 -16 78 -16q96 0 162 57l57 -120q-27 -20 -51 -31q53 12 96 49l57 -121q-97 -69 -215 -69q-69 0 -125 24q-30 10 -63 10q-81 0 -156 -55l-61 119q30 19 53 29q-46 -11 -94 -46zM344 1626l43 -82q62 45 148 45q37 0 71 -12l-2 2q55 -25 119 -25q113 0 190 56l-41 82 q-54 -45 -153 -45q-23 0 -84 18q-58 16 -100 16q-106 0 -191 -55zM442 702q16 44 193 521q38 -103 102 -274.5t92 -246.5h-387zM610 723h193q-11 30 -40.5 106.5t-41.5 108.5v-2q-11 26 -16 43q-24 -61 -31 -84v-2q-26 -66 -64 -170z" />
<glyph unicode="&#xc4;" horiz-adv-x="1220" d="M-35 -20l537 1456h116l37 -103h66l536 -1456h-159l-39 103h-64l-176 473h-377q-21 -60 -139 -373q-29 -74 -78 -203h-157l36 103h-139zM-6 0h117q167 445 215 575h469l215 -575h116l-520 1415h-92zM322 1540q0 35 27.5 61.5t64.5 26.5q36 0 64 -26.5t28 -61.5 q0 -10 -2 -16q2 0 6 1t6 1q36 0 64 -26.5t28 -61.5q0 -34 -28.5 -61t-63.5 -27q-36 0 -64 27t-28 61v14h-10q-36 0 -64 27t-28 61zM342 1540q0 -26 21.5 -46.5t50.5 -20.5q28 0 49.5 20.5t21.5 46.5q0 27 -21.5 47.5t-49.5 20.5q-29 0 -50.5 -20t-21.5 -48zM367 688 q72 196 192 520q37 -100 101 -269t94 -251h-387zM535 709h192q-11 30 -40.5 106.5t-41.5 108.5v-2q-11 26 -16 43q-24 -61 -31 -84v-2q-14 -36 -63 -170zM588 1540q0 35 27.5 61.5t64.5 26.5t64.5 -26.5t27.5 -61.5q0 -10 -2 -16q2 0 6 1t6 1q37 0 64.5 -26.5t27.5 -61.5 q0 -34 -28 -61t-64 -27t-64 27t-28 61v14h-10q-36 0 -64 27t-28 61zM608 1540q0 -26 21.5 -46.5t50.5 -20.5t50.5 20.5t21.5 46.5q0 28 -21.5 48t-50.5 20t-50.5 -20t-21.5 -48z" />
<glyph unicode="&#xc6;" horiz-adv-x="2119" d="M63 -20l539 1456h1352v-103h102v-149h-717v-355h510v-102h103v-154h-613v-440h615v-102h102v-154h-870v103h-103v473h-542q-9 -24 -46 -124.5t-57 -152.5q-13 -34 -110 -299h-162l37 103h-140zM92 0h119q34 93 107.5 287.5t107.5 287.5h678v-575h829v113h-716v583h612 v113h-612v498h716v108h-1319zM467 688q37 106 109.5 310t109.5 309h436l-18 -619h-637zM635 709h448l15 475h-295q-20 -58 -57.5 -159.5t-49.5 -135.5q-10 -28 -20.5 -58t-22 -66t-18.5 -56z" />
<glyph unicode="&#xc7;" horiz-adv-x="1325" d="M37 700q0 155 53 293t142.5 237t213 156.5t259.5 57.5q130 0 254 -61t225 -171l-6 -4q52 -38 108 -98l-108 -100q-80 86 -177 134t-194 48q-141 0 -260 -80.5t-187.5 -217t-68.5 -296.5q0 -218 129 -389q132 -98 285 -98q95 0 190 47t176 131l109 -103l-4 -4l106 -98 q-199 -211 -461 -223q35 -21 59.5 -54.5t24.5 -70.5q0 -83 -137 -160l-168 125q19 0 33 2l-135 100q29 0 79.5 6t73.5 17l2 33q-20 10 -53 10h-51v47q-143 69 -238 186q-126 102 -200 259t-74 339zM57 700q0 -258 147 -454t367 -250l-2 -107h31q29 0 58.5 -11.5t29.5 -35.5 q0 -30 -46.5 -44.5t-82.5 -14.5l109 -80q114 62 114 135q0 40 -33.5 75t-66.5 46q7 21 8 23q274 3 461 202l-80 76q-77 -80 -172 -125t-194 -45q-110 0 -210.5 50t-171.5 132.5t-113 194.5t-42 233q0 123 42 236.5t114 196.5t171.5 132.5t209.5 49.5q100 0 196.5 -45.5 t173.5 -128.5l80 73q-92 100 -208 154.5t-242 54.5q-176 0 -324.5 -95t-236 -261.5t-87.5 -366.5zM721 -287q49 11 49 27q0 9 -6 12q-11 -11 -43 -39z" />
<glyph unicode="&#xc8;" horiz-adv-x="993" d="M10 -20v1456h869v-103h102v-149h-715v-355h508v-102h103v-154h-611v-440h613v-102h102v-154h-868v103h-103zM31 0h827v113h-715v583h611v113h-611v498h715v108h-827v-1415zM127 1784h248l76 -103h26l180 -241h-122l-306 241h27zM186 1763l252 -200h76l-149 200h-179z" />
<glyph unicode="&#xc9;" horiz-adv-x="993" d="M10 -20v1456h869v-103h102v-149h-715v-355h508v-102h103v-154h-611v-440h613v-102h102v-154h-868v103h-103zM31 0h827v113h-715v583h611v113h-611v498h715v108h-827v-1415zM305 1567l182 241h244l-129 -102h232l-302 -242h-124l159 213l-137 -110h-125zM346 1587h78 l250 201h-176z" />
<glyph unicode="&#xcb;" horiz-adv-x="993" d="M10 -20v1456h869v-103h102v-149h-715v-355h508v-102h103v-154h-611v-440h613v-102h102v-154h-868v103h-103zM31 0h827v113h-715v583h611v113h-611v498h715v108h-827v-1415zM207 1542q0 35 27.5 61.5t64.5 26.5q36 0 64 -26.5t28 -61.5q0 -10 -2 -16q2 0 6 1t6 1 q36 0 64.5 -26.5t28.5 -61.5q0 -34 -29 -61t-64 -27q-36 0 -64 27t-28 61v14h-10q-36 0 -64 27t-28 61zM227 1542q0 -26 21.5 -46.5t50.5 -20.5q28 0 50 20.5t22 46.5q0 27 -22 47.5t-50 20.5q-29 0 -50.5 -20t-21.5 -48zM473 1542q0 35 27.5 61.5t64.5 26.5t64.5 -26.5 t27.5 -61.5q0 -10 -2 -16q2 0 6.5 1t6.5 1q37 0 64.5 -26.5t27.5 -61.5q0 -34 -28 -61t-64 -27q-37 0 -65 27t-28 61v14h-10q-36 0 -64 27t-28 61zM494 1542q0 -27 21 -47t50 -20t50.5 20.5t21.5 46.5q0 28 -21.5 48t-50.5 20t-50 -20t-21 -48z" />
<glyph unicode="&#xcc;" horiz-adv-x="268" d="M-131 1784h248l76 -103h26l180 -241h-123l-305 241h27zM-72 1763l252 -200h76l-150 200h-178zM70 -20v1456h153v-103h103v-1456h-154v103h-102zM90 0h113v1415h-113v-1415z" />
<glyph unicode="&#xcd;" horiz-adv-x="315" d="M-106 1567l182 241h243l-129 -102h232l-301 -242h-125l160 213l-138 -110h-124zM-104 -20v1456h153v-103h103v-1456h-154v103h-102zM-84 0h113v1415h-113v-1415zM-66 1587h78l250 201h-176z" />
<glyph unicode="&#xce;" horiz-adv-x="282" d="M12 -20v1456h154v-103h102v-1456h-153v103h-103zM33 0h112v1415h-112v-1415z" />
<glyph unicode="&#xcf;" horiz-adv-x="282" d="M-135 1540q0 35 27.5 61.5t64.5 26.5q36 0 64 -26.5t28 -61.5q0 -10 -2 -16q2 0 6 1t6 1q36 0 64.5 -26.5t28.5 -61.5q0 -34 -29 -61t-64 -27q-36 0 -64 27t-28 61v14h-10q-36 0 -64 27t-28 61zM-115 1540q0 -26 21.5 -46.5t50.5 -20.5q28 0 50 20.5t22 46.5 q0 27 -22 47.5t-50 20.5q-29 0 -50.5 -20t-21.5 -48zM20 -20v1456h154v-103h102v-1456h-153v103h-103zM41 0h113v1415h-113v-1415zM131 1540q0 35 27.5 61.5t64.5 26.5t64.5 -26.5t27.5 -61.5q0 -10 -2 -16q2 0 6.5 1t6.5 1q37 0 64.5 -26.5t27.5 -61.5q0 -34 -28 -61 t-64 -27q-37 0 -65 27t-28 61v14h-10q-36 0 -64 27t-28 61zM152 1540q0 -27 21 -47t50 -20t50.5 20.5t21.5 46.5q0 28 -21.5 48t-50.5 20t-50 -20t-21 -48z" />
<glyph unicode="&#xd0;" horiz-adv-x="1415" d="M55 530v152h135v754h547q100 -1 191.5 -52t161.5 -141q122 -95 195 -264.5t73 -370.5q0 -197 -67.5 -363t-186 -264.5t-260.5 -103.5h-551v103h-103v448h-32v102h-103zM76 551h135v-551h530q136 5 249.5 101t179 257.5t65.5 352.5q0 190 -66.5 351.5t-181 256 t-250.5 96.5h-526v-753h-135v-111zM324 113v438h350v111h-350v641h413q106 -2 194.5 -81.5t139.5 -215t51 -295.5q0 -243 -111.5 -416t-269.5 -178q-68 0 -207.5 -2t-209.5 -2zM446 133q58 0 89 2q35 0 103.5 1t102.5 1q149 5 255 173t106 401q0 252 -121 422 q-65 44 -141 47h-394v-498h248v-102h103v-152h-351v-295z" />
<glyph unicode="&#xd1;" horiz-adv-x="1099" d="M20 -20v1456h138l59 -103h43l561 -950v1053h154v-103h102v-1456h-139l-61 103h-41l-562 954v-1057h-151v103h-103zM41 0h111v1186l696 -1186h106v1415h-112v-1179l-697 1179h-104v-1415zM205 1659q93 49 178 49q19 0 38.5 -3t29 -5.5t32 -9t25.5 -7.5t8 -3t8 -3 q61 -26 111 -26q61 0 133 45l45 -127q-4 -2 -11 -6.5t-11 -6.5q33 10 79 37l45 -127q-87 -51 -178 -51q-90 0 -202 68l40 -25q-43 15 -90 15q-56 0 -131 -46l-47 129q2 1 5 3.5t5 3.5q-8 -3 -65 -33zM229 1649l33 -88q55 34 121 34q55 0 98 -16h-2q62 -41 156 -41 q82 0 153 41l-30 88q-56 -37 -123 -37q-45 0 -117 29q-5 2 -21.5 7.5t-25.5 8t-24 6.5t-31 5.5t-33 1.5q-81 0 -154 -39z" />
<glyph unicode="&#xd2;" horiz-adv-x="1413" d="M-8 707q0 151 52.5 287.5t141.5 235t212 156.5t259 58q148 0 276.5 -63.5t219.5 -176.5q126 -101 198 -258t72 -342q0 -330 -202 -541q-188 -204 -461 -204q-143 0 -271.5 64.5t-222.5 178.5q-127 102 -200.5 260t-73.5 345zM12 707q0 -151 52.5 -286.5t140 -231 t206 -151.5t246.5 -56q130 0 244.5 51t202.5 147q95 99 145.5 234t50.5 293q0 197 -83 361t-231 259.5t-329 95.5q-175 0 -323.5 -95.5t-235 -260.5t-86.5 -360zM127 707q0 165 70.5 303.5t192.5 218.5t267 80q106 0 201 -41.5t164 -118.5q81 -83 125.5 -197.5t44.5 -244.5 q0 -168 -69.5 -308t-192.5 -221.5t-273 -81.5q-146 0 -268 81.5t-192 221.5t-70 308zM250 604q0 -228 127 -393q127 -94 280 -94q144 0 262 78.5t185 214t67 297.5q0 221 -124 380q-129 99 -287 99q-139 0 -256.5 -77.5t-185.5 -211.5t-68 -293zM319 1784h248l76 -103h27 l180 -241h-123l-305 241h27zM379 1763l252 -200h76l-150 200h-178z" />
<glyph unicode="&#xd3;" horiz-adv-x="1413" d="M-8 707q0 151 52.5 287.5t141.5 235t212 156.5t259 58q148 0 276.5 -63.5t219.5 -176.5q126 -101 198 -258t72 -342q0 -330 -202 -541q-188 -204 -461 -204q-143 0 -271.5 64.5t-222.5 178.5q-127 102 -200.5 260t-73.5 345zM12 707q0 -151 52.5 -286.5t140 -231 t206 -151.5t246.5 -56q130 0 244.5 51t202.5 147q95 99 145.5 234t50.5 293q0 197 -83 361t-231 259.5t-329 95.5q-175 0 -323.5 -95.5t-235 -260.5t-86.5 -360zM127 707q0 165 70.5 303.5t192.5 218.5t267 80q106 0 201 -41.5t164 -118.5q81 -83 125.5 -197.5t44.5 -244.5 q0 -168 -69.5 -308t-192.5 -221.5t-273 -81.5q-146 0 -268 81.5t-192 221.5t-70 308zM250 604q0 -228 127 -393q127 -94 280 -94q144 0 262 78.5t185 214t67 297.5q0 221 -124 380q-129 99 -287 99q-139 0 -256.5 -77.5t-185.5 -211.5t-68 -293zM594 1567l182 241h244 l-129 -102h231l-301 -242h-125l160 213l-137 -110h-125zM635 1587h78l250 201h-177z" />
<glyph unicode="&#xd5;" horiz-adv-x="1413" d="M-8 707q0 151 52.5 287.5t141.5 235t212 156.5t259 58q148 0 276.5 -63.5t219.5 -176.5q126 -101 198 -258t72 -342q0 -330 -202 -541q-188 -204 -461 -204q-143 0 -271.5 64.5t-222.5 178.5q-127 102 -200.5 260t-73.5 345zM12 707q0 -151 52.5 -286.5t140 -231 t206 -151.5t246.5 -56q130 0 244.5 51t202.5 147q95 99 145.5 234t50.5 293q0 197 -83 361t-231 259.5t-329 95.5q-175 0 -323.5 -95.5t-235 -260.5t-86.5 -360zM127 707q0 165 70.5 303.5t192.5 218.5t267 80q106 0 201 -41.5t164 -118.5q81 -83 125.5 -197.5t44.5 -244.5 q0 -168 -69.5 -308t-192.5 -221.5t-273 -81.5q-146 0 -268 81.5t-192 221.5t-70 308zM250 604q0 -228 127 -393q127 -94 280 -94q144 0 262 78.5t185 214t67 297.5q0 221 -124 380q-129 99 -287 99q-139 0 -256.5 -77.5t-185.5 -211.5t-68 -293zM358 1661q93 49 179 49 q41 0 125 -24q3 -1 8 -3.5t8 -3.5q61 -26 110 -26q62 0 134 45l45 -127q-4 -2 -11.5 -6t-11.5 -6q38 11 80 36l45 -127q-87 -51 -178 -51t-203 68l41 -25q-43 15 -90 15q-58 0 -131 -45l-47 129q2 1 5 3t5 3q-8 -3 -65 -33zM383 1651l33 -88q55 34 121 34q55 0 98 -16h-2 q62 -41 155 -41q83 0 154 41l-31 88q-56 -37 -123 -37q-43 0 -116 29q-5 2 -21.5 7.5t-25.5 8t-24 6.5t-31 5.5t-33 1.5q-81 0 -154 -39z" />
<glyph unicode="&#xd6;" horiz-adv-x="1413" d="M-8 707q0 151 52.5 287.5t141.5 235t212 156.5t259 58q148 0 276.5 -63.5t219.5 -176.5q126 -101 198 -258t72 -342q0 -330 -202 -541q-188 -204 -461 -204q-143 0 -271.5 64.5t-222.5 178.5q-127 102 -200.5 260t-73.5 345zM12 707q0 -151 52.5 -286.5t140 -231 t206 -151.5t246.5 -56q130 0 244.5 51t202.5 147q95 99 145.5 234t50.5 293q0 197 -83 361t-231 259.5t-329 95.5q-175 0 -323.5 -95.5t-235 -260.5t-86.5 -360zM127 707q0 165 70.5 303.5t192.5 218.5t267 80q106 0 201 -41.5t164 -118.5q81 -83 125.5 -197.5t44.5 -244.5 q0 -168 -69.5 -308t-192.5 -221.5t-273 -81.5q-146 0 -268 81.5t-192 221.5t-70 308zM250 604q0 -228 127 -393q127 -94 280 -94q144 0 262 78.5t185 214t67 297.5q0 221 -124 380q-129 99 -287 99q-139 0 -256.5 -77.5t-185.5 -211.5t-68 -293zM424 1542q0 35 27.5 61.5 t64.5 26.5q36 0 64 -26.5t28 -61.5q0 -10 -2 -16q2 0 6 1t6 1q36 0 64.5 -26.5t28.5 -61.5q0 -34 -29 -61t-64 -27q-36 0 -64 27t-28 61v14h-10q-36 0 -64 27t-28 61zM444 1542q0 -26 21.5 -46.5t50.5 -20.5q28 0 50 20.5t22 46.5q0 27 -22 47.5t-50 20.5q-29 0 -50.5 -20 t-21.5 -48zM690 1542q0 35 27.5 61.5t64.5 26.5t64.5 -26.5t27.5 -61.5q0 -10 -2 -16q2 0 6.5 1t6.5 1q37 0 64.5 -26.5t27.5 -61.5q0 -34 -28 -61t-64 -27t-64 27t-28 61v14h-11q-36 0 -64 27t-28 61zM711 1542q0 -27 21 -47t50 -20t50.5 20.5t21.5 46.5q0 28 -21.5 48 t-50.5 20t-50 -20t-21 -48z" />
<glyph unicode="&#xd7;" horiz-adv-x="856" d="M55 426l213 215l-211 211l105 109l102 -103l113 -110l213 213l108 -107l-2 -2l105 -100l-215 -213l215 -215l-107 -107l-215 215l-215 -215zM84 426l78 -78l215 213l215 -213l78 78l-215 215l215 213l-80 78l-213 -213l-215 213l-76 -80l211 -211z" />
<glyph unicode="&#xd8;" horiz-adv-x="1542" d="M55 707q0 202 89 371.5t242 267.5t335 98q87 0 180 -27l6 19h158l-25 -78q6 -4 17.5 -12.5t17.5 -12.5h92l-18 -59q30 -30 63 -68q129 -106 202 -263t73 -339q0 -162 -52.5 -300.5t-150.5 -240.5q-188 -204 -461 -204q-87 0 -174 24v-6h-172l25 72l-49 31h-78l16 49 q-39 39 -63 69q-127 100 -200 260t-73 349zM76 707q0 -211 97 -385t253 -261l-23 -61h123q0 10 2 14q101 -32 193 -32q264 0 446 198q95 99 146 234t51 293q0 207 -92.5 376t-255.5 265l22 67h-118q-3 -6 -7 -22q-98 30 -192 30q-175 0 -323.5 -95.5t-235 -260.5t-86.5 -360 zM190 707q0 165 70.5 303.5t193 218.5t267.5 80q83 0 151 -25q-53 -146 -192.5 -525.5t-216.5 -590.5q-125 78 -199 221.5t-74 317.5zM313 604q0 -231 123 -395q2 -2 8.5 -5.5t8.5 -4.5q29 79 233 635q64 171 129 352q-137 -2 -252.5 -80.5t-182.5 -211.5t-67 -290zM567 121 q292 795 410 1118q46 -28 108 -90q81 -83 125.5 -197.5t44.5 -244.5q0 -168 -69.5 -308t-192 -221.5t-272.5 -81.5q-83 0 -154 25zM727 117q142 2 259 81t183 213.5t66 295.5q0 223 -127 385q-12 8 -18 14q-19 -52 -57 -154.5t-58 -154.5q-34 -92 -117.5 -323t-130.5 -357z " />
<glyph unicode="&#xd9;" horiz-adv-x="1224" d="M16 358v1078h160v-103h103v-1073q7 -38 24 -67q113 -76 266 -76q143 0 255.5 74t127.5 171v1074h154v-103h102v-1075q-4 -107 -77.5 -199t-196 -146t-262.5 -54q-156 0 -286.5 61t-201.5 160q-159 117 -168 278zM37 360q11 -157 164.5 -267.5t367.5 -110.5 q135 0 252.5 51t188.5 138t75 189v1055h-112v-1055q-14 -106 -132.5 -185t-271.5 -79q-160 0 -279.5 79t-133.5 185v1055h-119v-1055zM270 1784h248l76 -103h27l180 -241h-123l-305 241h26zM330 1763l252 -200h75l-149 200h-178z" />
<glyph unicode="&#xda;" horiz-adv-x="1224" d="M16 358v1078h160v-103h103v-1073q7 -38 24 -67q113 -76 266 -76q143 0 255.5 74t127.5 171v1074h154v-103h102v-1075q-4 -107 -77.5 -199t-196 -146t-262.5 -54q-156 0 -286.5 61t-201.5 160q-159 117 -168 278zM37 360q11 -157 164.5 -267.5t367.5 -110.5 q135 0 252.5 51t188.5 138t75 189v1055h-112v-1055q-14 -106 -132.5 -185t-271.5 -79q-160 0 -279.5 79t-133.5 185v1055h-119v-1055zM481 1567l183 241h243l-129 -102h232l-301 -242h-125l159 213l-137 -110h-125zM522 1587h78l250 201h-176z" />
<glyph unicode="&#xdc;" horiz-adv-x="1224" d="M16 358v1078h160v-103h103v-1073q7 -38 24 -67q113 -76 266 -76q143 0 255.5 74t127.5 171v1074h154v-103h102v-1075q-4 -107 -77.5 -199t-196 -146t-262.5 -54q-156 0 -286.5 61t-201.5 160q-159 117 -168 278zM37 360q11 -157 164.5 -267.5t367.5 -110.5 q135 0 252.5 51t188.5 138t75 189v1055h-112v-1055q-14 -106 -132.5 -185t-271.5 -79q-160 0 -279.5 79t-133.5 185v1055h-119v-1055zM338 1540q0 35 27.5 61.5t64.5 26.5q36 0 64 -26.5t28 -61.5q0 -10 -2 -16q2 0 6 1t6 1q36 0 64.5 -26.5t28.5 -61.5q0 -34 -29 -61 t-64 -27q-36 0 -64 27t-28 61v14h-10q-36 0 -64 27t-28 61zM358 1540q0 -26 21.5 -46.5t50.5 -20.5q28 0 50 20.5t22 46.5q0 27 -22 47.5t-50 20.5q-29 0 -50.5 -20t-21.5 -48zM604 1540q0 35 27.5 61.5t64.5 26.5t64.5 -26.5t27.5 -61.5q0 -10 -2 -16q2 0 6.5 1t6.5 1 q37 0 64.5 -26.5t27.5 -61.5q0 -34 -28 -61t-64 -27t-64 27t-28 61v14h-11q-36 0 -64 27t-28 61zM625 1540q0 -27 21 -47t50 -20t50.5 20.5t21.5 46.5q0 28 -21.5 48t-50.5 20t-50 -20t-21 -48z" />
<glyph unicode="&#xdd;" horiz-adv-x="1394" d="M-33 1436h201l74 -103h28l387 -532q18 26 56 76l57 75q132 181 358 484h199l-78 -103h181l-603 -805v-651h-155v103h-103v651q-18 24 -77.5 102.5t-90.5 120.5q-69 92 -221.5 297t-212.5 285zM8 1415q104 -141 316 -423.5t266 -354.5v-637h115v637l581 778h-147 q-49 -66 -494 -667l-487 667h-150zM580 1567l182 241h244l-129 -102h231l-301 -242h-125l160 213l-137 -110h-125zM621 1587h77l250 201h-176z" />
<glyph unicode="&#xde;" horiz-adv-x="1126" d="M45 -414v1852h154v-103h102v-286q82 20 160 20q121 -3 225 -58.5t176 -150.5q102 -76 160.5 -193t58.5 -251q0 -152 -68.5 -280t-188 -202.5t-261.5 -74.5q-133 0 -264 57v-432h-152v102h-102zM66 -393h110v444q154 -69 285 -69q136 0 250.5 71.5t180.5 195t66 269.5 q0 107 -39 204t-105.5 168t-158.5 114t-194 45q-163 0 -283 -70v438h-112v-1810zM172 836q14 39 98 68.5t191 29.5q156 0 269.5 -125t113.5 -293q0 -171 -113 -295t-270 -127q-79 2 -145 17.5t-103.5 40t-34.5 51.5zM295 731l6 -596q60 -17 160 -20q150 3 256 120t106 281 q0 129 -73 236q-88 59 -187 59q-100 0 -177 -23.5t-91 -56.5z" />
<glyph unicode="&#xdf;" horiz-adv-x="1120" d="M57 -365v1790h475q104 -3 193.5 -51.5t144.5 -126.5q75 -54 119.5 -132.5t44.5 -164.5q0 -185 -155 -301q2 -3 5 -8t5 -8q82 -55 128 -143.5t46 -188.5q0 -170 -124 -293.5t-304 -126.5h-184l-138 137v-485h-153v102h-103zM78 -344h112v1036h308q146 -7 237.5 -90.5 t91.5 -198.5q0 -116 -86 -201t-209 -91h-282l106 -107h176q171 3 289.5 120t118.5 279q0 107 -57 200t-154 142q83 51 132.5 132t49.5 176q0 140 -111.5 244.5t-267.5 107.5h-454v-1749zM190 803v493h342q112 -6 189.5 -76.5t77.5 -166.5q0 -104 -77 -175.5t-190 -74.5h-342 zM313 131h219q114 6 194.5 86t80.5 186q0 55 -31 115q-76 45 -178 51h-285v-438zM313 823h219q104 3 175 68.5t71 161.5q0 41 -20 86q-60 29 -125 35h-320v-351z" />
<glyph unicode="&#xe0;" horiz-adv-x="831" d="M-20 295q0 145 108 241.5t260 96.5h193v8q0 83 -31 150q-14 6 -45 10q-120 0 -256 -39l-31 121q-5 -1 -31 -8t-41 -11l-36 148q149 45 295 45q77 -1 144 -42t112 -110q76 -48 123 -134t53 -191v-21q-4 -172 -4 -336q0 -117 15 -215.5t44 -130.5h-209v41q-92 -61 -207 -61 q-94 0 -174.5 44t-128.5 117q-70 45 -111.5 118.5t-41.5 158.5zM0 295q0 -130 98.5 -222.5t235.5 -92.5q129 0 227 81v-61h141q-32 35 -32 326l4 336v20q-8 146 -97 248.5t-212 105.5q-140 0 -271 -39l27 -106q112 33 241 33q88 -3 143.5 -84t55.5 -199v-29h-213 q-143 0 -245.5 -90.5t-102.5 -226.5zM59 1393h248l76 -103h27l180 -241h-123l-305 241h26zM113 295q0 91 68 149t167 58h213v-207q0 -84 -66.5 -142.5t-160.5 -58.5q-92 0 -156.5 58t-64.5 143zM119 1372l252 -201h75l-149 201h-178zM236 193q0 -32 10 -62q43 -16 88 -16 q86 0 146.5 52.5t60.5 127.5v84h-90q-91 0 -153 -52t-62 -134z" />
<glyph unicode="&#xe1;" horiz-adv-x="831" d="M-20 295q0 145 108 241.5t260 96.5h193v8q0 83 -31 150q-14 6 -45 10q-120 0 -256 -39l-31 121q-5 -1 -31 -8t-41 -11l-36 148q149 45 295 45q77 -1 144 -42t112 -110q76 -48 123 -134t53 -191v-21q-4 -172 -4 -336q0 -117 15 -215.5t44 -130.5h-209v41q-92 -61 -207 -61 q-94 0 -174.5 44t-128.5 117q-70 45 -111.5 118.5t-41.5 158.5zM0 295q0 -130 98.5 -222.5t235.5 -92.5q129 0 227 81v-61h141q-32 35 -32 326l4 336v20q-8 146 -97 248.5t-212 105.5q-140 0 -271 -39l27 -106q112 33 241 33q88 -3 143.5 -84t55.5 -199v-29h-213 q-143 0 -245.5 -90.5t-102.5 -226.5zM113 295q0 91 68 149t167 58h213v-207q0 -84 -66.5 -142.5t-160.5 -58.5q-92 0 -156.5 58t-64.5 143zM236 193q0 -32 10 -62q43 -16 88 -16q86 0 146.5 52.5t60.5 127.5v84h-90q-91 0 -153 -52t-62 -134zM242 1176l182 241h244 l-129 -102h231l-301 -242h-125l160 213l-137 -110h-125zM283 1196h77l250 201h-176z" />
<glyph unicode="&#xe2;" horiz-adv-x="831" d="M-20 295q0 145 108 241.5t260 96.5h193v8q0 83 -31 150q-14 6 -45 10q-120 0 -256 -39l-31 121q-5 -1 -31 -8t-41 -11l-36 148q149 45 295 45q77 -1 144 -42t112 -110q76 -48 123 -134t53 -191v-21q-4 -172 -4 -336q0 -117 15 -215.5t44 -130.5h-209v41q-92 -61 -207 -61 q-94 0 -174.5 44t-128.5 117q-70 45 -111.5 118.5t-41.5 158.5zM0 295q0 -130 98.5 -222.5t235.5 -92.5q129 0 227 81v-61h141q-32 35 -32 326l4 336v20q-8 146 -97 248.5t-212 105.5q-140 0 -271 -39l27 -106q112 33 241 33q88 -3 143.5 -84t55.5 -199v-29h-213 q-143 0 -245.5 -90.5t-102.5 -226.5zM94 1274l262 260l103 -102l162 -160l102 -103l-100 -98l-103 103l-63 61l-164 -164l-96 100l163 162l-4 6l-166 -165zM113 295q0 91 68 149t167 58h213v-207q0 -84 -66.5 -142.5t-160.5 -58.5q-92 0 -156.5 58t-64.5 143zM123 1274 l67 -72l166 166l164 -166l72 70l-236 233zM236 193q0 -32 10 -62q43 -16 88 -16q86 0 146.5 52.5t60.5 127.5v84h-90q-91 0 -153 -52t-62 -134z" />
<glyph unicode="&#xe3;" horiz-adv-x="976" d="M51 309q0 145 108.5 241.5t260.5 96.5h192v8q0 85 -30 150q-14 6 -45 10q-120 0 -256 -39l-31 121q-34 -9 -72 -18l-37 147q149 45 295 45q77 -1 144 -41.5t112 -109.5q76 -48 123 -134.5t53 -191.5v-21q-4 -171 -4 -335q0 -117 15.5 -216t44.5 -131h-209v41 q-92 -61 -207 -61q-93 0 -174 44t-129 118q-70 45 -112 118t-42 158zM72 309q0 -130 98.5 -222.5t235.5 -92.5q128 0 227 82v-62h141q-33 36 -33 326l4 336v20q-8 146 -97 249t-212 106q-139 0 -270 -39l27 -107q112 33 241 33q88 -3 143.5 -84t55.5 -199v-28h-213 q-143 0 -245.5 -91t-102.5 -227zM82 1190q111 76 221 76q43 0 100 -17h-6q1 0 3 -1t3 -1q44 -14 70 -14q42 0 88.5 17.5t79.5 47.5l57 -118q-38 -31 -69 -43q69 17 114 59l58 -119q-45 -36 -103.5 -57t-113.5 -21q-70 0 -117 23v-2q-33 10 -59 10q-38 0 -81 -17t-75 -46 l-68 120q38 26 60 35q-48 -14 -94 -53zM109 1184l47 -82q26 23 67.5 37t81.5 14q33 0 66 -10l-2 2q51 -23 112 -23q113 0 193 64l-39 80q-27 -24 -72 -39t-90 -15q-19 0 -76 17q-54 16 -94 16q-105 0 -194 -61zM184 309q0 91 68.5 149t167.5 58h213v-207q0 -84 -66.5 -142 t-160.5 -58q-93 0 -157.5 58t-64.5 142zM307 207q0 -32 10 -62q43 -16 89 -16q86 0 146 52.5t60 127.5v84h-90q-91 0 -153 -52t-62 -134z" />
<glyph unicode="&#xe4;" horiz-adv-x="966" d="M47 309q0 145 108.5 241.5t260.5 96.5h192v8q0 85 -30 150q-14 6 -46 10q-120 0 -256 -39l-30 121q-34 -9 -72 -18l-37 147q149 45 295 45q77 -1 144 -41.5t112 -109.5q76 -48 123 -134.5t53 -191.5v-21q-4 -171 -4 -335q0 -117 15.5 -216t44.5 -131h-209v41 q-92 -61 -207 -61q-93 0 -174 44t-129 118q-70 45 -112 118t-42 158zM68 309q0 -130 98 -222.5t235 -92.5q129 0 228 82v-62h141q-33 36 -33 326l4 336v20q-8 146 -97 249t-212 106q-139 0 -270 -39l26 -107q112 33 242 33q88 -3 143.5 -84t55.5 -199v-28h-213 q-143 0 -245.5 -91t-102.5 -227zM180 309q0 91 68.5 149t167.5 58h213v-207q0 -84 -67 -142t-161 -58q-93 0 -157 58t-64 142zM195 1309q0 36 26.5 62t65.5 26q36 0 64 -26.5t28 -61.5q0 -11 -2 -15h12q36 0 64 -26.5t28 -61.5q0 -34 -28.5 -61t-63.5 -27q-39 0 -65.5 26.5 t-26.5 61.5v15h-10q-39 0 -65.5 26.5t-26.5 61.5zM215 1309q0 -27 21 -47.5t51 -20.5q28 0 49.5 21t21.5 47q0 27 -21.5 47t-49.5 20q-31 0 -51.5 -19.5t-20.5 -47.5zM303 207q0 -32 10 -62q43 -16 88 -16q86 0 146.5 52.5t60.5 127.5v84h-90q-91 0 -153 -52t-62 -134z M461 1309q0 35 27.5 61.5t64.5 26.5t64.5 -26.5t27.5 -61.5q0 -11 -2 -17q2 0 6 1t6 1q37 0 65 -26.5t28 -61.5q0 -34 -28 -61t-65 -27q-36 0 -64 27t-28 61v15h-10q-36 0 -64 27t-28 61zM481 1309q0 -27 21.5 -47.5t50.5 -20.5t50.5 20.5t21.5 47.5q0 28 -21.5 47.5 t-50.5 19.5t-50.5 -19.5t-21.5 -47.5z" />
<glyph unicode="&#xe6;" horiz-adv-x="1628" d="M61 295q0 140 105 239t252 99h198q0 2 1 7t1 7q1 3 2 7.5t2 7.5t1 4q-3 72 -29 125q-14 6 -47 10q-124 0 -254 -39l-33 121q-12 -3 -35 -9.5t-35 -9.5l-38 148q155 45 294 45q76 -3 143.5 -43.5t112.5 -108.5q3 -2 11.5 -7.5t11.5 -8.5q61 81 141.5 125.5t169.5 44.5 q94 0 176 -45.5t142 -126.5q98 -70 155.5 -194t57.5 -275v-82h-693v-49q18 -75 62 -137q55 -37 123 -37q101 0 274 84l56 -125q6 3 22.5 10.5t24.5 11.5l61 -135q-123 -69 -280 -98q-16 -2 -56 -2q-152 0 -276 108q16 -51 69 -90h-229v41q-92 -61 -205 -61q-95 0 -176 43.5 t-129 117.5q-70 45 -112 118.5t-42 158.5zM82 295q0 -130 99 -222.5t237 -92.5q127 0 225 81v-61h150q-36 28 -39 131q124 -149 305 -149q37 0 53 2q142 25 256 88l-45 98q-156 -78 -264 -78q-104 0 -190 84.5t-117 208.5v74h692v61q0 219 -118 368.5t-290 149.5 q-94 0 -177.5 -52.5t-141.5 -145.5q-40 88 -112 140.5t-159 55.5q-136 0 -270 -39l29 -106q109 33 239 33q82 -3 140 -76.5t59 -181.5q-1 -6 -5 -25.5t-5 -28.5h-215q-138 0 -237 -92.5t-99 -224.5zM197 295q0 85 64 146t157 61h209v-29q3 -63 16 -121v-57q0 -84 -66 -142.5 t-159 -58.5q-94 0 -157.5 58t-63.5 143zM319 193q0 -29 11 -62q36 -16 88 -16q85 0 145 52.5t60 127.5v53q-5 22 -7 31h-96q-84 0 -142.5 -54.5t-58.5 -131.5zM754 567q3 153 85.5 255t196.5 102q115 0 199 -101.5t98 -255.5h-579zM895 588h414q-15 107 -64 182 q-51 31 -106 31q-81 0 -148 -58.5t-96 -154.5z" />
<glyph unicode="&#xe7;" horiz-adv-x="1083" d="M37 510q0 147 68 273t186.5 200t259.5 74q107 0 209.5 -51t181.5 -142l-6 -6q58 -40 108 -96l-106 -107q-63 68 -138 107t-147 39q-149 0 -254.5 -115t-105.5 -278q0 -135 69 -236q85 -57 189 -57q72 0 143.5 36t130.5 101l111 -105l-4 -4l106 -98q-68 -74 -157.5 -123 t-180.5 -61q37 -17 67 -54t30 -79q0 -78 -135 -162l-152 119q4 1 12 2t13 2l-127 98q108 16 135 27v36q-18 13 -51 13l-4 -1q-4 -1 -7 -1h-43l2 47q-111 51 -190 153q-100 75 -156.5 192.5t-56.5 256.5zM57 510q0 -194 116 -340t290 -180l-4 -109h22q1 0 5 1t6 1 q31 0 58.5 -13t27.5 -44q0 -21 -38 -36t-77 -19l98 -78q113 70 113 137q0 41 -33.5 76.5t-67.5 46.5l11 29q91 9 175 52t148 111l-80 78q-56 -61 -128 -95t-148 -34q-158 0 -269.5 121.5t-111.5 294.5q0 172 111.5 293t269.5 121q76 0 150.5 -37t134.5 -101l77 78 q-72 81 -166 126.5t-196 45.5q-135 0 -248.5 -70.5t-179.5 -192t-66 -263.5zM604 -299q55 11 55 23q0 10 -8 18q-20 -20 -47 -41z" />
<glyph unicode="&#xe8;" horiz-adv-x="933" d="M-12 471v39q0 149 58.5 275.5t158 200t215.5 73.5q93 0 174 -45.5t141 -126.5q98 -68 155.5 -192.5t57.5 -276.5v-82h-700q12 -107 63 -186q58 -37 131 -37q102 0 275 84l55 -125q25 9 47 22l60 -135q-135 -73 -279 -98q-16 -2 -55 -2q-98 0 -187 48.5t-153 133.5 q-93 69 -151.5 182.5t-65.5 247.5zM8 473q12 -206 138 -348.5t296 -142.5q38 0 54 2q139 25 254 88l-43 98q-156 -78 -265 -78q-127 1 -217.5 105.5t-101.5 261.5h702v61q0 144 -53 263t-146 187t-206 68q-83 0 -159 -42t-131.5 -112.5t-88.5 -168.5t-33 -205v-37zM125 567 q21 151 104.5 254t190.5 103q115 0 199 -101.5t98 -255.5h-592zM129 1393h248l76 -103h26l180 -241h-122l-306 241h27zM188 1372l252 -201h76l-149 201h-179zM281 588h411q-16 109 -63 182q-51 31 -107 31q-75 0 -140 -58.5t-101 -154.5z" />
<glyph unicode="&#xe9;" horiz-adv-x="933" d="M-12 471v39q0 149 58.5 275.5t158 200t215.5 73.5q93 0 174 -45.5t141 -126.5q98 -68 155.5 -192.5t57.5 -276.5v-82h-700q12 -107 63 -186q58 -37 131 -37q102 0 275 84l55 -125q25 9 47 22l60 -135q-135 -73 -279 -98q-16 -2 -55 -2q-98 0 -187 48.5t-153 133.5 q-93 69 -151.5 182.5t-65.5 247.5zM8 473q12 -206 138 -348.5t296 -142.5q38 0 54 2q139 25 254 88l-43 98q-156 -78 -265 -78q-127 1 -217.5 105.5t-101.5 261.5h702v61q0 144 -53 263t-146 187t-206 68q-83 0 -159 -42t-131.5 -112.5t-88.5 -168.5t-33 -205v-37zM125 567 q21 151 104.5 254t190.5 103q115 0 199 -101.5t98 -255.5h-592zM281 588h411q-16 109 -63 182q-51 31 -107 31q-75 0 -140 -58.5t-101 -154.5zM311 1176l183 241h243l-129 -102h232l-301 -242h-125l159 213l-137 -110h-125zM352 1196h78l250 201h-176z" />
<glyph unicode="&#xea;" horiz-adv-x="933" d="M-12 471v39q0 149 58.5 275.5t158 200t215.5 73.5q93 0 174 -45.5t141 -126.5q98 -68 155.5 -192.5t57.5 -276.5v-82h-700q12 -107 63 -186q58 -37 131 -37q102 0 275 84l55 -125q25 9 47 22l60 -135q-135 -73 -279 -98q-16 -2 -55 -2q-98 0 -187 48.5t-153 133.5 q-93 69 -151.5 182.5t-65.5 247.5zM8 473q12 -206 138 -348.5t296 -142.5q38 0 54 2q139 25 254 88l-43 98q-156 -78 -265 -78q-127 1 -217.5 105.5t-101.5 261.5h702v61q0 144 -53 263t-146 187t-206 68q-83 0 -159 -42t-131.5 -112.5t-88.5 -168.5t-33 -205v-37zM125 567 q21 151 104.5 254t190.5 103q115 0 199 -101.5t98 -255.5h-592zM156 1274l262 260l102 -102l162 -160l102 -103l-100 -98l-102 103l-64 61l-164 -164l-96 100l164 162l-4 6l-166 -165zM184 1274l68 -72l166 166l164 -166l71 70l-235 233zM281 588h411q-16 109 -63 182 q-51 31 -107 31q-75 0 -140 -58.5t-101 -154.5z" />
<glyph unicode="&#xeb;" horiz-adv-x="933" d="M-12 471v39q0 149 58.5 275.5t158 200t215.5 73.5q93 0 174 -45.5t141 -126.5q98 -68 155.5 -192.5t57.5 -276.5v-82h-700q12 -107 63 -186q58 -37 131 -37q102 0 275 84l55 -125q25 9 47 22l60 -135q-135 -73 -279 -98q-16 -2 -55 -2q-98 0 -187 48.5t-153 133.5 q-93 69 -151.5 182.5t-65.5 247.5zM8 473q12 -206 138 -348.5t296 -142.5q38 0 54 2q139 25 254 88l-43 98q-156 -78 -265 -78q-127 1 -217.5 105.5t-101.5 261.5h702v61q0 144 -53 263t-146 187t-206 68q-83 0 -159 -42t-131.5 -112.5t-88.5 -168.5t-33 -205v-37zM125 567 q21 151 104.5 254t190.5 103q115 0 199 -101.5t98 -255.5h-592zM184 1309q0 35 27.5 61.5t64.5 26.5q36 0 64.5 -26.5t28.5 -61.5q0 -11 -2 -17q2 0 6 1t6 1q36 0 64 -26.5t28 -61.5q0 -34 -28.5 -61t-63.5 -27q-36 0 -64 27t-28 61v15h-11q-36 0 -64 27t-28 61zM205 1309 q0 -27 21 -47.5t50 -20.5q28 0 50 21t22 47q0 27 -22 47t-50 20q-29 0 -50 -19.5t-21 -47.5zM281 588h411q-16 109 -63 182q-51 31 -107 31q-75 0 -140 -58.5t-101 -154.5zM451 1309q0 35 27.5 61.5t64.5 26.5t64.5 -26.5t27.5 -61.5q0 -11 -2 -17q2 0 6 1t6 1 q37 0 64.5 -26.5t27.5 -61.5q0 -34 -28 -61t-64 -27t-64 27t-28 61v15h-10q-36 0 -64 27t-28 61zM471 1309q0 -27 21.5 -47.5t50.5 -20.5t50 20.5t21 47.5q0 28 -21 47.5t-50 19.5t-50.5 -19.5t-21.5 -47.5z" />
<glyph unicode="&#xec;" horiz-adv-x="579" d="M25 1407h247l76 -102h27l180 -242h-123l-305 242h27zM84 1386l252 -200h76l-150 200h-178zM207 -20v1064h149v-102h103v-1065h-150v103h-102zM227 0h109v1024h-109v-1024z" />
<glyph unicode="&#xed;" horiz-adv-x="598" d="M35 1190l182 242h244l-129 -103h231l-301 -242h-125l160 213l-137 -110h-125zM76 1210h78l249 201h-176zM80 -20v1064h151v-102h103v-1065h-152v103h-102zM100 0h111v1024h-111v-1024z" />
<glyph unicode="&#xee;" horiz-adv-x="673" d="M23 1288l262 260l102 -102l162 -160l102 -102l-100 -99l-102 103l-64 61l-164 -164l-96 101l164 162l-4 6l-166 -166zM51 1288l68 -71l166 165l164 -165l71 69l-235 234zM184 -20v1064h150v-102h102v-1065h-149v103h-103zM205 0h108v1024h-108v-1024z" />
<glyph unicode="&#xef;" horiz-adv-x="550" d="M37 1309q0 35 27.5 61.5t64.5 26.5t64.5 -26.5t27.5 -61.5q0 -11 -2 -17q1 0 3 1t3 1v15q0 36 26.5 62t65.5 26q36 0 64.5 -26.5t28.5 -61.5q0 -11 -2 -15h12q36 0 64 -26.5t28 -61.5q0 -34 -28.5 -61t-63.5 -27q-39 0 -65.5 26.5t-26.5 61.5v15h-6q2 -4 2 -15 q0 -34 -28 -61t-65 -27q-36 0 -64 27t-28 61v15h-10q-36 0 -64 27t-28 61zM57 1309q0 -27 21.5 -47.5t50.5 -20.5t50.5 20.5t21.5 47.5q0 28 -21.5 47.5t-50.5 19.5t-50.5 -19.5t-21.5 -47.5zM145 -20v1064h150v-102h102v-1065h-149v103h-103zM166 0h108v1024h-108v-1024z M246 1309q0 -27 20.5 -47.5t50.5 -20.5q28 0 50 21t22 47q0 27 -22 47t-50 20q-30 0 -50.5 -19.5t-20.5 -47.5z" />
<glyph unicode="&#xf0;" horiz-adv-x="1001" d="M-4 973v14q0 184 131 316.5t317 132.5q108 0 202 -51t157 -138q83 -60 135 -153.5t61 -200.5q7 -100 7 -283v-53q0 -178 -25 -311q-32 -169 -165 -276t-306 -107q-104 0 -206 55.5t-175 147.5q-55 44 -102 102l135 113q43 -63 100 -105l2 2q1 -1 2 -4t2 -4 q73 -49 154 -49q117 0 202.5 74t110.5 188v-2q1 8 6.5 46t6.5 60q-92 -47 -205 -47q-111 0 -208 50.5t-159 138.5q-82 60 -130.5 149.5t-49.5 194.5zM16 973q3 -170 128.5 -290t295.5 -120q98 0 187.5 42.5t150.5 111.5v-25q0 -162 -22 -313q-27 -121 -118 -200t-216 -79 q-75 0 -144.5 39.5t-119.5 110.5l-103 -84q66 -82 160 -131t193 -49q165 0 292 102t158 264q25 133 25 307v54q0 194 -6 280q-14 173 -138.5 297.5t-294.5 124.5q-117 0 -215.5 -58t-155.5 -156.5t-57 -213.5v-14zM123 977q0 131 94 227t229 96q126 0 222 -92t96 -217 q0 -133 -94.5 -225t-229.5 -92q-126 0 -217.5 88.5t-99.5 214.5zM246 877q3 -74 43 -140q72 -43 151 -43q126 0 214.5 86.5t88.5 210.5q0 77 -41 142q-70 45 -153 45q-126 0 -214.5 -89.5t-88.5 -211.5z" />
<glyph unicode="&#xf1;" horiz-adv-x="1054" d="M61 1051h211v-70q91 94 244 94q89 0 166 -43.5t129 -118.5q79 -53 127 -143t51 -197l4 -682h-153v103h-103v682q-3 67 -30 119q-47 24 -99 24q-79 0 -144.5 -65.5t-88.5 -155.5v-707h-152v103h-102v938q0 26 -19.5 62t-40.5 57zM111 1030q10 -10 20 -39.5t10 -58.5v-918 h111v691q22 98 94 167.5t160 69.5q103 0 177 -77t75 -189v-662h112l-4 662q-5 159 -105.5 269t-244.5 110q-159 0 -264 -127v102h-141zM113 1284q99 68 217 68q47 0 86 -13q2 -1 11 -4.5t13 -5.5h-2q40 -12 72 -12q36 0 79.5 18t76.5 47l63 -125q-18 -13 -55 -32 q57 21 94 55l63 -125q-105 -72 -221 -72q-76 0 -123 27l25 33l-20 -35q-30 10 -66 10q-65 0 -158 -59l-53 123q23 16 49 28q-36 -13 -98 -49zM137 1276l39 -86q77 51 148 51q43 0 73 -12l-2 2q46 -25 113 -25q109 0 194 58l-43 86q-28 -24 -69.5 -39t-79.5 -15q-25 0 -82 17 q-65 18 -98 18q-115 0 -193 -55z" />
<glyph unicode="&#xf2;" horiz-adv-x="1079" d="M-10 506q0 150 68 277t183.5 200.5t250.5 73.5q113 0 212 -53t170 -146q100 -75 159 -195t59 -260q0 -147 -66.5 -273t-181 -199.5t-250.5 -73.5q-114 0 -214.5 53t-170.5 145q-101 75 -160 194t-59 257zM10 506q0 -142 65 -263.5t176 -192t241 -70.5q97 0 185.5 42 t152.5 112.5t101.5 167.5t37.5 204q0 144 -63.5 266t-173.5 193t-240 71q-198 0 -340 -155.5t-142 -374.5zM123 506q0 173 107.5 295.5t261.5 122.5q151 0 257.5 -122.5t106.5 -295.5q0 -112 -48.5 -207t-132.5 -151t-183 -56q-153 0 -261 121.5t-108 292.5zM205 1393h248 l75 -103h27l180 -241h-123l-305 241h27zM246 403q0 -131 69 -237q77 -53 177 -53q141 0 242.5 115.5t101.5 277.5q0 133 -72 242q-77 53 -170 53q-144 0 -246 -116.5t-102 -281.5zM264 1372l252 -201h76l-150 201h-178z" />
<glyph unicode="&#xf3;" horiz-adv-x="1079" d="M-10 506q0 150 68 277t183.5 200.5t250.5 73.5q113 0 212 -53t170 -146q100 -75 159 -195t59 -260q0 -147 -66.5 -273t-181 -199.5t-250.5 -73.5q-114 0 -214.5 53t-170.5 145q-101 75 -160 194t-59 257zM10 506q0 -142 65 -263.5t176 -192t241 -70.5q97 0 185.5 42 t152.5 112.5t101.5 167.5t37.5 204q0 144 -63.5 266t-173.5 193t-240 71q-198 0 -340 -155.5t-142 -374.5zM123 506q0 173 107.5 295.5t261.5 122.5q151 0 257.5 -122.5t106.5 -295.5q0 -112 -48.5 -207t-132.5 -151t-183 -56q-153 0 -261 121.5t-108 292.5zM246 403 q0 -131 69 -237q77 -53 177 -53q141 0 242.5 115.5t101.5 277.5q0 133 -72 242q-77 53 -170 53q-144 0 -246 -116.5t-102 -281.5zM399 1176l183 241h243l-129 -102h232l-301 -242h-125l160 213l-138 -110h-125zM440 1196h78l250 201h-176z" />
<glyph unicode="&#xf4;" horiz-adv-x="1050" d="M-25 506q0 150 68 277t183.5 200.5t250.5 73.5q113 0 212.5 -53t170.5 -146q100 -75 158.5 -195t58.5 -260q0 -147 -66 -273t-181 -199.5t-250 -73.5q-114 0 -214.5 53t-170.5 145q-101 75 -160.5 194.5t-59.5 256.5zM-4 506q0 -106 38.5 -203.5t103 -168t153.5 -112.5 t186 -42t185.5 42t152.5 112.5t101.5 167.5t37.5 204q0 144 -63.5 266t-173.5 193t-240 71t-241 -71t-175.5 -193t-64.5 -266zM109 506q0 174 107.5 296t260.5 122q151 0 258 -122.5t107 -295.5q0 -170 -107 -292t-258 -122q-153 0 -260.5 121.5t-107.5 292.5zM203 1274 l262 260l102 -102l162 -160l102 -103l-100 -98l-102 103l-64 61l-164 -164l-96 100l164 162l-4 6l-166 -165zM231 403q0 -130 70 -237q77 -53 176 -53q141 0 242.5 115.5t101.5 277.5q0 135 -71 242q-77 53 -170 53q-145 0 -247 -117t-102 -281zM231 1274l68 -72l166 166 l164 -166l71 70l-235 233z" />
<glyph unicode="&#xf5;" horiz-adv-x="1050" d="M-25 506q0 150 68 277t183.5 200.5t250.5 73.5q113 0 212.5 -53t170.5 -146q100 -75 158.5 -195t58.5 -260q0 -147 -66 -273t-181 -199.5t-250 -73.5q-114 0 -214.5 53t-170.5 145q-101 75 -160.5 194.5t-59.5 256.5zM-4 506q0 -106 38.5 -203.5t103 -168t153.5 -112.5 t186 -42t185.5 42t152.5 112.5t101.5 167.5t37.5 204q0 144 -63.5 266t-173.5 193t-240 71t-241 -71t-175.5 -193t-64.5 -266zM109 506q0 174 107.5 296t260.5 122q151 0 258 -122.5t107 -295.5q0 -170 -107 -292t-258 -122q-153 0 -260.5 121.5t-107.5 292.5zM178 1376 q93 49 178 49q41 0 125 -24q3 -1 8.5 -3t8.5 -3q64 -27 110 -27q61 0 133 45l45 -127q-4 -2 -11 -6t-11 -6q35 10 80 37l45 -127q-87 -51 -178 -51q-93 0 -203 67l41 -24q-40 14 -90 14q-58 0 -131 -45l-47 129q2 1 5 3t5 3q-12 -5 -66 -33zM203 1366l33 -88q56 35 120 35 q53 0 99 -17h-2q62 -41 155 -41q83 0 154 41l-31 88q-55 -36 -123 -36q-46 0 -116 28q-5 2 -22 7.5t-25.5 8t-24 6.5t-31.5 5.5t-33 1.5q-80 0 -153 -39zM231 403q0 -130 70 -237q77 -53 176 -53q141 0 242.5 115.5t101.5 277.5q0 135 -71 242q-77 53 -170 53 q-145 0 -247 -117t-102 -281z" />
<glyph unicode="&#xf6;" horiz-adv-x="1079" d="M-10 506q0 150 68 277t183.5 200.5t250.5 73.5q113 0 212 -53t170 -146q100 -75 159 -195t59 -260q0 -147 -66.5 -273t-181 -199.5t-250.5 -73.5q-114 0 -214.5 53t-170.5 145q-101 75 -160 194t-59 257zM10 506q0 -142 65 -263.5t176 -192t241 -70.5q97 0 185.5 42 t152.5 112.5t101.5 167.5t37.5 204q0 144 -63.5 266t-173.5 193t-240 71q-198 0 -340 -155.5t-142 -374.5zM123 506q0 173 107.5 295.5t261.5 122.5q151 0 257.5 -122.5t106.5 -295.5q0 -112 -48.5 -207t-132.5 -151t-183 -56q-153 0 -261 121.5t-108 292.5zM246 403 q0 -131 69 -237q77 -53 177 -53q141 0 242.5 115.5t101.5 277.5q0 133 -72 242q-77 53 -170 53q-144 0 -246 -116.5t-102 -281.5zM270 1309q0 35 27.5 61.5t64.5 26.5q36 0 64.5 -26.5t28.5 -61.5q0 -11 -2 -17q2 0 6 1t6 1q36 0 64 -26.5t28 -61.5q0 -34 -28.5 -61 t-63.5 -27q-36 0 -64 27t-28 61v15h-11q-36 0 -64 27t-28 61zM291 1309q0 -27 21 -47.5t50 -20.5q28 0 50 21t22 47q0 27 -22 47t-50 20q-29 0 -50 -19.5t-21 -47.5zM537 1309q0 35 27.5 61.5t64.5 26.5t64.5 -26.5t27.5 -61.5q0 -11 -2 -17q2 0 6 1t6 1q37 0 64.5 -26.5 t27.5 -61.5q0 -34 -28 -61t-64 -27t-64 27t-28 61v15h-10q-36 0 -64 27t-28 61zM557 1309q0 -27 21.5 -47.5t50.5 -20.5t50 20.5t21 47.5q0 28 -21 47.5t-50 19.5t-50.5 -19.5t-21.5 -47.5z" />
<glyph unicode="&#xf7;" horiz-adv-x="907" d="M25 539v151h755v-102h103v-152h-756v103h-102zM45 559h715v111h-715v-111zM285 258v197h196v-103h103v-196h-197v102h-102zM285 750v196h196v-102h103v-197h-197v103h-102zM305 279h156v155h-156v-155zM305 770h156v156h-156v-156z" />
<glyph unicode="&#xf8;" horiz-adv-x="1208" d="M53 506q0 150 68 277t183.5 200.5t250.5 73.5q105 0 204 -52t179 -145l-4 -4q49 -34 106 -98l-34 -31q1 -1 1 -2t1 -2l34 29q113 -176 113 -349q0 -147 -66.5 -273t-181 -199.5t-250.5 -73.5q-112 0 -213.5 54t-177.5 152q-60 46 -112 117l34 33q0 2 -1 4.5t-1 3.5 l-41 -35q-92 171 -92 320zM74 506q0 -144 78 -287l84 74q-50 95 -50 213q0 173 107.5 295.5t261.5 122.5q72 0 141.5 -36t124.5 -100l86 74q-71 82 -162 128t-190 46q-130 0 -241 -71t-175.5 -193t-64.5 -266zM180 178q70 -93 168 -145.5t207 -52.5q97 0 185.5 42 t152.5 112.5t101.5 167.5t37.5 204q0 164 -96 317l-88 -73q72 -118 72 -244q0 -170 -107 -292t-258 -122q-83 0 -160 42.5t-133 117.5zM309 403q0 -108 56 -217l-5 -2q93 -71 195 -71q141 0 242.5 115.5t101.5 277.5q0 112 -74 235q-82 60 -168 60q-144 0 -246 -116.5 t-102 -281.5z" />
<glyph unicode="&#xf9;" horiz-adv-x="921" d="M-2 358v682h152v-102h102v-668l2 -10q3 -60 33 -119q47 -24 98 -24q78 0 142.5 66.5t84.5 154.5v706h152v-102h102v-934q0 -29 20 -70t40 -61h-211v76q-105 -94 -242 -94q-89 0 -165 42.5t-128 116.5q-78 54 -125.5 141.5t-50.5 192.5zM18 367q5 -5 7 -9 q5 -157 104.5 -266.5t241.5 -109.5q152 0 262 127v-109h141q-10 10 -20.5 44.5t-10.5 66.5v913h-110v-690q-18 -97 -88 -167.5t-160 -70.5q-100 0 -174.5 79t-79.5 187l-2 11v647h-111v-653zM125 1393h248l76 -103h26l180 -241h-123l-305 241h27zM184 1372l252 -201h76 l-150 201h-178z" />
<glyph unicode="&#xfa;" horiz-adv-x="921" d="M-2 358v682h152v-102h102v-668l2 -10q3 -60 33 -119q47 -24 98 -24q78 0 142.5 66.5t84.5 154.5v706h152v-102h102v-934q0 -29 20 -70t40 -61h-211v76q-105 -94 -242 -94q-89 0 -165 42.5t-128 116.5q-78 54 -125.5 141.5t-50.5 192.5zM18 367q5 -5 7 -9 q5 -157 104.5 -266.5t241.5 -109.5q152 0 262 127v-109h141q-10 10 -20.5 44.5t-10.5 66.5v913h-110v-690q-18 -97 -88 -167.5t-160 -70.5q-100 0 -174.5 79t-79.5 187l-2 11v647h-111v-653zM287 1176l182 241h244l-129 -102h231l-301 -242h-125l160 213l-137 -110h-125z M328 1196h78l249 201h-176z" />
<glyph unicode="&#xfb;" horiz-adv-x="921" d="M-2 358v682h152v-102h102v-668l2 -10q3 -60 33 -119q47 -24 98 -24q78 0 142.5 66.5t84.5 154.5v706h152v-102h102v-934q0 -29 20 -70t40 -61h-211v76q-105 -94 -242 -94q-89 0 -165 42.5t-128 116.5q-78 54 -125.5 141.5t-50.5 192.5zM18 367q5 -5 7 -9 q5 -157 104.5 -266.5t241.5 -109.5q152 0 262 127v-109h141q-10 10 -20.5 44.5t-10.5 66.5v913h-110v-690q-18 -97 -88 -167.5t-160 -70.5q-100 0 -174.5 79t-79.5 187l-2 11v647h-111v-653zM147 1274l263 260l102 -102l162 -160l102 -103l-100 -98l-103 103l-63 61 l-164 -164l-96 100l164 162l-4 6l-166 -165zM176 1274l68 -72l166 166l163 -166l72 70l-235 233z" />
<glyph unicode="&#xfc;" horiz-adv-x="921" d="M-2 358v682h152v-102h102v-668l2 -10q3 -60 33 -119q47 -24 98 -24q78 0 142.5 66.5t84.5 154.5v706h152v-102h102v-934q0 -29 20 -70t40 -61h-211v76q-105 -94 -242 -94q-89 0 -165 42.5t-128 116.5q-78 54 -125.5 141.5t-50.5 192.5zM18 367q5 -5 7 -9 q5 -157 104.5 -266.5t241.5 -109.5q152 0 262 127v-109h141q-10 10 -20.5 44.5t-10.5 66.5v913h-110v-690q-18 -97 -88 -167.5t-160 -70.5q-100 0 -174.5 79t-79.5 187l-2 11v647h-111v-653zM176 1309q0 35 27.5 61.5t64.5 26.5q36 0 64 -26.5t28 -61.5q0 -11 -2 -17 q2 0 6.5 1t6.5 1q36 0 64 -26.5t28 -61.5q0 -34 -28.5 -61t-63.5 -27q-36 0 -64 27t-28 61v15h-11q-36 0 -64 27t-28 61zM197 1309q0 -27 21 -47.5t50 -20.5q28 0 50 21t22 47q0 27 -22 47t-50 20q-29 0 -50 -19.5t-21 -47.5zM442 1309q0 35 28 61.5t65 26.5t64.5 -26.5 t27.5 -61.5q0 -11 -2 -17q2 0 6 1t6 1q37 0 64.5 -26.5t27.5 -61.5q0 -34 -28 -61t-64 -27t-64 27t-28 61v15h-10q-37 0 -65 27t-28 61zM463 1309q0 -27 21.5 -47.5t50.5 -20.5t50 20.5t21 47.5q0 28 -21 47.5t-50 19.5t-50.5 -19.5t-21.5 -47.5z" />
<glyph unicode="&#xfd;" horiz-adv-x="1095" d="M23 1057h163l41 -103h62l239 -604q138 354 168 428q55 141 111 279h164l-43 -103h145l-399 -985q-6 -16 -17.5 -47t-17.5 -47q-4 -12 -24.5 -61.5t-28.5 -75.5q-44 -119 -143 -189.5t-205 -70.5q-49 0 -111 16l10 86h-2q-44 0 -110 17l22 176q41 -41 92 -41 q62 0 119.5 43.5t87.5 120.5q6 16 19.5 47.5t19.5 48.5q24 63 35 88q-9 23 -29 72t-29 73q-302 742 -339 832zM47 -387q43 -12 88 -12q101 0 195 66t135 179q16 45 48.5 129.5t39.5 104.5l-2 -2l389 958h-119q-236 -597 -323 -815l-326 815h-119q71 -172 389 -956 q-13 -33 -38 -96.5t-39 -96.5q-31 -83 -94 -129.5t-132 -46.5q-59 0 -76 17zM438 1176l183 241h243l-129 -102h232l-301 -242h-125l159 213l-137 -110h-125zM479 1196h78l250 201h-176z" />
<glyph unicode="&#xfe;" horiz-adv-x="1120" d="M45 -412v1839h154v-102h102v-281q80 17 158 17q119 -3 223 -58t176 -149q101 -74 159 -191t58 -251q0 -113 -40.5 -215.5t-109 -176.5t-163.5 -117.5t-201 -43.5q-131 0 -262 57v-430h-152v102h-102zM66 -391h110v442q154 -69 283 -69q205 0 349 155.5t144 376.5 q0 215 -143.5 368t-349.5 158q-160 0 -281 -67v434h-112v-1798zM172 829q15 39 98.5 68t188.5 29q101 0 189.5 -57t140 -152.5t51.5 -204.5q0 -170 -112.5 -292.5t-268.5 -125.5q-78 2 -143.5 17t-103 39t-34.5 51zM295 723l6 -590q64 -15 158 -18q148 3 254 119t106 278 q0 121 -74 233q-91 58 -184 58q-96 0 -171.5 -23.5t-94.5 -56.5z" />
<glyph unicode="&#xff;" horiz-adv-x="1095" d="M23 1057h163l41 -103h62l239 -604q138 354 168 428q55 141 111 279h164l-43 -103h145l-399 -985q-6 -16 -17.5 -47t-17.5 -47q-4 -12 -24.5 -61.5t-28.5 -75.5q-44 -119 -143 -189.5t-205 -70.5q-49 0 -111 16l10 86h-2q-44 0 -110 17l22 176q41 -41 92 -41 q62 0 119.5 43.5t87.5 120.5q6 16 19.5 47.5t19.5 48.5q24 63 35 88q-9 23 -29 72t-29 73q-302 742 -339 832zM47 -387q43 -12 88 -12q101 0 195 66t135 179q16 45 48.5 129.5t39.5 104.5l-2 -2l389 958h-119q-236 -597 -323 -815l-326 815h-119q71 -172 389 -956 q-13 -33 -38 -96.5t-39 -96.5q-31 -83 -94 -129.5t-132 -46.5q-59 0 -76 17zM307 1309q0 35 27.5 61.5t64.5 26.5q36 0 64.5 -26.5t28.5 -61.5q0 -8 -3 -17q2 0 6.5 1t6.5 1q36 0 64 -26.5t28 -61.5q0 -34 -28.5 -61t-63.5 -27q-36 0 -64 27t-28 61v15h-11q-36 0 -64 27 t-28 61zM328 1309q0 -27 21 -47.5t50 -20.5q28 0 50 21t22 47q0 27 -22 47t-50 20q-29 0 -50 -19.5t-21 -47.5zM573 1309q0 35 28 61.5t65 26.5t64.5 -26.5t27.5 -61.5q0 -11 -2 -17q2 0 6 1t6 1q37 0 64.5 -26.5t27.5 -61.5q0 -34 -28 -61t-64 -27t-64 27t-28 61v15h-10 q-37 0 -65 27t-28 61zM594 1309q0 -27 21.5 -47.5t50.5 -20.5t50 20.5t21 47.5q0 28 -21 47.5t-50 19.5t-50.5 -19.5t-21.5 -47.5z" />
<glyph unicode="&#x152;" horiz-adv-x="2285" d="M68 707q0 151 52.5 287.5t141 235t211.5 156.5t258 58q313 0 488 -223q6 -6 26 -21v236h871v-103h102v-149h-717v-355h510v-102h103v-154h-613v-440h615v-102h102v-154h-870v103h-103v32q-180 -153 -411 -153q-141 0 -269 63.5t-221 177.5q-128 102 -202 260.5t-74 346.5 zM88 707q0 -151 52.5 -286.5t140 -231t205.5 -151.5t245 -56q267 0 449 198q38 41 86 113v-293h829v113h-717v583h613v113h-613v498h717v108h-829v-299q-88 149 -225 228t-310 79q-174 0 -322 -95.5t-234.5 -260.5t-86.5 -360zM203 707q0 165 70.5 303.5t192 218.5t265.5 80 q107 0 202.5 -41.5t164.5 -118.5q150 -157 168 -391v-105q-14 -153 -86.5 -280t-191 -202t-257.5 -75q-146 0 -267.5 81.5t-191 221.5t-69.5 308zM326 604q0 -228 127 -393q127 -94 278 -94q131 0 244 73.5t183.5 196t86.5 268.5v101q-15 196 -125 334q-126 96 -286 96 q-138 0 -255 -77.5t-185 -211.5t-68 -293z" />
<glyph unicode="&#x153;" horiz-adv-x="1947" d="M63 506q0 150 68 277t183.5 200.5t250.5 73.5q111 0 211 -55t172 -148q24 -18 45 -39q57 115 151.5 179.5t209.5 64.5q94 0 175.5 -45.5t141.5 -126.5q98 -70 155.5 -194t57.5 -275v-82h-702q12 -107 63 -186q58 -37 131 -37q102 0 275 84l55 -125q6 3 22.5 10.5 t24.5 11.5l62 -135q-123 -68 -281 -98q-16 -2 -55 -2q-100 0 -187 47t-149 131q-30 21 -66 57q-71 -108 -179 -172.5t-230 -64.5q-114 0 -214.5 53t-170.5 145q-101 75 -160.5 194.5t-59.5 256.5zM84 506q0 -106 38.5 -203.5t103 -168t153.5 -112.5t186 -42q135 0 250 79 t176 207q55 -128 158 -206t227 -78q38 0 54 2q142 25 256 88l-46 98q-156 -78 -264 -78q-127 1 -217.5 105.5t-101.5 261.5h704v61q0 219 -117.5 368.5t-289.5 149.5q-114 0 -212.5 -79.5t-152.5 -206.5q-61 127 -175.5 205.5t-248.5 78.5q-130 0 -241 -71t-175.5 -193 t-64.5 -266zM195 506q0 173 108 295.5t262 122.5q150 0 256.5 -122.5t106.5 -295.5q0 -170 -107 -292t-256 -122q-153 0 -261.5 121.5t-108.5 292.5zM317 403q0 -132 70 -235q80 -55 178 -55q141 0 241.5 115t100.5 278q0 137 -71 244q-79 51 -168 51q-145 0 -248 -117 t-103 -281zM1059 567q21 151 104.5 254t190.5 103q115 0 199 -101.5t98 -255.5h-592zM1214 588h412q-16 109 -63 182q-51 31 -107 31q-75 0 -140.5 -59t-101.5 -154z" />
<glyph unicode="&#x178;" horiz-adv-x="1394" d="M-33 1436h201l74 -103h28l387 -532q18 26 56 76l57 75q132 181 358 484h199l-78 -103h181l-603 -805v-651h-155v103h-103v651q-18 24 -77.5 102.5t-90.5 120.5q-69 92 -221.5 297t-212.5 285zM8 1415q104 -141 316 -423.5t266 -354.5v-637h115v637l581 778h-147 q-49 -66 -494 -667l-487 667h-150zM418 1520q0 35 27.5 61.5t64.5 26.5q36 0 64 -26.5t28 -61.5q0 -11 -2 -17q2 0 6 1t6 1q36 0 64.5 -26.5t28.5 -61.5q0 -34 -29 -61t-64 -27q-36 0 -64 27t-28 61v15h-10q-36 0 -64 27t-28 61zM438 1520q0 -27 21.5 -47.5t50.5 -20.5 q28 0 50 21t22 47q0 27 -22 47t-50 20q-29 0 -50.5 -19.5t-21.5 -47.5zM684 1520q0 35 27.5 61.5t64.5 26.5t64.5 -26.5t27.5 -61.5q0 -11 -2 -17q2 0 6.5 1t6.5 1q37 0 64.5 -26.5t27.5 -61.5q0 -34 -28 -61t-64 -27q-37 0 -65 27t-28 61v15h-10q-36 0 -64 27t-28 61z M705 1520q0 -27 21 -47.5t50 -20.5t50.5 20.5t21.5 47.5q0 28 -21.5 47.5t-50.5 19.5t-50 -19.5t-21 -47.5z" />
<glyph unicode="&#x2c6;" horiz-adv-x="692" d="M31 1274l262 260l102 -102l162 -160l102 -103l-100 -98l-102 103l-64 61l-164 -164l-96 100l164 162l-4 6l-166 -165zM59 1274l68 -72l166 166l164 -166l71 70l-235 233z" />
<glyph unicode="&#x2dc;" horiz-adv-x="819" d="M53 1335q93 49 178 49q41 0 125 -24q3 -1 8.5 -3t8.5 -3q64 -27 110 -27q61 0 133 45l46 -127q-4 -2 -11.5 -6t-11.5 -6q35 10 80 37l45 -127q-87 -51 -178 -51q-93 0 -203 67l41 -24q-40 14 -90 14q-58 0 -131 -45l-47 129q2 1 5 3t5 3q-12 -5 -66 -33zM78 1325l33 -88 q56 35 120 35q53 0 99 -17h-2q62 -41 155 -41q83 0 154 41l-31 88q-55 -36 -123 -36q-46 0 -116 28q-5 2 -22 7.5t-25.5 8t-24 6.5t-31.5 5.5t-33 1.5q-80 0 -153 -39z" />
<glyph unicode="&#x2000;" horiz-adv-x="904" />
<glyph unicode="&#x2001;" horiz-adv-x="1808" />
<glyph unicode="&#x2002;" horiz-adv-x="904" />
<glyph unicode="&#x2003;" horiz-adv-x="1808" />
<glyph unicode="&#x2004;" horiz-adv-x="602" />
<glyph unicode="&#x2005;" horiz-adv-x="452" />
<glyph unicode="&#x2006;" horiz-adv-x="301" />
<glyph unicode="&#x2007;" horiz-adv-x="301" />
<glyph unicode="&#x2008;" horiz-adv-x="226" />
<glyph unicode="&#x2009;" horiz-adv-x="361" />
<glyph unicode="&#x200a;" horiz-adv-x="100" />
<glyph unicode="&#x2010;" d="M72 524v152h755v-103h103v-151h-756v102h-102zM92 545h715v110h-715v-110z" />
<glyph unicode="&#x2011;" d="M72 524v152h755v-103h103v-151h-756v102h-102zM92 545h715v110h-715v-110z" />
<glyph unicode="&#x2012;" d="M72 524v152h755v-103h103v-151h-756v102h-102zM92 545h715v110h-715v-110z" />
<glyph unicode="&#x2013;" d="M72 524v152h755v-103h103v-151h-756v102h-102zM92 545h715v110h-715v-110z" />
<glyph unicode="&#x2014;" horiz-adv-x="1234" d="M74 524v152h983v-103h102v-151h-983v102h-102zM94 545h942v110h-942v-110z" />
<glyph unicode="&#x2018;" horiz-adv-x="387" d="M31 1196l110 238l70 -33l-21 -166l5 -10l49 106l69 -33l-20 -165l61 -134l-147 -67l-57 123l-46 -21zM53 1196l62 -135l110 51l-55 121l18 156l-36 18z" />
<glyph unicode="&#x2019;" horiz-adv-x="409" d="M35 1114l69 148l-16 151l164 12l12 -110l90 8l19 -170l-183 -195l-53 54l70 147l-4 25l-115 -123zM59 1118l29 -28l162 172l-17 143l-122 -10l14 -138z" />
<glyph unicode="&#x201a;" horiz-adv-x="421" d="M35 -111l84 136v151h164v-102h102v-178l-205 -177l-43 68l84 135v23l-143 -123zM59 -111l23 -34l180 153v148h-123v-138z" />
<glyph unicode="&#x201c;" horiz-adv-x="561" d="M41 1255l18 170l144 -12l2 12l164 -12l-13 -94l115 -8l-18 -152q9 -19 26.5 -55.5t26.5 -56.5q1 -3 7 -18.5t7 -18.5l-49 -52l-100 105l-2 -2l-33 33q4 -8 12 -23.5t12 -23.5q1 -3 7.5 -18.5t7.5 -18.5l-49 -52l-101 105l-2 -2zM61 1262l162 -172l27 28q-7 15 -31 64 t-35 75l17 138l-123 10zM207 1262l162 -172l26 28q-4 8 -28.5 60t-36.5 79l16 138l-123 10z" />
<glyph unicode="&#x201d;" horiz-adv-x="577" d="M47 1114l70 148l-19 151l164 12v-12l146 12l12 -110l90 8l18 -170l-182 -195l-51 54l45 94l-139 -148l-51 54l47 98l-4 4l24 53l-2 19l-117 -125zM72 1118l26 -28l162 172l-16 143l-123 -10l16 -138zM217 1118l27 -28l162 172l-17 143l-123 -10l17 -138z" />
<glyph unicode="&#x201e;" horiz-adv-x="587" d="M47 -109l82 138l-4 151h166v-2h147v-102h103v-178l-203 -179l-41 68l39 68l-146 -131l-40 65l51 88l-6 12l34 62v2l-141 -127zM72 -109l22 -32l176 155v146h-125l5 -137zM219 -111l21 -34l178 155v148h-121v-138z" />
<glyph unicode="&#x2022;" horiz-adv-x="512" d="M45 778q0 63 48.5 111.5t111.5 48.5q48 0 89.5 -32t59.5 -79q48 -18 80.5 -60t32.5 -91q0 -59 -49.5 -106.5t-110.5 -47.5q-51 0 -93 32t-60 79q-46 17 -77.5 58.5t-31.5 86.5zM66 778q0 -51 42 -92t97 -41q54 0 96.5 41t42.5 92q0 55 -42.5 97.5t-96.5 42.5 q-55 0 -97 -42t-42 -98z" />
<glyph unicode="&#x2026;" horiz-adv-x="1021" d="M72 -20v196h196v-102h92v102h197v-102h92v102h197v-102h102v-197h-196v103h-93v-103h-196v103h-92v-103h-197v103h-102zM92 0h156v156h-156v-156zM381 0h156v156h-156v-156zM670 0h155v156h-155v-156z" />
<glyph unicode="&#x202f;" horiz-adv-x="361" />
<glyph unicode="&#x2039;" horiz-adv-x="808" d="M31 508l534 539l109 -107l-2 -2l104 -100l-428 -432q3 -3 9.5 -10.5t9.5 -10.5q36 -37 77 -74q55 -55 230 -225l-2 -2q18 -17 52.5 -50.5t51.5 -49.5l-106 -111l-103 102l-434 431zM59 508l508 -504l78 82q-68 67 -213.5 210.5t-214.5 211.5l428 432l-80 78z" />
<glyph unicode="&#x203a;" horiz-adv-x="808" d="M31 86l430 422l-150 149q-89 92 -178 181l-102 102l110 107l101 -105l2 2l532 -538l-534 -533l-103 104v-2zM59 86l80 -82l506 504l-504 510l-82 -78q291 -291 430 -432z" />
<glyph unicode="&#x205f;" horiz-adv-x="452" />
<glyph unicode="&#x20ac;" horiz-adv-x="1609" d="M43 500v153h195v19h-93v102h-102v154h227q69 224 250.5 365t407.5 141q148 0 285 -68.5t249 -187.5l-4 -4q49 -41 107 -99l-109 -110q-198 211 -426 211q-131 0 -248 -67.5t-192 -180.5h512v-103h102v-153h-706q-1 -3 -2 -9.5t-2 -9.5h608v-102h102v-154h-674 q28 -85 93 -170q138 -110 305 -110q230 0 424 223l96 -109l6 7l111 -123q-112 -119 -249.5 -187.5t-285.5 -68.5q-157 0 -292.5 66t-231.5 184q-139 112 -211 288h-150v103h-102zM63 520h216q55 -236 234.5 -387t414.5 -151q144 0 273.5 63t232.5 172l-80 90 q-185 -211 -426 -211q-179 0 -327.5 121t-201.5 303h682v113h-706q0 6 -1 12.5t-1 13.5q-2 12 -2 35q0 60 8 101h702v112h-675q59 174 202 282.5t320 108.5q240 0 426 -202l80 82q-103 109 -232.5 172t-273.5 63q-223 0 -399.5 -141t-241.5 -365h-224v-112h201v-4 q-6 -81 -6 -97q0 -27 2 -39q0 -3 1 -11t1 -11h-199v-113z" />
<glyph unicode="&#x2122;" horiz-adv-x="960" d="M63 1282v127h443l59 -102h43l8 -15q2 3 10 16t13 21q8 12 20 33q8 12 29 47h105v-102h102v-473h-129v102h-102v29h-2l-29 47v-178h-131v102h-84v-102h-133v102h-103v244h-16v102h-103zM84 1303h119v-347h92v347h117v86h-328v-86zM420 956h90v238l61 -107h50q47 82 63 107 v-238h88v433h-72q-6 -10 -21 -34l-20 -32q-29 -47 -61 -109l-104 175h-74v-433z" />
<glyph unicode="&#x25fc;" horiz-adv-x="1044" d="M0 0v1044h1044v-1044h-1044z" />
<glyph unicode="&#xfb01;" horiz-adv-x="808" d="M47 868v154h148l-2 14v27q8 152 103 261.5t222 109.5q51 0 141 -11l-26 -92q39 0 129 -10l-45 -154q-57 13 -96 13q-56 -3 -100.5 -46.5t-63.5 -111.5h147v-102h103v-1043h-150v103h-102v786h-9v-889h-147v103h-102v786h-47v102h-103zM68 889h149v-889h107v889h151v-889 h109v1001h-260v39q0 107 56 183.5t138 79.5q43 0 82 -9l33 113q-49 6 -115 6q-119 0 -208 -103.5t-97 -246.5v-25q2 -25 2 -37h-147v-112z" />
<glyph unicode="&#xfb02;" horiz-adv-x="819" d="M55 868v154h150l-2 14v27q7 155 100.5 261.5t224.5 109.5h131v-103h103v-1454h-156v103h-102v786h-47v-889h-148v103h-102v786h-49v102h-103zM76 889h151v-889h107v889h190v-889h115v1413h-111q-122 -3 -210 -103.5t-95 -246.5v-25q2 -25 2 -37h-149v-112zM334 1001v39 q0 105 55 181t135 82v-302h-190zM467 1022h37v78q-26 -37 -37 -78zM524 1303h4h11l-15 14v-14z" />
</font>
</defs>
</svg>
