  0
SECTION
  2
HEADER
  9
$ACADVER
  1
AC1014
  9
$HANDSEED
  5
FFFF
  9
$MEASUREMENT
 70
     1
  0
ENDSEC
  0
SECTION
  2
TABLES
  0
TABLE
  2
VPORT
  5
8
330
0
100
AcDbSymbolTable
 70
     4
  0
VPORT
  5
2E
330
8
100
AcDbSymbolTableRecord
100
AcDbViewportTableRecord
  2
*ACTIVE
 70
     0
 10
0.0
 20
0.0
 11
1.0
 21
1.0
 12
210.0
 22
148.5
 13
0.0
 23
0.0
 14
10.0
 24
10.0
 15
10.0
 25
10.0
 16
0.0
 26
0.0
 36
1.0
 17
0.0
 27
0.0
 37
0.0
 40
341.0
 41
1.24
 42
50.0
 43
0.0
 44
0.0
 50
0.0
 51
0.0
 71
     0
 72
   100
 73
     1
 74
     3
 75
     0
 76
     0
 77
     0
 78
     0
  0
ENDTAB
  0
TABLE
  2
LTYPE
  5
5
330
0
100
AcDbSymbolTable
 70
     1
  0
LTYPE
  5
14
330
5
100
AcDbSymbolTableRecord
100
AcDbLinetypeTableRecord
  2
BYBLOCK
 70
     0
  3

 72
    65
 73
     0
 40
0.0
  0
LTYPE
  5
15
330
5
100
AcDbSymbolTableRecord
100
AcDbLinetypeTableRecord
  2
BYLAYER
 70
     0
  3

 72
    65
 73
     0
 40
0.0
  0
LTYPE
  5
16
330
5
100
AcDbSymbolTableRecord
100
AcDbLinetypeTableRecord
  2
CONTINUOUS
 70
     0
  3
Solid line
 72
    65
 73
     0
 40
0.0
  0
ENDTAB
  0
TABLE
  2
LAYER
  5
2
100
AcDbSymbolTable
 70
6
  0
LAYER
  5
50
100
AcDbSymbolTableRecord
100
AcDbLayerTableRecord
  2
0
 70
0
  6
CONTINUOUS
  0
LAYER
  5
51
100
AcDbSymbolTableRecord
100
AcDbLayerTableRecord
  2
Fond
 70
0
  6
CONTINUOUS
  0
LAYER
  5
52
100
AcDbSymbolTableRecord
100
AcDbLayerTableRecord
  2
Autre
 70
0
  6
CONTINUOUS
  0
LAYER
  5
53
100
AcDbSymbolTableRecord
100
AcDbLayerTableRecord
  2
Routes
 70
0
  6
CONTINUOUS
  0
LAYER
  5
54
100
AcDbSymbolTableRecord
100
AcDbLayerTableRecord
  2
Arrets
 70
0
  6
CONTINUOUS
  0
LAYER
  5
55
100
AcDbSymbolTableRecord
100
AcDbLayerTableRecord
  2
Trou_arret
 70
0
  6
CONTINUOUS
  0
ENDTAB
  0
TABLE
  2
STYLE
  5
3
330
0
100
AcDbSymbolTable
 70
     1
  0
STYLE
  5
11
330
3
100
AcDbSymbolTableRecord
100
AcDbTextStyleTableRecord
  2
STANDARD
 70
     0
 40
0.0
 41
1.0
 50
0.0
 71
     0
 42
2.5
  3
txt
  4

  0
ENDTAB
  0
TABLE
  2
VIEW
  5
6
330
0
100
AcDbSymbolTable
 70
     0
  0
ENDTAB
  0
TABLE
  2
UCS
  5
7
330
0
100
AcDbSymbolTable
 70
     0
  0
ENDTAB
  0
TABLE
  2
APPID
  5
9
330
0
100
AcDbSymbolTable
 70
     2
  0
APPID
  5
12
330
9
100
AcDbSymbolTableRecord
100
AcDbRegAppTableRecord
  2
ACAD
 70
     0
  0
ENDTAB
  0
TABLE
  2
DIMSTYLE
  5
A
330
0
100
AcDbSymbolTable
 70
     1
  0
DIMSTYLE
105
27
330
A
100
AcDbSymbolTableRecord
100
AcDbDimStyleTableRecord
  2
ISO-25
 70
     0
  3

  4

  5

  6

  7

 40
1.0
 41
2.5
 42
0.625
 43
3.75
 44
1.25
 45
0.0
 46
0.0
 47
0.0
 48
0.0
140
2.5
141
2.5
142
0.0
143
0.03937007874016
144
1.0
145
0.0
146
1.0
147
0.625
 71
     0
 72
     0
 73
     0
 74
     0
 75
     0
 76
     0
 77
     1
 78
     8
170
     0
171
     3
172
     1
173
     0
174
     0
175
     0
176
     0
177
     0
178
     0
270
     2
271
     2
272
     2
273
     2
274
     3
340
11
275
     0
280
     0
281
     0
282
     0
283
     0
284
     8
285
     0
286
     0
287
     3
288
     0
  0
ENDTAB
  0
TABLE
  2
BLOCK_RECORD
  5
1
330
0
100
AcDbSymbolTable
 70
     1
  0
BLOCK_RECORD
  5
1F
330
1
100
AcDbSymbolTableRecord
100
AcDbBlockTableRecord
  2
*MODEL_SPACE
  0
BLOCK_RECORD
  5
1B
330
1
100
AcDbSymbolTableRecord
100
AcDbBlockTableRecord
  2
*PAPER_SPACE
  0
ENDTAB
  0
ENDSEC
  0
SECTION
  2
BLOCKS
  0
BLOCK
  5
20
330
1F
100
AcDbEntity
  8
0
100
AcDbBlockBegin
  2
*MODEL_SPACE
 70
     0
 10
0.0
 20
0.0
 30
0.0
  3
*MODEL_SPACE
  1

  0
ENDBLK
  5
21
330
1F
100
AcDbEntity
  8
0
100
AcDbBlockEnd
  0
BLOCK
  5
1C
330
1B
100
AcDbEntity
 67
     1
  8
0
100
AcDbBlockBegin
  2
*PAPER_SPACE
  1

  0
ENDBLK
  5
1D
330
1B
100
AcDbEntity
 67
     1
  8
0
100
AcDbBlockEnd
  0
ENDSEC
  0
SECTION
  2
ENTITIES
  0
LWPOLYLINE
  5
100
100
AcDbEntity
  8
Fond
 62
7
100
AcDbPolyline
 90
5
 70
1
 10
-26.350915
 20
514.415707
 30
0.0
 10
365.475773
 20
514.415707
 30
0.0
 10
365.475773
 20
-35.516421
 30
0.0
 10
-26.350915
 20
-35.516421
 30
0.0
 10
-26.350915
 20
514.415707
 30
0.0
  0
LWPOLYLINE
  5
101
100
AcDbEntity
  8
Trou_arret
 62
7
100
AcDbPolyline
 90
11
 70
1
 10
190.471304
 20
382.088280
 30
0.0
 10
187.744752
 20
387.755392
 30
0.0
 10
181.481952
 20
388.619424
 30
0.0
 10
186.029152
 20
392.963760
 30
0.0
 10
184.915576
 20
399.187032
 30
0.0
 10
190.452448
 20
396.204872
 30
0.0
 10
196.027024
 20
399.187040
 30
0.0
 10
194.901800
 20
392.999616
 30
0.0
 10
199.460648
 20
388.619424
 30
0.0
 10
193.228352
 20
387.777560
 30
0.0
 10
190.471304
 20
382.088280
 30
0.0
  0
LWPOLYLINE
  5
102
100
AcDbEntity
  8
Trou_arret
 62
7
100
AcDbPolyline
 90
4
 70
1
 10
175.871904
 20
406.009370
 30
0.0
 10
155.772640
 20
399.183184
 30
0.0
 10
156.216728
 20
414.032634
 30
0.0
 10
175.871904
 20
406.009370
 30
0.0
  0
LWPOLYLINE
  5
103
100
AcDbEntity
  8
Trou_arret
 62
7
100
AcDbPolyline
 90
4
 70
1
 10
157.108448
 20
438.281442
 30
0.0
 10
177.141056
 20
445.300833
 30
0.0
 10
176.839920
 20
430.447793
 30
0.0
 10
157.108448
 20
438.281442
 30
0.0
  0
LWPOLYLINE
  5
104
100
AcDbEntity
  8
Trou_arret
 62
1
100
AcDbPolyline
 90
5
 70
1
 10
160.349081
 20
426.948524
 30
0.0
 10
175.563210
 20
426.620954
 30
0.0
 10
175.386882
 20
417.897534
 30
0.0
 10
160.172754
 20
418.225104
 30
0.0
 10
160.349081
 20
426.948524
 30
0.0
  0
LWPOLYLINE
  5
105
100
AcDbEntity
  8
Trou_arret
 62
7
100
AcDbPolyline
 90
4
 70
1
 10
70.694679
 20
231.741806
 30
0.0
 10
60.965921
 20
250.607874
 30
0.0
 10
75.717279
 20
252.368783
 30
0.0
 10
70.694679
 20
231.741806
 30
0.0
  0
LWPOLYLINE
  5
106
100
AcDbEntity
  8
Trou_arret
 62
7
100
AcDbPolyline
 90
4
 70
1
 10
99.830581
 20
255.079611
 30
0.0
 10
109.740534
 20
236.308088
 30
0.0
 10
95.006805
 20
234.405273
 30
0.0
 10
99.830581
 20
255.079611
 30
0.0
  0
LWPOLYLINE
  5
107
100
AcDbEntity
  8
Trou_arret
 62
1
100
AcDbPolyline
 90
5
 70
1
 10
89.102872
 20
250.195657
 30
0.0
 10
91.033044
 20
235.100908
 30
0.0
 10
82.379776
 20
233.982826
 30
0.0
 10
80.449604
 20
249.077575
 30
0.0
 10
89.102872
 20
250.195657
 30
0.0
  0
LWPOLYLINE
  5
108
100
AcDbEntity
  8
Trou_arret
 62
7
100
AcDbPolyline
 90
4
 70
1
 10
78.957825
 20
154.834910
 30
0.0
 10
69.777412
 20
173.973803
 30
0.0
 10
84.573432
 20
175.308396
 30
0.0
 10
78.957825
 20
154.834910
 30
0.0
  0
LWPOLYLINE
  5
109
100
AcDbEntity
  8
Trou_arret
 62
7
100
AcDbPolyline
 90
4
 70
1
 10
108.754905
 20
177.322416
 30
0.0
 10
118.119166
 20
158.272801
 30
0.0
 10
103.336673
 20
156.795852
 30
0.0
 10
108.754905
 20
177.322416
 30
0.0
  0
LWPOLYLINE
  5
10a
100
AcDbEntity
  8
Trou_arret
 62
1
100
AcDbPolyline
 90
5
 70
1
 10
97.890757
 20
172.749994
 30
0.0
 10
99.384635
 20
157.605843
 30
0.0
 10
90.702713
 20
156.737877
 30
0.0
 10
89.208834
 20
171.882029
 30
0.0
 10
97.890757
 20
172.749994
 30
0.0
  0
LWPOLYLINE
  5
10b
100
AcDbEntity
  8
Trou_arret
 62
7
100
AcDbPolyline
 90
4
 70
1
 10
178.955882
 20
186.011404
 30
0.0
 10
187.372984
 20
205.498057
 30
0.0
 10
198.089554
 20
195.209301
 30
0.0
 10
178.955882
 20
186.011404
 30
0.0
  0
LWPOLYLINE
  5
10c
100
AcDbEntity
  8
Trou_arret
 62
7
100
AcDbPolyline
 90
4
 70
1
 10
215.477773
 20
178.284475
 30
0.0
 10
207.248684
 20
158.717683
 30
0.0
 10
196.433574
 20
168.902814
 30
0.0
 10
215.477773
 20
178.284475
 30
0.0
  0
LWPOLYLINE
  5
10d
100
AcDbEntity
  8
Trou_arret
 62
1
100
AcDbPolyline
 90
5
 70
1
 10
204.898250
 20
183.481632
 30
0.0
 10
194.451334
 20
172.416418
 30
0.0
 10
188.099094
 20
178.397906
 30
0.0
 10
198.546010
 20
189.463120
 30
0.0
 10
204.898250
 20
183.481632
 30
0.0
  0
LWPOLYLINE
  5
10e
100
AcDbEntity
  8
Trou_arret
 62
7
100
AcDbPolyline
 90
4
 70
1
 10
145.838539
 20
32.926827
 30
0.0
 10
125.159294
 20
37.717033
 30
0.0
 10
133.361909
 20
50.103335
 30
0.0
 10
145.838539
 20
32.926827
 30
0.0
  0
LWPOLYLINE
  5
10f
100
AcDbEntity
  8
Trou_arret
 62
7
100
AcDbPolyline
 90
4
 70
1
 10
146.898126
 20
70.242122
 30
0.0
 10
167.622533
 20
65.651244
 30
0.0
 10
159.539519
 20
53.186559
 30
0.0
 10
146.898126
 20
70.242122
 30
0.0
  0
LWPOLYLINE
  5
110
100
AcDbEntity
  8
Trou_arret
 62
1
100
AcDbPolyline
 90
5
 70
1
 10
143.680200
 20
58.902735
 30
0.0
 10
156.437839
 20
50.606972
 30
0.0
 10
151.691014
 20
43.285989
 30
0.0
 10
138.933375
 20
51.581751
 30
0.0
 10
143.680200
 20
58.902735
 30
0.0
  0
LWPOLYLINE
  5
111
100
AcDbEntity
  8
Trou_arret
 62
7
100
AcDbPolyline
 90
4
 70
1
 10
228.365121
 20
278.634760
 30
0.0
 10
213.970980
 20
294.235592
 30
0.0
 10
227.723388
 20
299.854724
 30
0.0
 10
228.365121
 20
278.634760
 30
0.0
  0
LWPOLYLINE
  5
112
100
AcDbEntity
  8
Trou_arret
 62
1
100
AcDbPolyline
 90
5
 70
1
 10
241.205023
 20
301.318302
 30
0.0
 10
247.078617
 20
287.279858
 30
0.0
 10
239.033970
 20
283.901574
 30
0.0
 10
233.160377
 20
297.940018
 30
0.0
 10
241.205023
 20
301.318302
 30
0.0
  0
LWPOLYLINE
  5
113
100
AcDbEntity
  8
Trou_arret
 62
7
100
AcDbPolyline
 90
4
 70
1
 10
40.715262
 20
46.026317
 30
0.0
 10
49.877120
 20
65.174100
 30
0.0
 10
60.189203
 20
54.479975
 30
0.0
 10
40.715262
 20
46.026317
 30
0.0
  0
LWPOLYLINE
  5
114
100
AcDbEntity
  8
Trou_arret
 62
7
100
AcDbPolyline
 90
4
 70
1
 10
76.912227
 20
36.897587
 30
0.0
 10
67.935154
 20
17.662478
 30
0.0
 10
57.520610
 20
28.256853
 30
0.0
 10
76.912227
 20
36.897587
 30
0.0
  0
LWPOLYLINE
  5
115
100
AcDbEntity
  8
Trou_arret
 62
1
100
AcDbPolyline
 90
5
 70
1
 10
66.540860
 20
42.498614
 30
0.0
 10
55.675256
 20
31.844241
 30
0.0
 10
49.558260
 20
38.066099
 30
0.0
 10
60.423865
 20
48.720471
 30
0.0
 10
66.540860
 20
42.498614
 30
0.0
  0
LWPOLYLINE
  5
116
100
AcDbEntity
  8
Trou_arret
 62
7
100
AcDbPolyline
 90
4
 70
1
 10
57.695244
 20
357.793352
 30
0.0
 10
47.564145
 20
376.446450
 30
0.0
 10
62.274349
 20
378.523294
 30
0.0
 10
57.695244
 20
357.793352
 30
0.0
  0
LWPOLYLINE
  5
117
100
AcDbEntity
  8
Trou_arret
 62
7
100
AcDbPolyline
 90
4
 70
1
 10
86.323972
 20
381.750603
 30
0.0
 10
96.634198
 20
363.195914
 30
0.0
 10
81.944662
 20
360.977574
 30
0.0
 10
86.323972
 20
381.750603
 30
0.0
  0
LWPOLYLINE
  5
118
100
AcDbEntity
  8
Trou_arret
 62
1
100
AcDbPolyline
 90
5
 70
1
 10
75.703465
 20
376.637719
 30
0.0
 10
77.956897
 20
361.587833
 30
0.0
 10
69.329596
 20
360.284441
 30
0.0
 10
67.076165
 20
375.334327
 30
0.0
 10
75.703465
 20
376.637719
 30
0.0
  0
LWPOLYLINE
  5
119
100
AcDbEntity
  8
Trou_arret
 62
7
100
AcDbPolyline
 90
4
 70
1
 10
40.433160
 20
450.798108
 30
0.0
 10
24.769868
 20
465.124255
 30
0.0
 10
37.997157
 20
471.887550
 30
0.0
 10
40.433160
 20
450.798108
 30
0.0
  0
LWPOLYLINE
  5
11a
100
AcDbEntity
  8
Trou_arret
 62
7
100
AcDbPolyline
 90
4
 70
1
 10
59.677231
 20
482.785912
 30
0.0
 10
75.477733
 20
468.611240
 30
0.0
 10
62.316151
 20
461.720938
 30
0.0
 10
59.677231
 20
482.785912
 30
0.0
  0
LWPOLYLINE
  5
11b
100
AcDbEntity
  8
Trou_arret
 62
1
100
AcDbPolyline
 90
5
 70
1
 10
51.306475
 20
474.487286
 30
0.0
 10
58.347534
 20
460.996531
 30
0.0
 10
50.617792
 20
456.949282
 30
0.0
 10
43.576732
 20
470.440038
 30
0.0
 10
51.306475
 20
474.487286
 30
0.0
  0
LWPOLYLINE
  5
11c
100
AcDbEntity
  8
Trou_arret
 62
7
100
AcDbPolyline
 90
4
 70
1
 10
111.300028
 20
116.240174
 30
0.0
 10
119.364036
 20
135.875576
 30
0.0
 10
130.264566
 20
125.781924
 30
0.0
 10
111.300028
 20
116.240174
 30
0.0
  0
LWPOLYLINE
  5
11d
100
AcDbEntity
  8
Trou_arret
 62
7
100
AcDbPolyline
 90
4
 70
1
 10
147.955436
 20
109.173703
 30
0.0
 10
140.080857
 20
89.461568
 30
0.0
 10
129.083673
 20
99.449833
 30
0.0
 10
147.955436
 20
109.173703
 30
0.0
  0
LWPOLYLINE
  5
11e
100
AcDbEntity
  8
Trou_arret
 62
1
100
AcDbPolyline
 90
5
 70
1
 10
137.283831
 20
114.179059
 30
0.0
 10
127.038337
 20
102.927086
 30
0.0
 10
120.579170
 20
108.792946
 30
0.0
 10
130.824664
 20
120.044918
 30
0.0
 10
137.283831
 20
114.179059
 30
0.0
  0
LWPOLYLINE
  5
11f
100
AcDbEntity
  8
Trou_arret
 62
7
100
AcDbPolyline
 90
4
 70
1
 10
214.083819
 20
318.893107
 30
0.0
 10
201.033823
 20
335.634518
 30
0.0
 10
215.205063
 20
340.093143
 30
0.0
 10
214.083819
 20
318.893107
 30
0.0
  0
LWPOLYLINE
  5
120
100
AcDbEntity
  8
Trou_arret
 62
7
100
AcDbPolyline
 90
4
 70
1
 10
238.401077
 20
347.216683
 30
0.0
 10
251.611659
 20
330.601697
 30
0.0
 10
237.483988
 20
326.006874
 30
0.0
 10
238.401077
 20
347.216683
 30
0.0
  0
LWPOLYLINE
  5
121
100
AcDbEntity
  8
Trou_arret
 62
1
100
AcDbPolyline
 90
5
 70
1
 10
228.761650
 20
340.433012
 30
0.0
 10
233.450124
 20
325.955608
 30
0.0
 10
225.152900
 20
323.256493
 30
0.0
 10
220.464426
 20
337.733896
 30
0.0
 10
228.761650
 20
340.433012
 30
0.0
  0
ENDSEC
  0
SECTION
  2
OBJECTS
  0
DICTIONARY
  5
C
330
0
100
AcDbDictionary
  3
ACAD_GROUP
350
D
  3
ACAD_MLINESTYLE
350
17
  0
DICTIONARY
  5
D
330
C
100
AcDbDictionary
  0
DICTIONARY
  5
1A
330
C
100
AcDbDictionary
  0
DICTIONARY
  5
17
330
C
100
AcDbDictionary
  3
STANDARD
350
18
  0
DICTIONARY
  5
19
330
C
100
AcDbDictionary
  0
ENDSEC
  0
EOF
