  0
SECTION
  2
HEADER
  9
$ACADVER
  1
AC1014
  9
$HANDSEED
  5
FFFF
  9
$MEASUREMENT
 70
     1
  0
ENDSEC
  0
SECTION
  2
TABLES
  0
TABLE
  2
VPORT
  5
8
330
0
100
AcDbSymbolTable
 70
     4
  0
VPORT
  5
2E
330
8
100
AcDbSymbolTableRecord
100
AcDbViewportTableRecord
  2
*ACTIVE
 70
     0
 10
0.0
 20
0.0
 11
1.0
 21
1.0
 12
210.0
 22
148.5
 13
0.0
 23
0.0
 14
10.0
 24
10.0
 15
10.0
 25
10.0
 16
0.0
 26
0.0
 36
1.0
 17
0.0
 27
0.0
 37
0.0
 40
341.0
 41
1.24
 42
50.0
 43
0.0
 44
0.0
 50
0.0
 51
0.0
 71
     0
 72
   100
 73
     1
 74
     3
 75
     0
 76
     0
 77
     0
 78
     0
  0
ENDTAB
  0
TABLE
  2
LTYPE
  5
5
330
0
100
AcDbSymbolTable
 70
     1
  0
LTYPE
  5
14
330
5
100
AcDbSymbolTableRecord
100
AcDbLinetypeTableRecord
  2
BYBLOCK
 70
     0
  3

 72
    65
 73
     0
 40
0.0
  0
LTYPE
  5
15
330
5
100
AcDbSymbolTableRecord
100
AcDbLinetypeTableRecord
  2
BYLAYER
 70
     0
  3

 72
    65
 73
     0
 40
0.0
  0
LTYPE
  5
16
330
5
100
AcDbSymbolTableRecord
100
AcDbLinetypeTableRecord
  2
CONTINUOUS
 70
     0
  3
Solid line
 72
    65
 73
     0
 40
0.0
  0
ENDTAB
  0
TABLE
  2
LAYER
  5
2
100
AcDbSymbolTable
 70
6
  0
LAYER
  5
50
100
AcDbSymbolTableRecord
100
AcDbLayerTableRecord
  2
0
 70
0
  6
CONTINUOUS
  0
LAYER
  5
51
100
AcDbSymbolTableRecord
100
AcDbLayerTableRecord
  2
Fond
 70
0
  6
CONTINUOUS
  0
LAYER
  5
52
100
AcDbSymbolTableRecord
100
AcDbLayerTableRecord
  2
Autre
 70
0
  6
CONTINUOUS
  0
LAYER
  5
53
100
AcDbSymbolTableRecord
100
AcDbLayerTableRecord
  2
Routes
 70
0
  6
CONTINUOUS
  0
LAYER
  5
54
100
AcDbSymbolTableRecord
100
AcDbLayerTableRecord
  2
Arrets
 70
0
  6
CONTINUOUS
  0
LAYER
  5
55
100
AcDbSymbolTableRecord
100
AcDbLayerTableRecord
  2
Trou_arret
 70
0
  6
CONTINUOUS
  0
ENDTAB
  0
TABLE
  2
STYLE
  5
3
330
0
100
AcDbSymbolTable
 70
     1
  0
STYLE
  5
11
330
3
100
AcDbSymbolTableRecord
100
AcDbTextStyleTableRecord
  2
STANDARD
 70
     0
 40
0.0
 41
1.0
 50
0.0
 71
     0
 42
2.5
  3
txt
  4

  0
ENDTAB
  0
TABLE
  2
VIEW
  5
6
330
0
100
AcDbSymbolTable
 70
     0
  0
ENDTAB
  0
TABLE
  2
UCS
  5
7
330
0
100
AcDbSymbolTable
 70
     0
  0
ENDTAB
  0
TABLE
  2
APPID
  5
9
330
0
100
AcDbSymbolTable
 70
     2
  0
APPID
  5
12
330
9
100
AcDbSymbolTableRecord
100
AcDbRegAppTableRecord
  2
ACAD
 70
     0
  0
ENDTAB
  0
TABLE
  2
DIMSTYLE
  5
A
330
0
100
AcDbSymbolTable
 70
     1
  0
DIMSTYLE
105
27
330
A
100
AcDbSymbolTableRecord
100
AcDbDimStyleTableRecord
  2
ISO-25
 70
     0
  3

  4

  5

  6

  7

 40
1.0
 41
2.5
 42
0.625
 43
3.75
 44
1.25
 45
0.0
 46
0.0
 47
0.0
 48
0.0
140
2.5
141
2.5
142
0.0
143
0.03937007874016
144
1.0
145
0.0
146
1.0
147
0.625
 71
     0
 72
     0
 73
     0
 74
     0
 75
     0
 76
     0
 77
     1
 78
     8
170
     0
171
     3
172
     1
173
     0
174
     0
175
     0
176
     0
177
     0
178
     0
270
     2
271
     2
272
     2
273
     2
274
     3
340
11
275
     0
280
     0
281
     0
282
     0
283
     0
284
     8
285
     0
286
     0
287
     3
288
     0
  0
ENDTAB
  0
TABLE
  2
BLOCK_RECORD
  5
1
330
0
100
AcDbSymbolTable
 70
     1
  0
BLOCK_RECORD
  5
1F
330
1
100
AcDbSymbolTableRecord
100
AcDbBlockTableRecord
  2
*MODEL_SPACE
  0
BLOCK_RECORD
  5
1B
330
1
100
AcDbSymbolTableRecord
100
AcDbBlockTableRecord
  2
*PAPER_SPACE
  0
ENDTAB
  0
ENDSEC
  0
SECTION
  2
BLOCKS
  0
BLOCK
  5
20
330
1F
100
AcDbEntity
  8
0
100
AcDbBlockBegin
  2
*MODEL_SPACE
 70
     0
 10
0.0
 20
0.0
 30
0.0
  3
*MODEL_SPACE
  1

  0
ENDBLK
  5
21
330
1F
100
AcDbEntity
  8
0
100
AcDbBlockEnd
  0
BLOCK
  5
1C
330
1B
100
AcDbEntity
 67
     1
  8
0
100
AcDbBlockBegin
  2
*PAPER_SPACE
  1

  0
ENDBLK
  5
1D
330
1B
100
AcDbEntity
 67
     1
  8
0
100
AcDbBlockEnd
  0
ENDSEC
  0
SECTION
  2
ENTITIES
  0
LWPOLYLINE
  5
100
100
AcDbEntity
  8
Fond
 62
7
100
AcDbPolyline
 90
5
 70
1
 10
-26.350915
 20
514.415707
 30
0.0
 10
365.475773
 20
514.415707
 30
0.0
 10
365.475773
 20
-35.516421
 30
0.0
 10
-26.350915
 20
-35.516421
 30
0.0
 10
-26.350915
 20
514.415707
 30
0.0
  0
LWPOLYLINE
  5
101
100
AcDbEntity
  8
Routes
 62
2
100
AcDbPolyline
 90
2
 70
0
 10
57.193750
 20
453.278125
 30
0.0
 10
56.620480
 20
454.440608
 30
0.0
  0
LWPOLYLINE
  5
102
100
AcDbEntity
  8
Routes
 62
2
100
AcDbPolyline
 90
4
 70
0
 10
45.163559
 20
477.640871
 30
0.0
 10
45.059375
 20
477.290625
 30
0.0
 10
43.546875
 20
480.150000
 30
0.0
 10
39.462500
 20
489.359375
 30
0.0
  0
LWPOLYLINE
  5
103
100
AcDbEntity
  8
Routes
 62
2
100
AcDbPolyline
 90
5
 70
0
 10
57.193750
 20
453.278125
 30
0.0
 10
64.321875
 20
425.596875
 30
0.0
 10
65.621875
 20
420.550000
 30
0.0
 10
66.715625
 20
414.512500
 30
0.0
 10
68.000000
 20
405.034375
 30
0.0
  0
LWPOLYLINE
  5
104
100
AcDbEntity
  8
Routes
 62
2
100
AcDbPolyline
 90
8
 70
0
 10
98.075000
 20
422.759375
 30
0.0
 10
89.106248
 20
424.750000
 30
0.0
 10
84.384376
 20
426.981250
 30
0.0
 10
80.496872
 20
429.515625
 30
0.0
 10
74.225000
 20
434.437500
 30
0.0
 10
68.078125
 20
440.400000
 30
0.0
 10
60.881250
 20
448.971875
 30
0.0
 10
57.193750
 20
453.278125
 30
0.0
  0
LWPOLYLINE
  5
105
100
AcDbEntity
  8
Routes
 62
2
100
AcDbPolyline
 90
13
 70
0
 10
68.000000
 20
405.034375
 30
0.0
 10
70.368750
 20
406.115625
 30
0.0
 10
74.081250
 20
409.246875
 30
0.0
 10
76.043750
 20
411.331250
 30
0.0
 10
79.178125
 20
413.828125
 30
0.0
 10
82.190624
 20
415.815625
 30
0.0
 10
86.121872
 20
417.496875
 30
0.0
 10
90.331248
 20
418.715625
 30
0.0
 10
97.900000
 20
419.528125
 30
0.0
 10
115.109376
 20
419.665625
 30
0.0
 10
119.390624
 20
419.656249
 30
0.0
 10
122.593752
 20
419.209374
 30
0.0
 10
125.046872
 20
418.637499
 30
0.0
  0
LWPOLYLINE
  5
106
100
AcDbEntity
  8
Routes
 62
2
100
AcDbPolyline
 90
2
 70
0
 10
98.075000
 20
422.759375
 30
0.0
 10
74.325000
 20
420.353125
 30
0.0
  0
LWPOLYLINE
  5
107
100
AcDbEntity
  8
Routes
 62
2
100
AcDbPolyline
 90
8
 70
0
 10
76.043750
 20
411.331250
 30
0.0
 10
76.756250
 20
414.112500
 30
0.0
 10
77.437500
 20
416.015625
 30
0.0
 10
77.534375
 20
417.687500
 30
0.0
 10
77.062500
 20
419.115625
 30
0.0
 10
74.325000
 20
420.353125
 30
0.0
 10
69.884375
 20
420.003125
 30
0.0
 10
65.621875
 20
420.550000
 30
0.0
  0
LWPOLYLINE
  5
108
100
AcDbEntity
  8
Routes
 62
2
100
AcDbPolyline
 90
8
 70
0
 10
164.193752
 20
489.359375
 30
0.0
 10
159.506248
 20
478.803125
 30
0.0
 10
152.012504
 20
462.796875
 30
0.0
 10
149.981248
 20
458.575000
 30
0.0
 10
142.518752
 20
446.331250
 30
0.0
 10
137.421872
 20
437.059375
 30
0.0
 10
135.368752
 20
435.006250
 30
0.0
 10
133.678128
 20
433.856250
 30
0.0
  0
LWPOLYLINE
  5
109
100
AcDbEntity
  8
Routes
 62
2
100
AcDbPolyline
 90
5
 70
0
 10
141.081248
 20
430.025000
 30
0.0
 10
141.068768
 20
432.062500
 30
0.0
 10
141.793768
 20
435.125000
 30
0.0
 10
145.887520
 20
445.300000
 30
0.0
 10
149.981264
 20
458.575000
 30
0.0
  0
LWPOLYLINE
  5
10a
100
AcDbEntity
  8
Routes
 62
2
100
AcDbPolyline
 90
28
 70
0
 10
142.240624
 20
419.953125
 30
0.0
 10
142.831248
 20
421.637500
 30
0.0
 10
143.103128
 20
423.403125
 30
0.0
 10
143.053128
 20
425.190625
 30
0.0
 10
142.684376
 20
426.934375
 30
0.0
 10
142.021872
 20
428.550000
 30
0.0
 10
141.081248
 20
430.025000
 30
0.0
 10
139.596872
 20
431.571875
 30
0.0
 10
137.806248
 20
432.762500
 30
0.0
 10
135.803128
 20
433.537500
 30
0.0
 10
133.678128
 20
433.856250
 30
0.0
 10
131.290624
 20
433.662500
 30
0.0
 10
129.018752
 20
432.890625
 30
0.0
 10
127.006248
 20
431.600000
 30
0.0
 10
125.359376
 20
429.859375
 30
0.0
 10
124.184376
 20
427.775000
 30
0.0
 10
123.550000
 20
425.465625
 30
0.0
 10
123.484400
 20
423.090625
 30
0.0
 10
123.996896
 20
420.768750
 30
0.0
 10
125.046896
 20
418.637500
 30
0.0
 10
126.759400
 20
416.656250
 30
0.0
 10
128.934400
 20
415.193750
 30
0.0
 10
131.415648
 20
414.362500
 30
0.0
 10
134.031272
 20
414.209375
 30
0.0
 10
136.593776
 20
414.756250
 30
0.0
 10
138.921896
 20
415.962500
 30
0.0
 10
140.850024
 20
417.734375
 30
0.0
 10
142.240648
 20
419.953125
 30
0.0
  0
LWPOLYLINE
  5
10b
100
AcDbEntity
  8
Routes
 62
2
100
AcDbPolyline
 90
5
 70
0
 10
123.550000
 20
425.465625
 30
0.0
 10
121.556248
 20
424.184375
 30
0.0
 10
119.075000
 20
422.962500
 30
0.0
 10
114.568752
 20
422.425000
 30
0.0
 10
98.075000
 20
422.759375
 30
0.0
  0
LWPOLYLINE
  5
10c
100
AcDbEntity
  8
Routes
 62
2
100
AcDbPolyline
 90
2
 70
0
 10
68.000000
 20
405.034375
 30
0.0
 10
70.599842
 20
381.323456
 30
0.0
  0
LWPOLYLINE
  5
10d
100
AcDbEntity
  8
Routes
 62
2
100
AcDbPolyline
 90
3
 70
0
 10
73.435285
 20
354.994344
 30
0.0
 10
75.100000
 20
344.496872
 30
0.0
 10
75.156248
 20
343.909376
 30
0.0
  0
LWPOLYLINE
  5
10e
100
AcDbEntity
  8
Routes
 62
2
100
AcDbPolyline
 90
7
 70
0
 10
68.000000
 20
405.034375
 30
0.0
 10
65.640625
 20
404.412504
 30
0.0
 10
63.934375
 20
403.668752
 30
0.0
 10
57.012500
 20
399.196872
 30
0.0
 10
31.840625
 20
380.325000
 30
0.0
 10
24.875000
 20
375.478128
 30
0.0
 10
-3.918750
 20
362.371872
 30
0.0
  0
LWPOLYLINE
  5
10f
100
AcDbEntity
  8
Routes
 62
2
100
AcDbPolyline
 90
3
 70
0
 10
119.555272
 20
101.990888
 30
0.0
 10
109.775000
 20
94.040624
 30
0.0
 10
103.268752
 20
87.081248
 30
0.0
  0
LWPOLYLINE
  5
110
100
AcDbEntity
  8
Routes
 62
2
100
AcDbPolyline
 90
5
 70
0
 10
18.178125
 20
-4.559376
 30
0.0
 10
18.249997
 20
-4.487536
 30
0.0
 10
27.815622
 20
3.971840
 30
0.0
 10
41.387497
 20
17.071840
 30
0.0
 10
45.355055
 20
28.347384
 30
0.0
  0
LWPOLYLINE
  5
111
100
AcDbEntity
  8
Routes
 62
2
100
AcDbPolyline
 90
3
 70
0
 10
103.453128
 20
82.534376
 30
0.0
 10
103.268752
 20
87.081248
 30
0.0
 10
102.862504
 20
90.118752
 30
0.0
  0
LWPOLYLINE
  5
112
100
AcDbEntity
  8
Routes
 62
2
100
AcDbPolyline
 90
13
 70
0
 10
268.059376
 20
254.987496
 30
0.0
 10
266.421872
 20
254.981096
 30
0.0
 10
265.087504
 20
254.021720
 30
0.0
 10
264.634376
 20
253.068600
 30
0.0
 10
264.578136
 20
252.012344
 30
0.0
 10
264.934384
 20
251.012344
 30
0.0
 10
266.228136
 20
249.899848
 30
0.0
 10
267.931256
 20
249.777976
 30
0.0
 10
269.368760
 20
250.706096
 30
0.0
 10
269.909384
 20
251.849848
 30
0.0
 10
269.868744
 20
253.115472
 30
0.0
 10
269.203120
 20
254.284224
 30
0.0
 10
268.059368
 20
254.987344
 30
0.0
  0
LWPOLYLINE
  5
113
100
AcDbEntity
  8
Routes
 62
2
100
AcDbPolyline
 90
3
 70
0
 10
90.278128
 20
196.465624
 30
0.0
 10
90.703128
 20
193.050000
 30
0.0
 10
92.964224
 20
178.513384
 30
0.0
  0
LWPOLYLINE
  5
114
100
AcDbEntity
  8
Routes
 62
2
100
AcDbPolyline
 90
7
 70
0
 10
95.849352
 20
151.851496
 30
0.0
 10
96.590624
 20
143.759376
 30
0.0
 10
97.596872
 20
134.406248
 30
0.0
 10
98.465624
 20
126.312496
 30
0.0
 10
102.693752
 20
91.521872
 30
0.0
 10
102.862504
 20
90.118752
 30
0.0
 10
100.793752
 20
84.434376
 30
0.0
  0
LWPOLYLINE
  5
115
100
AcDbEntity
  8
Routes
 62
2
100
AcDbPolyline
 90
4
 70
0
 10
78.406250
 20
58.275000
 30
0.0
 10
89.881248
 20
69.525000
 30
0.0
 10
98.312504
 20
77.903128
 30
0.0
 10
103.453128
 20
82.534376
 30
0.0
  0
LWPOLYLINE
  5
116
100
AcDbEntity
  8
Routes
 62
2
100
AcDbPolyline
 90
2
 70
0
 10
76.815625
 20
58.256248
 30
0.0
 10
67.476738
 20
49.139288
 30
0.0
  0
LWPOLYLINE
  5
117
100
AcDbEntity
  8
Routes
 62
2
100
AcDbPolyline
 90
2
 70
0
 10
48.429609
 20
31.810696
 30
0.0
 10
44.103125
 20
26.846872
 30
0.0
  0
LWPOLYLINE
  5
118
100
AcDbEntity
  8
Routes
 62
2
100
AcDbPolyline
 90
2
 70
0
 10
269.868752
 20
253.115624
 30
0.0
 10
271.534376
 20
257.175000
 30
0.0
  0
LWPOLYLINE
  5
119
100
AcDbEntity
  8
Routes
 62
2
100
AcDbPolyline
 90
2
 70
0
 10
100.793752
 20
84.434376
 30
0.0
 10
76.815625
 20
58.256248
 30
0.0
  0
LWPOLYLINE
  5
11a
100
AcDbEntity
  8
Routes
 62
2
100
AcDbPolyline
 90
2
 70
0
 10
69.975750
 20
51.638472
 30
0.0
 10
78.406250
 20
58.275000
 30
0.0
  0
LWPOLYLINE
  5
11b
100
AcDbEntity
  8
Routes
 62
2
100
AcDbPolyline
 90
5
 70
0
 10
206.758248
 20
191.453080
 30
0.0
 10
213.865624
 20
198.278128
 30
0.0
 10
227.571872
 20
212.803128
 30
0.0
 10
233.675000
 20
218.903128
 30
0.0
 10
264.934376
 20
251.012496
 30
0.0
  0
LWPOLYLINE
  5
11c
100
AcDbEntity
  8
Routes
 62
2
100
AcDbPolyline
 90
3
 70
0
 10
19.734375
 20
4.018752
 30
0.0
 10
16.068750
 20
-2.193752
 30
0.0
 10
13.506250
 20
-4.559376
 30
0.0
  0
LWPOLYLINE
  5
11d
100
AcDbEntity
  8
Routes
 62
2
100
AcDbPolyline
 90
3
 70
0
 10
45.248817
 20
28.278984
 30
0.0
 10
19.734375
 20
4.018752
 30
0.0
 10
10.575000
 20
-4.559376
 30
0.0
  0
LWPOLYLINE
  5
11e
100
AcDbEntity
  8
Routes
 62
2
100
AcDbPolyline
 90
8
 70
0
 10
75.156250
 20
343.909376
 30
0.0
 10
75.743750
 20
339.084376
 30
0.0
 10
79.131250
 20
304.753128
 30
0.0
 10
80.150000
 20
292.762496
 30
0.0
 10
82.703128
 20
275.003128
 30
0.0
 10
83.287504
 20
270.196872
 30
0.0
 10
83.759376
 20
265.521872
 30
0.0
 10
84.032752
 20
255.468168
 30
0.0
  0
LWPOLYLINE
  5
11f
100
AcDbEntity
  8
Routes
 62
2
100
AcDbPolyline
 90
3
 70
0
 10
87.469824
 20
228.830832
 30
0.0
 10
89.206248
 20
210.925000
 30
0.0
 10
90.278128
 20
196.465624
 30
0.0
  0
LWPOLYLINE
  5
120
100
AcDbEntity
  8
Routes
 62
2
100
AcDbPolyline
 90
4
 70
0
 10
138.562368
 20
120.814400
 30
0.0
 10
144.353128
 20
126.543752
 30
0.0
 10
159.028128
 20
142.112496
 30
0.0
 10
160.993752
 20
144.200000
 30
0.0
  0
LWPOLYLINE
  5
121
100
AcDbEntity
  8
Routes
 62
2
100
AcDbPolyline
 90
3
 70
0
 10
103.453128
 20
82.534376
 30
0.0
 10
112.243752
 20
91.134376
 30
0.0
 10
119.770080
 20
101.847672
 30
0.0
  0
LWPOLYLINE
  5
122
100
AcDbEntity
  8
Routes
 62
2
100
AcDbPolyline
 90
2
 70
0
 10
103.268752
 20
87.081248
 30
0.0
 10
100.793752
 20
84.434376
 30
0.0
  0
LWPOLYLINE
  5
123
100
AcDbEntity
  8
Routes
 62
2
100
AcDbPolyline
 90
2
 70
0
 10
271.534376
 20
257.175000
 30
0.0
 10
268.059376
 20
254.987496
 30
0.0
  0
LWPOLYLINE
  5
124
100
AcDbEntity
  8
Routes
 62
2
100
AcDbPolyline
 90
3
 70
0
 10
160.993752
 20
144.200000
 30
0.0
 10
162.984376
 20
146.240624
 30
0.0
 10
186.323864
 20
171.190136
 30
0.0
  0
LWPOLYLINE
  5
125
100
AcDbEntity
  8
Routes
 62
2
100
AcDbPolyline
 90
4
 70
0
 10
271.534376
 20
257.175000
 30
0.0
 10
287.728128
 20
273.418752
 30
0.0
 10
304.278128
 20
289.143752
 30
0.0
 10
308.221872
 20
292.890624
 30
0.0
  0
LWPOLYLINE
  5
126
100
AcDbEntity
  8
Routes
 62
2
100
AcDbPolyline
 90
2
 70
0
 10
230.658344
 20
319.930464
 30
0.0
 10
233.775000
 20
310.771872
 30
0.0
  0
LWPOLYLINE
  5
127
100
AcDbEntity
  8
Routes
 62
2
100
AcDbPolyline
 90
4
 70
0
 10
153.356248
 20
423.037500
 30
0.0
 10
146.703128
 20
424.737500
 30
0.0
 10
144.503128
 20
425.868750
 30
0.0
 10
142.684376
 20
426.934375
 30
0.0
  0
LWPOLYLINE
  5
128
100
AcDbEntity
  8
Routes
 62
2
100
AcDbPolyline
 90
2
 70
0
 10
153.356248
 20
423.037500
 30
0.0
 10
154.951528
 20
422.671282
 30
0.0
  0
LWPOLYLINE
  5
129
100
AcDbEntity
  8
Routes
 62
2
100
AcDbPolyline
 90
12
 70
0
 10
181.303472
 20
421.777264
 30
0.0
 10
189.506248
 20
421.531250
 30
0.0
 10
193.634376
 20
419.615625
 30
0.0
 10
197.968752
 20
417.471875
 30
0.0
 10
201.300000
 20
415.440625
 30
0.0
 10
204.400000
 20
412.571875
 30
0.0
 10
207.909376
 20
407.884375
 30
0.0
 10
210.046872
 20
402.909376
 30
0.0
 10
215.940624
 20
388.700000
 30
0.0
 10
220.728128
 20
377.568752
 30
0.0
 10
222.353128
 20
347.981248
 30
0.0
 10
223.152808
 20
344.081168
 30
0.0
  0
LWPOLYLINE
  5
12a
100
AcDbEntity
  8
Routes
 62
2
100
AcDbPolyline
 90
5
 70
0
 10
142.240624
 20
419.953125
 30
0.0
 10
144.081248
 20
420.918750
 30
0.0
 10
146.231248
 20
421.756250
 30
0.0
 10
146.306208
 20
421.865625
 30
0.0
 10
153.356208
 20
423.037500
 30
0.0
  0
LWPOLYLINE
  5
12b
100
AcDbEntity
  8
Routes
 62
2
100
AcDbPolyline
 90
2
 70
0
 10
233.775000
 20
310.771872
 30
0.0
 10
235.874568
 20
304.266688
 30
0.0
  0
LWPOLYLINE
  5
12c
100
AcDbEntity
  8
Routes
 62
2
100
AcDbPolyline
 90
2
 70
0
 10
244.365624
 20
281.150000
 30
0.0
 10
247.940624
 20
273.625000
 30
0.0
  0
LWPOLYLINE
  5
12d
100
AcDbEntity
  8
Routes
 62
2
100
AcDbPolyline
 90
7
 70
0
 10
296.434376
 20
231.096872
 30
0.0
 10
296.381256
 20
232.500000
 30
0.0
 10
295.818760
 20
233.840624
 30
0.0
 10
294.543760
 20
234.718752
 30
0.0
 10
293.150008
 20
234.665632
 30
0.0
 10
292.256256
 20
234.206256
 30
0.0
 10
291.596880
 20
233.350008
 30
0.0
  0
LWPOLYLINE
  5
12e
100
AcDbEntity
  8
Routes
 62
2
100
AcDbPolyline
 90
3
 70
0
 10
296.434376
 20
231.096872
 30
0.0
 10
298.312504
 20
230.418752
 30
0.0
 10
308.718752
 20
224.531248
 30
0.0
  0
LWPOLYLINE
  5
12f
100
AcDbEntity
  8
Routes
 62
2
100
AcDbPolyline
 90
4
 70
0
 10
247.940624
 20
273.625000
 30
0.0
 10
251.678128
 20
267.181248
 30
0.0
 10
255.946872
 20
262.443752
 30
0.0
 10
265.087504
 20
254.021872
 30
0.0
  0
LWPOLYLINE
  5
130
100
AcDbEntity
  8
Routes
 62
2
100
AcDbPolyline
 90
7
 70
0
 10
291.596872
 20
233.350000
 30
0.0
 10
291.256248
 20
232.046872
 30
0.0
 10
291.737504
 20
230.256248
 30
0.0
 10
292.918752
 20
229.181248
 30
0.0
 10
294.515624
 20
229.115648
 30
0.0
 10
295.615624
 20
229.665648
 30
0.0
 10
296.434376
 20
231.096896
 30
0.0
  0
LWPOLYLINE
  5
131
100
AcDbEntity
  8
Routes
 62
2
100
AcDbPolyline
 90
2
 70
0
 10
269.368752
 20
250.706248
 30
0.0
 10
291.596872
 20
233.350000
 30
0.0
  0
LWPOLYLINE
  5
132
100
AcDbEntity
  8
Routes
 62
1
100
AcDbPolyline
 90
4
 70
0
 10
29.406250
 20
193.312496
 30
0.0
 10
48.325000
 20
193.450000
 30
0.0
 10
58.050000
 20
193.903128
 30
0.0
 10
67.187500
 20
194.387496
 30
0.0
  0
LWPOLYLINE
  5
133
100
AcDbEntity
  8
Routes
 62
1
100
AcDbPolyline
 90
6
 70
0
 10
-1.731250
 20
177.415624
 30
0.0
 10
4.315625
 20
183.987496
 30
0.0
 10
9.150000
 20
187.134376
 30
0.0
 10
15.159375
 20
190.900000
 30
0.0
 10
23.137500
 20
192.490624
 30
0.0
 10
29.406250
 20
193.312496
 30
0.0
  0
LWPOLYLINE
  5
134
100
AcDbEntity
  8
Routes
 62
1
100
AcDbPolyline
 90
4
 70
0
 10
67.187500
 20
194.387496
 30
0.0
 10
77.256250
 20
194.918752
 30
0.0
 10
86.634376
 20
196.034376
 30
0.0
 10
90.278128
 20
196.465624
 30
0.0
  0
LWPOLYLINE
  5
135
100
AcDbEntity
  8
Routes
 62
1
100
AcDbPolyline
 90
4
 70
0
 10
100.793752
 20
84.434376
 30
0.0
 10
103.453128
 20
82.534376
 30
0.0
 10
126.384376
 20
66.375000
 30
0.0
 10
137.059656
 20
59.008504
 30
0.0
  0
LWPOLYLINE
  5
136
100
AcDbEntity
  8
Routes
 62
1
100
AcDbPolyline
 90
2
 70
0
 10
158.835952
 20
43.967208
 30
0.0
 10
170.318632
 20
36.752216
 30
0.0
  0
LWPOLYLINE
  5
137
100
AcDbEntity
  8
Routes
 62
1
100
AcDbPolyline
 90
4
 70
0
 10
167.078128
 20
38.575000
 30
0.0
 10
176.615624
 20
33.140624
 30
0.0
 10
184.406248
 20
29.059376
 30
0.0
 10
198.787504
 20
22.334376
 30
0.0
  0
LWPOLYLINE
  5
138
100
AcDbEntity
  8
Routes
 62
1
100
AcDbPolyline
 90
10
 70
0
 10
-1.462500
 20
292.103128
 30
0.0
 10
5.521875
 20
296.581248
 30
0.0
 10
12.450000
 20
300.812496
 30
0.0
 10
25.540625
 20
307.546872
 30
0.0
 10
33.675000
 20
308.828128
 30
0.0
 10
37.796875
 20
309.478128
 30
0.0
 10
53.775000
 20
311.618752
 30
0.0
 10
51.331250
 20
335.718752
 30
0.0
 10
59.412500
 20
342.981248
 30
0.0
 10
75.100000
 20
344.496872
 30
0.0
  0
LWPOLYLINE
  5
139
100
AcDbEntity
  8
Routes
 62
1
100
AcDbPolyline
 90
9
 70
0
 10
308.612504
 20
315.775000
 30
0.0
 10
291.787504
 20
312.931248
 30
0.0
 10
286.590624
 20
313.271872
 30
0.0
 10
281.546872
 20
314.300000
 30
0.0
 10
275.281248
 20
315.321872
 30
0.0
 10
264.975000
 20
315.459376
 30
0.0
 10
250.337504
 20
313.803128
 30
0.0
 10
244.062504
 20
312.509376
 30
0.0
 10
233.775000
 20
310.771872
 30
0.0
  0
ENDSEC
  0
SECTION
  2
OBJECTS
  0
DICTIONARY
  5
C
330
0
100
AcDbDictionary
  3
ACAD_GROUP
350
D
  3
ACAD_MLINESTYLE
350
17
  0
DICTIONARY
  5
D
330
C
100
AcDbDictionary
  0
DICTIONARY
  5
1A
330
C
100
AcDbDictionary
  0
DICTIONARY
  5
17
330
C
100
AcDbDictionary
  3
STANDARD
350
18
  0
DICTIONARY
  5
19
330
C
100
AcDbDictionary
  0
ENDSEC
  0
EOF
